<svg width="206" height="82" viewBox="0 0 206 82" fill="none" xmlns="http://www.w3.org/2000/svg">
<circle cx="124" cy="41" r="41" fill="black" fill-opacity="0.35"/>
<circle cx="165" cy="41" r="41" fill="black" fill-opacity="0.35"/>
<circle cx="41" cy="41" r="41" fill="black" fill-opacity="0.5"/>
<circle cx="82" cy="41" r="41" fill="black"/>
<path d="M70.2315 59V54.2415L82.8558 41.8658C84.0632 40.6465 85.0694 39.5634 85.8743 38.6165C86.6792 37.6695 87.2829 36.7521 87.6854 35.8643C88.0878 34.9766 88.2891 34.0296 88.2891 33.0234C88.2891 31.8752 88.0286 30.8928 87.5078 30.076C86.987 29.2474 86.2708 28.6082 85.3594 28.1584C84.4479 27.7086 83.4122 27.4837 82.2521 27.4837C81.0566 27.4837 80.009 27.7322 79.1094 28.2294C78.2098 28.7147 77.5114 29.4072 77.0142 30.3068C76.5289 31.2064 76.2862 32.2777 76.2862 33.5206H70.0185C70.0185 31.2124 70.5452 29.206 71.5987 27.5014C72.6522 25.7969 74.1023 24.477 75.9489 23.5419C77.8073 22.6068 79.938 22.1392 82.3409 22.1392C84.7794 22.1392 86.9219 22.5949 88.7685 23.5064C90.6151 24.4178 92.0473 25.6667 93.0653 27.2528C94.0952 28.839 94.6101 30.6501 94.6101 32.6861C94.6101 34.0473 94.3497 35.3849 93.8288 36.6989C93.308 38.0128 92.3906 39.4687 91.0767 41.0668C89.7746 42.6648 87.9458 44.6001 85.5902 46.8729L79.3224 53.2472V53.4957H95.1605V59H70.2315Z" fill="white"/>
</svg>
