<svg width="206" height="82" viewBox="0 0 206 82" fill="none" xmlns="http://www.w3.org/2000/svg">
<circle cx="82" cy="41" r="41" fill="black" fill-opacity="0.35"/>
<circle cx="124" cy="41" r="41" fill="black"/>
<circle cx="165" cy="41" r="41" fill="black" fill-opacity="0.35"/>
<circle cx="41" cy="41" r="41" fill="black" fill-opacity="0.5"/>
<path d="M124.282 57.4972C121.725 57.4972 119.452 57.0592 117.464 56.1832C115.487 55.3073 113.924 54.0881 112.776 52.5256C111.628 50.9631 111.018 49.1579 110.947 47.1101H117.624C117.683 48.0926 118.008 48.9508 118.6 49.6847C119.192 50.4067 119.979 50.969 120.962 51.3714C121.944 51.7739 123.045 51.9751 124.264 51.9751C125.566 51.9751 126.72 51.7502 127.727 51.3004C128.733 50.8388 129.52 50.1996 130.088 49.3828C130.656 48.5661 130.934 47.625 130.923 46.5597C130.934 45.4588 130.65 44.4882 130.07 43.6477C129.49 42.8073 128.65 42.1503 127.549 41.6768C126.46 41.2034 125.146 40.9666 123.607 40.9666H120.393V35.8885H123.607C124.874 35.8885 125.981 35.6695 126.928 35.2315C127.886 34.7936 128.638 34.178 129.183 33.3849C129.727 32.58 129.993 31.6508 129.982 30.5973C129.993 29.5675 129.763 28.6738 129.289 27.9162C128.827 27.1468 128.17 26.549 127.318 26.1229C126.478 25.6967 125.489 25.4837 124.353 25.4837C123.24 25.4837 122.21 25.6849 121.263 26.0874C120.317 26.4898 119.553 27.0639 118.973 27.8097C118.393 28.5436 118.085 29.4195 118.05 30.4375H111.711C111.758 28.4015 112.344 26.6141 113.469 25.0753C114.605 23.5246 116.12 22.3172 118.014 21.4531C119.908 20.5772 122.033 20.1392 124.388 20.1392C126.815 20.1392 128.922 20.5949 130.71 21.5064C132.509 22.406 133.9 23.6193 134.882 25.1463C135.865 26.6733 136.356 28.3601 136.356 30.2067C136.368 32.2545 135.764 33.9709 134.545 35.3558C133.337 36.7408 131.751 37.6463 129.786 38.0724V38.3565C132.343 38.7116 134.302 39.6586 135.663 41.1974C137.036 42.7244 137.717 44.6243 137.705 46.897C137.705 48.933 137.125 50.7559 135.965 52.3658C134.817 53.9638 133.231 55.2185 131.207 56.13C129.194 57.0414 126.886 57.4972 124.282 57.4972Z" fill="white"/>
</svg>
