<svg width="130" height="130" viewBox="0 0 130 130" fill="none" xmlns="http://www.w3.org/2000/svg">
<rect width="130" height="130" rx="65" fill="#10B981" fill-opacity="0.5"/>
<path d="M46.2046 95.3279L56.2874 113.583C57.8784 116.463 61.5032 117.508 64.3838 115.917C67.2644 114.326 68.3097 110.702 66.7186 107.821L56.6358 89.5663L46.2046 95.3279Z" fill="black"/>
<path d="M25.9636 89.4908L17.3212 73.844C14.9346 69.5231 16.5027 64.0858 20.8234 61.6993L36.4703 53.057L53.7551 84.3507L42.0199 90.8325L38.1082 92.9931C33.7874 95.3796 28.3501 93.8117 25.9636 89.4908Z" fill="black"/>
<path d="M92.0538 42.7766L90.6134 40.1688C88.2268 35.8479 82.7896 34.2799 78.4688 36.6665L88.5515 54.9212C92.8724 52.5346 94.4404 47.0975 92.0538 42.7766Z" fill="black"/>
<path d="M60.4113 84.0776L38.8053 44.9603L54.8093 15.6256C55.9352 13.5619 58.8959 13.5541 60.0325 15.6119L96.556 81.7373C97.6926 83.7951 96.1095 86.297 93.7633 86.1512L60.4113 84.0776Z" fill="black"/>
<path fill-rule="evenodd" clip-rule="evenodd" d="M101.869 18.4502C103.33 19.2071 103.901 21.0052 103.144 22.4659L98.2009 32.0027C97.4439 33.4636 95.6458 34.034 94.1849 33.2771C92.7243 32.52 92.1538 30.7219 92.9108 29.261L97.8535 19.7242C98.6106 18.2635 100.409 17.6931 101.869 18.4502ZM98.7097 42.5036C97.9141 41.0633 98.4368 39.2509 99.8771 38.4554L110.308 32.6938C111.749 31.8983 113.561 32.4209 114.357 33.8612C115.152 35.3015 114.629 37.1139 113.189 37.9095L102.758 43.671C101.318 44.4666 99.5052 43.9439 98.7097 42.5036ZM104.11 51.2465C104.247 49.6068 105.688 48.3886 107.327 48.5255L118.031 49.42C119.671 49.5571 120.889 50.9974 120.752 52.6371C120.615 54.2766 119.175 55.4948 117.535 55.3576L106.831 54.4632C105.191 54.3263 103.973 52.886 104.11 51.2465Z" fill="black"/>
</svg>
