<svg width="130" height="130" viewBox="0 0 130 130" fill="none" xmlns="http://www.w3.org/2000/svg">
<rect width="130" height="130" rx="65" fill="#10B981" fill-opacity="0.5"/>
<path d="M65.1667 38.0835C68.1583 38.0835 70.5833 40.5086 70.5833 43.5002V70.5835C70.5833 73.5751 68.1583 76.0002 65.1667 76.0002C62.175 76.0002 59.75 73.5751 59.75 70.5835V43.5002C59.75 40.5086 62.175 38.0835 65.1667 38.0835Z" fill="black"/>
<path d="M65.1667 92.2501C68.1583 92.2501 70.5833 89.825 70.5833 86.8334C70.5833 83.8418 68.1583 81.4167 65.1667 81.4167C62.175 81.4167 59.75 83.8418 59.75 86.8334C59.75 89.825 62.175 92.2501 65.1667 92.2501Z" fill="black"/>
<path fill-rule="evenodd" clip-rule="evenodd" d="M65.1667 11C35.2512 11 11 35.2512 11 65.1667C11 95.0818 35.2512 119.333 65.1667 119.333C95.0818 119.333 119.333 95.0818 119.333 65.1667C119.333 35.2512 95.0818 11 65.1667 11ZM21.8333 65.1667C21.8333 41.2343 41.2343 21.8333 65.1667 21.8333C89.0991 21.8333 108.5 41.2343 108.5 65.1667C108.5 89.0991 89.0991 108.5 65.1667 108.5C41.2343 108.5 21.8333 89.0991 21.8333 65.1667Z" fill="black"/>
</svg>
