<svg width="380" height="380" viewBox="0 0 380 380" fill="none" xmlns="http://www.w3.org/2000/svg">
<g clip-path="url(#clip0_32_1033)">
<path d="M380 0H0V380H380V0Z" fill="white"/>
<path d="M187.31 321.576C280.941 321.576 356.844 312.49 356.844 301.281C356.844 290.073 280.941 280.987 187.31 280.987C93.6782 280.987 17.7749 290.073 17.7749 301.281C17.7749 312.49 93.6782 321.576 187.31 321.576Z" fill="#D9E4F5"/>
<path d="M101.68 64.1075C101.68 64.9086 101.354 65.6397 100.822 66.1679C100.297 66.6999 99.5654 67.0267 98.7644 67.0267H36.3585C34.7557 67.0267 33.4424 65.7134 33.4424 64.1075C33.4424 63.3057 33.7692 62.5754 34.3012 62.0472C34.8263 61.5152 35.5575 61.1884 36.3585 61.1884H39.3081C40.4731 58.4812 43.1635 56.5888 46.2947 56.5888C48.4022 56.5888 50.3083 57.4476 51.6885 58.8316C53.5269 55.7133 56.9173 53.6195 60.8001 53.6195C61.8679 53.6195 62.8947 53.7814 63.8644 54.074C65.8951 50.2558 69.9087 47.6566 74.5348 47.6566C80.0904 47.6566 84.7644 51.4079 86.175 56.5121C87.1987 56.0006 88.3531 55.7072 89.579 55.7072C93.0439 55.7072 95.9668 58.0207 96.8857 61.1884H98.7644C100.367 61.1884 101.68 62.5016 101.68 64.1075Z" fill="#D9E4F5"/>
<path d="M326.153 65.4938C326.153 66.2948 325.826 67.0259 325.294 67.5541C324.769 68.0861 324.038 68.4129 323.237 68.4129H260.831C259.228 68.4129 257.915 67.0996 257.915 65.4938C257.915 64.692 258.242 63.9616 258.774 63.4334C259.299 62.9014 260.029 62.5746 260.831 62.5746H263.781C264.946 59.8675 267.636 57.9751 270.767 57.9751C272.875 57.9751 274.781 58.8339 276.162 60.2178C278 57.0996 281.391 55.0058 285.274 55.0058C286.341 55.0058 287.368 55.1676 288.338 55.4602C290.368 51.642 294.381 49.0428 299.008 49.0428C304.564 49.0428 309.238 52.7942 310.648 57.8983C311.672 57.3868 312.827 57.0935 314.052 57.0935C317.517 57.0935 320.44 59.4069 321.359 62.5754H323.238C324.84 62.5746 326.153 63.8879 326.153 65.4938Z" fill="#D9E4F5"/>
<path d="M224.546 85.0341C224.546 85.8359 224.219 86.5663 223.687 87.0945C223.162 87.6265 222.431 87.9533 221.63 87.9533H159.224C157.621 87.9533 156.308 86.64 156.308 85.0341C156.308 84.2331 156.634 83.502 157.166 82.9738C157.692 82.4418 158.423 82.115 159.224 82.115H162.173C163.338 79.4078 166.029 77.5154 169.16 77.5154C171.267 77.5154 173.174 78.3742 174.554 79.7582C176.393 76.6399 179.783 74.5461 183.666 74.5461C184.733 74.5461 185.761 74.708 186.73 75.0006C188.76 71.1824 192.775 68.5832 197.401 68.5832C202.956 68.5832 207.63 72.3345 209.041 77.4387C210.065 76.9264 211.219 76.6338 212.445 76.6338C215.91 76.6338 218.833 78.9473 219.752 82.1157H221.63C223.232 82.115 224.546 83.4282 224.546 85.0341Z" fill="#D9E4F5"/>
<path d="M303.72 200.57C307.299 194.174 314.143 180.745 317.087 166.877C321.485 146.156 331.285 145.243 334.865 151.175C344.699 167.468 318.075 195.395 309.614 203.636L303.72 200.57Z" fill="#C7D9ED"/>
<path d="M305.964 201.737C312.519 193.374 317.492 184.2 320.714 177.432C324.993 168.445 327.194 161.644 327.216 161.574C327.294 161.331 327.556 161.196 327.801 161.275C328.046 161.353 328.181 161.615 328.101 161.859C328.08 161.928 325.863 168.777 321.561 177.818C318.334 184.598 313.36 193.777 306.803 202.174L305.964 201.737Z" fill="#B4CAE3"/>
<path d="M68.9274 261.641C65.6442 255.089 59.4191 241.362 57.1102 227.374C53.6613 206.473 43.9143 205.115 40.0672 210.877C29.5009 226.703 54.8226 255.817 62.8999 264.435L68.9274 261.641Z" fill="#C7D9ED"/>
<path d="M66.6331 262.705C60.4664 254.051 55.9171 244.661 53.007 237.753C49.1424 228.58 47.2538 221.685 47.2348 221.615C47.168 221.368 46.9118 221.222 46.6641 221.29C46.4163 221.356 46.2696 221.612 46.3373 221.86C46.3548 221.929 48.2578 228.872 52.1429 238.1C55.0568 245.02 59.6069 254.416 65.7743 263.103L66.6331 262.705Z" fill="#B4CAE3"/>
<path d="M76.9463 280.692C69.8578 273.548 54.3735 256.8 44.6182 237.787C30.619 210.501 16.581 212.94 13.8268 222.586C6.70252 247.532 48.6629 274.643 66.0616 284.658L76.9463 280.692Z" fill="#D9E4F5"/>
<path d="M73.1144 282.088C60.8982 272.927 50.5698 262.089 43.5519 253.91C34.1667 242.974 28.5138 234.305 28.4568 234.218C28.2546 233.907 27.8374 233.818 27.5258 234.021C27.2134 234.223 27.1245 234.64 27.3282 234.952C27.3829 235.039 33.0768 243.769 42.5153 254.771C49.448 262.853 59.594 273.515 71.6073 282.638L73.1144 282.088Z" fill="#C7D9ED"/>
<path d="M298.686 213.568C306.093 206.753 322.325 190.73 332.937 172.182C348.166 145.563 362.079 148.639 364.39 158.401C370.369 183.646 327.216 208.815 309.379 218.027L298.686 213.568Z" fill="#D9E4F5"/>
<path d="M302.45 215.137C315.071 206.542 325.883 196.186 333.266 188.336C343.14 177.84 349.183 169.437 349.244 169.352C349.46 169.051 349.881 168.981 350.183 169.199C350.486 169.414 350.556 169.835 350.338 170.137C350.28 170.222 344.193 178.683 334.263 189.243C326.97 197 316.348 207.189 303.93 215.754L302.45 215.137Z" fill="#C7D9ED"/>
<path d="M85.5821 172.12C78.2458 167.749 61.978 157.265 49.9396 143.705C32.6633 124.246 21.6441 129.221 21.4214 137.729C20.8461 159.735 61.0615 173.135 77.4767 177.682L85.5821 172.12Z" fill="#D9E4F5"/>
<path d="M82.729 174.078C70.7522 169.135 59.9723 162.414 52.4749 157.179C42.449 150.178 35.97 144.251 35.9047 144.191C35.6729 143.978 35.3111 143.993 35.0983 144.227C34.884 144.459 34.8992 144.82 35.1325 145.033C35.1963 145.093 41.7217 151.061 51.8046 158.105C59.2108 163.279 69.8045 169.893 81.6065 174.848L82.729 174.078Z" fill="#C7D9ED"/>
<path d="M125.11 87.9844C126.329 76.5761 125.38 65.5492 119.702 68.2693C114.019 70.9908 116.011 89.9354 123.738 102.431L125.35 107.31C119.878 98.1054 108.959 90.307 104.478 93.2216C100.025 96.118 107.764 100.649 115.523 103.609C121.429 105.861 124.78 108.69 126.336 110.292L133.949 133.337C125.242 118.785 107.995 106.495 100.904 111.107C93.8388 115.702 106.119 122.892 118.43 127.588C127.733 131.136 133.044 135.588 135.536 138.14L137.054 142.735C137.892 142.597 138.729 142.454 139.565 142.305L130.507 114.889C131.116 112.535 132.323 109.313 134.715 105.566C139.184 98.5659 142.701 90.3169 137.399 90.6429C132.797 90.9264 129.097 100.461 128.863 109.911L125.731 100.429C125.262 97.3302 124.585 92.9077 125.11 87.9844Z" fill="#C7D9ED"/>
<path d="M345.78 213.973C348.86 202.921 353.813 193.024 358.086 197.647C362.362 202.275 353.517 219.145 341.723 227.905L338.424 231.844C346.907 225.31 359.934 222.094 363.022 226.458C366.091 230.794 357.226 232.147 348.923 232.033C342.602 231.946 338.445 233.337 336.407 234.252L320.823 252.857C334.287 242.548 354.853 237.493 359.74 244.397C364.61 251.277 350.543 253.424 337.368 253.243C327.412 253.106 320.833 255.282 317.574 256.733L314.468 260.443C313.74 260.005 313.014 259.563 312.292 259.117L330.833 236.982C331.136 234.569 331.204 231.129 330.365 226.763C328.796 218.609 328.573 209.644 333.38 211.905C337.552 213.867 337.471 224.094 334.199 232.963L340.61 225.308C342.189 222.603 344.452 218.744 345.78 213.973Z" fill="#D9E4F5"/>
<path d="M329.489 128.936C327.452 128.936 325.795 127.279 325.795 125.242C325.795 123.205 327.452 121.548 329.489 121.548C331.525 121.548 333.182 123.205 333.182 125.242C333.182 127.279 331.525 128.936 329.489 128.936ZM329.489 122.707C328.091 122.707 326.954 123.844 326.954 125.242C326.954 126.64 328.091 127.777 329.489 127.777C330.886 127.777 332.023 126.64 332.023 125.242C332.024 123.844 330.886 122.707 329.489 122.707Z" fill="#10B981"/>
<path d="M348.261 132.694C346.225 132.694 344.568 131.037 344.568 129C344.568 126.963 346.225 125.307 348.261 125.307C350.298 125.307 351.955 126.963 351.955 129C351.956 131.037 350.298 132.694 348.261 132.694ZM348.261 126.465C346.864 126.465 345.727 127.602 345.727 128.999C345.727 130.397 346.864 131.534 348.261 131.534C349.659 131.534 350.796 130.397 350.796 128.999C350.797 127.602 349.659 126.465 348.261 126.465Z" fill="#11996C"/>
<path d="M357.157 140.235C356.837 140.235 356.578 139.976 356.578 139.656V137.101C356.578 136.781 356.837 136.522 357.157 136.522C357.477 136.522 357.736 136.781 357.736 137.101V139.656C357.736 139.976 357.477 140.235 357.157 140.235Z" fill="#10B981"/>
<path d="M357.157 144.707C356.837 144.707 356.578 144.448 356.578 144.128V141.573C356.578 141.253 356.837 140.994 357.157 140.994C357.477 140.994 357.736 141.253 357.736 141.573V144.128C357.736 144.447 357.477 144.707 357.157 144.707Z" fill="#10B981"/>
<path d="M360.744 141.194H358.449C358.129 141.194 357.869 140.934 357.869 140.614C357.869 140.294 358.128 140.035 358.449 140.035H360.744C361.064 140.035 361.323 140.294 361.323 140.614C361.323 140.934 361.064 141.194 360.744 141.194Z" fill="#10B981"/>
<path d="M355.866 141.194H353.571C353.251 141.194 352.992 140.934 352.992 140.614C352.992 140.294 353.251 140.035 353.571 140.035H355.866C356.186 140.035 356.445 140.294 356.445 140.614C356.445 140.934 356.186 141.194 355.866 141.194Z" fill="#10B981"/>
<path d="M337.428 136.069C337.108 136.069 336.849 135.81 336.849 135.49V132.935C336.849 132.615 337.109 132.356 337.428 132.356C337.748 132.356 338.008 132.615 338.008 132.935V135.49C338.008 135.809 337.749 136.069 337.428 136.069Z" fill="#11996C"/>
<path d="M337.428 140.54C337.108 140.54 336.849 140.281 336.849 139.96V137.405C336.849 137.085 337.109 136.826 337.428 136.826C337.748 136.826 338.008 137.085 338.008 137.405V139.96C338.008 140.281 337.749 140.54 337.428 140.54Z" fill="#11996C"/>
<path d="M341.015 137.026H338.72C338.4 137.026 338.141 136.767 338.141 136.447C338.141 136.127 338.4 135.868 338.72 135.868H341.015C341.335 135.868 341.595 136.127 341.595 136.447C341.595 136.767 341.335 137.026 341.015 137.026Z" fill="#11996C"/>
<path d="M336.138 137.026H333.843C333.523 137.026 333.264 136.767 333.264 136.447C333.264 136.127 333.523 135.868 333.843 135.868H336.138C336.458 135.868 336.717 136.127 336.717 136.447C336.717 136.767 336.457 137.026 336.138 137.026Z" fill="#11996C"/>
<path d="M28.656 198.755C28.656 200.792 26.9992 202.449 24.9624 202.449C22.9256 202.449 21.2688 200.792 21.2688 198.755C21.2688 196.718 22.9256 195.062 24.9624 195.062C26.9992 195.062 28.656 196.719 28.656 198.755ZM22.427 198.755C22.427 200.153 23.564 201.29 24.9616 201.29C26.3593 201.29 27.4962 200.153 27.4962 198.755C27.4962 197.358 26.3593 196.221 24.9616 196.221C23.564 196.221 22.427 197.358 22.427 198.755Z" fill="#10B981"/>
<path d="M32.4133 179.982C32.4133 182.019 30.7565 183.676 28.7197 183.676C26.6829 183.676 25.0261 182.019 25.0261 179.982C25.0261 177.946 26.6829 176.289 28.7197 176.289C30.7565 176.289 32.4133 177.946 32.4133 179.982ZM26.1851 179.982C26.1851 181.38 27.3221 182.517 28.7197 182.517C30.1174 182.517 31.2543 181.38 31.2543 179.982C31.2543 178.585 30.1174 177.448 28.7197 177.448C27.3221 177.448 26.1851 178.585 26.1851 179.982Z" fill="#11996C"/>
<path d="M39.9558 171.087C39.9558 171.407 39.6966 171.667 39.3767 171.667H36.8216C36.5016 171.667 36.2424 171.407 36.2424 171.087C36.2424 170.767 36.5016 170.508 36.8216 170.508H39.3767C39.6959 170.508 39.9558 170.767 39.9558 171.087Z" fill="#10B981"/>
<path d="M44.427 171.087C44.427 171.407 44.1678 171.667 43.8479 171.667H41.2927C40.9728 171.667 40.7136 171.407 40.7136 171.087C40.7136 170.767 40.9728 170.508 41.2927 170.508H43.8479C44.1678 170.508 44.427 170.767 44.427 171.087Z" fill="#10B981"/>
<path d="M40.9134 167.501V169.796C40.9134 170.116 40.6542 170.375 40.3342 170.375C40.0143 170.375 39.7551 170.116 39.7551 169.796V167.501C39.7551 167.181 40.0143 166.922 40.3342 166.922C40.6542 166.921 40.9134 167.181 40.9134 167.501Z" fill="#10B981"/>
<path d="M40.9134 172.379V174.674C40.9134 174.994 40.6542 175.253 40.3342 175.253C40.0143 175.253 39.7551 174.994 39.7551 174.674V172.379C39.7551 172.059 40.0143 171.8 40.3342 171.8C40.6542 171.799 40.9134 172.059 40.9134 172.379Z" fill="#10B981"/>
<path d="M35.7886 190.815C35.7886 191.135 35.5294 191.395 35.2094 191.395H32.6543C32.3344 191.395 32.0752 191.135 32.0752 190.815C32.0752 190.496 32.3344 190.236 32.6543 190.236H35.2094C35.5294 190.236 35.7886 190.496 35.7886 190.815Z" fill="#11996C"/>
<path d="M40.2603 190.815C40.2603 191.135 40.0011 191.395 39.6804 191.395H37.1253C36.8053 191.395 36.5454 191.135 36.5454 190.815C36.5454 190.496 36.8046 190.236 37.1253 190.236H39.6804C40.0004 190.236 40.2603 190.496 40.2603 190.815Z" fill="#11996C"/>
<path d="M36.7469 187.229V189.524C36.7469 189.844 36.4877 190.103 36.1677 190.103C35.8478 190.103 35.5886 189.844 35.5886 189.524V187.229C35.5886 186.909 35.8478 186.65 36.1677 186.65C36.4877 186.65 36.7469 186.909 36.7469 187.229Z" fill="#11996C"/>
<path d="M36.7469 192.107V194.402C36.7469 194.722 36.4877 194.981 36.1677 194.981C35.8478 194.981 35.5886 194.722 35.5886 194.402V192.107C35.5886 191.787 35.8478 191.528 36.1677 191.528C36.4877 191.528 36.7469 191.787 36.7469 192.107Z" fill="#11996C"/>
<path d="M51.5951 94.8685C51.44 94.0834 51.1307 93.325 50.6709 92.6478C50.3662 92.1956 49.9953 91.7799 49.5606 91.4158C46.9956 89.2673 43.1728 89.6086 41.0303 92.1774C39.3788 94.1594 39.2094 96.8856 40.3988 99.0098L33.5838 107.184C33.0062 107.877 33.099 108.909 33.7928 109.487L34.5756 110.14C34.9929 110.489 35.4542 110.779 35.9459 111.006C36.4361 111.233 36.956 111.396 37.4933 111.49C37.8573 111.554 38.1864 111.408 38.3931 111.158C38.5991 110.911 38.6857 110.561 38.558 110.212L37.9827 108.65L39.6228 108.935C39.9868 109 40.3159 108.853 40.5226 108.605C40.7286 108.357 40.8137 108.007 40.6876 107.659L40.1122 106.097L41.7523 106.381C42.1164 106.445 42.4447 106.298 42.6529 106.05C42.8589 105.802 42.9455 105.452 42.8178 105.103L42.2418 103.543L43.7154 101.775C44.6821 102.106 45.7081 102.182 46.6969 102.013C48.1226 101.77 49.4701 101.015 50.4391 99.7789C50.5372 99.6542 50.6291 99.5273 50.7142 99.3958C50.8222 99.237 50.9187 99.0736 51.0068 98.9064C51.6772 97.6524 51.8641 96.219 51.5951 94.8685ZM45.1336 93.4488C45.8761 92.5566 47.2015 92.4358 48.0922 93.179C48.2184 93.2839 48.3294 93.3994 48.4228 93.5256C49.0004 94.2864 48.9982 95.3724 48.3605 96.1377C48.2929 96.2175 48.2214 96.2928 48.1439 96.3604C47.9554 96.5291 47.7419 96.6591 47.5139 96.7472C47.4812 96.7602 47.447 96.7731 47.412 96.7837C47.257 96.8362 47.0974 96.8688 46.9363 96.8833C46.8876 96.8886 46.8382 96.8909 46.7904 96.8916C46.7417 96.8932 46.6923 96.8932 46.6429 96.8894C46.6004 96.8886 46.557 96.8848 46.513 96.8787C46.4681 96.8742 46.4233 96.8681 46.3784 96.8597C46.3754 96.8597 46.3708 96.8582 46.3663 96.8582C46.3275 96.8514 46.2895 96.843 46.253 96.8324C46.2204 96.8263 46.1892 96.8179 46.158 96.808C46.1292 96.8004 46.0995 96.7913 46.0722 96.7807C46.0296 96.7678 45.987 96.7526 45.9452 96.7328C45.8875 96.71 45.8305 96.6842 45.7758 96.6545C45.6443 96.5876 45.5189 96.5033 45.4011 96.4052C44.5924 95.7304 44.4199 94.5729 44.9527 93.7004C45.0059 93.613 45.0659 93.5286 45.1336 93.4488Z" fill="#00FFAB"/>
<path d="M41.5341 102.205C41.6504 102.302 41.6663 102.477 41.569 102.593L36.2148 109.015C36.1176 109.131 35.9428 109.147 35.8265 109.05C35.7102 108.953 35.6942 108.778 35.7915 108.662L41.1457 102.24C41.243 102.123 41.4178 102.108 41.5341 102.205Z" fill="#10B981"/>
<path d="M40.3341 101.205C40.4504 101.302 40.4664 101.477 40.3691 101.593L35.0149 108.015C34.9176 108.131 34.7428 108.147 34.6265 108.05C34.5103 107.953 34.4943 107.778 34.5916 107.662L39.9465 101.24C40.0431 101.123 40.2179 101.107 40.3341 101.205Z" fill="#10B981"/>
<path d="M48.144 96.3604C48.0908 96.4478 48.0308 96.5329 47.9647 96.6135C47.4197 97.2671 46.5617 97.5057 45.7926 97.2929C45.5121 97.2162 45.2439 97.0801 45.006 96.881C44.1145 96.137 43.9952 94.8138 44.7377 93.9216C44.8053 93.8418 44.8768 93.768 44.9535 93.7004C44.4208 94.5729 44.5925 95.7304 45.4019 96.4052C45.5197 96.5033 45.6459 96.5876 45.7766 96.6545C45.8313 96.6842 45.8891 96.71 45.9461 96.7328C45.9879 96.7518 46.0305 96.767 46.073 96.7807C46.1004 96.7906 46.13 96.8004 46.1589 96.808C46.1901 96.8179 46.2212 96.8263 46.2539 96.8324C46.2911 96.843 46.3291 96.8514 46.3671 96.8582C46.3717 96.8582 46.3763 96.8605 46.3793 96.8597C46.4241 96.8673 46.469 96.8742 46.5138 96.8787C46.5579 96.8848 46.6005 96.8886 46.6438 96.8894C46.6917 96.8924 46.7418 96.8924 46.7912 96.8916C46.8391 96.8916 46.8885 96.8886 46.9371 96.8833C47.0983 96.8688 47.2579 96.8362 47.4129 96.7837C47.4479 96.7731 47.4821 96.7602 47.5147 96.7472C47.7412 96.6591 47.9548 96.5299 48.144 96.3604Z" fill="#10B981"/>
<path d="M49.7096 97.1614C49.6989 97.0596 49.6966 96.9562 49.7012 96.8506C49.7567 95.7972 50.5775 94.965 51.5959 94.8685C51.4408 94.0834 51.1315 93.325 50.6717 92.6478C49.857 92.7869 49.0947 93.0901 48.4236 93.5256C49.0012 94.2864 48.999 95.3724 48.3613 96.1377C48.2937 96.2175 48.2222 96.2928 48.1447 96.3604C47.9562 96.5291 47.7427 96.6591 47.5147 96.7472C47.482 96.7602 47.4478 96.7731 47.4128 96.7837C47.2578 96.8362 47.0982 96.8688 46.9371 96.8833C46.8884 96.8886 46.839 96.8909 46.7912 96.8916C46.741 96.8924 46.6916 96.8924 46.6437 96.8894C46.6012 96.8886 46.5578 96.8848 46.5138 96.8787C46.4689 96.8742 46.4241 96.8681 46.3792 96.8597C46.3762 96.8597 46.3716 96.8582 46.3671 96.8582C46.3283 96.8514 46.2903 96.843 46.2538 96.8324C46.2212 96.8263 46.19 96.8179 46.1588 96.808C46.13 96.8004 46.1003 96.7913 46.073 96.7807C46.0304 96.7678 45.9878 96.7526 45.946 96.7328C45.886 96.9152 45.8351 97.1029 45.7925 97.2922C45.7218 97.6167 45.6755 97.9503 45.6572 98.2923C45.5858 99.6656 45.9787 100.956 46.6977 102.012C48.1234 101.769 49.4709 101.014 50.4399 99.7774C50.5379 99.6527 50.6299 99.5258 50.715 99.3943C50.823 99.2355 50.9195 99.0721 51.0076 98.9049C50.294 98.6153 49.7825 97.9473 49.7096 97.1614Z" fill="#10B981"/>
<path d="M59.0363 99.0675C59.107 95.8292 56.5542 93.078 53.3188 92.9009C49.9771 92.7185 47.1233 95.2842 46.9493 98.6244C46.8148 101.199 48.3135 103.485 50.5388 104.47L49.984 115.099C49.9368 116 50.63 116.771 51.5313 116.818L52.5497 116.871C53.0931 116.899 53.6365 116.856 54.1655 116.743C54.6944 116.63 55.209 116.449 55.6938 116.202C56.0244 116.034 56.1993 115.72 56.216 115.397C56.2327 115.075 56.0913 114.743 55.7805 114.54L54.3844 113.635L55.8671 112.881C56.1977 112.714 56.3725 112.399 56.3893 112.077C56.406 111.755 56.2646 111.424 55.9538 111.221L54.5577 110.316L56.0404 109.559C56.371 109.391 56.5458 109.078 56.5625 108.754C56.5793 108.432 56.4379 108.101 56.127 107.898L54.7309 106.994L54.851 104.695C57.223 103.929 58.9771 101.728 59.0363 99.0675ZM55.1489 97.7079C54.9475 98.7103 54.0348 99.443 52.9814 99.3875C51.9288 99.3328 51.0966 98.5097 51.0009 97.4913C50.991 97.3887 50.9879 97.2853 50.9933 97.1804C51.0541 96.0214 52.0413 95.1307 53.2003 95.1908C54.3593 95.2516 55.2492 96.2403 55.1884 97.3993C55.1831 97.5042 55.1695 97.6068 55.1489 97.7079Z" fill="#00FFAB"/>
<path d="M53.3622 106.348C53.5134 106.355 53.6312 106.486 53.6229 106.637L53.1874 114.987C53.1798 115.138 53.0491 115.256 52.8978 115.248C52.7466 115.24 52.6288 115.11 52.6371 114.958L53.0726 106.608C53.081 106.457 53.2109 106.34 53.3622 106.348Z" fill="#10B981"/>
<path d="M51.8026 106.266C51.9538 106.274 52.0716 106.405 52.0633 106.556L51.6278 114.906C51.6202 115.057 51.4895 115.175 51.3382 115.167C51.187 115.159 51.0692 115.028 51.0776 114.877L51.513 106.527C51.5206 106.376 51.6514 106.259 51.8026 106.266Z" fill="#10B981"/>
<path d="M55.1557 98.018C55.0956 99.177 54.1061 100.066 52.9486 100.006C51.7896 99.9453 50.8997 98.9581 50.9605 97.7991C50.9658 97.6942 50.9795 97.5916 51 97.492C51.0957 98.5097 51.9279 99.3335 52.9805 99.3882C54.0339 99.443 54.9467 98.7111 55.1481 97.7086C55.1587 97.8097 55.1617 97.9131 55.1557 98.018Z" fill="#10B981"/>
<path d="M54.5705 84.9809C51.0487 83.4814 46.9637 85.1253 45.4642 88.6472C45.2704 89.1032 45.1283 89.569 45.0378 90.038C45.9111 89.9445 46.8048 90.041 47.65 90.3336C47.7039 90.1117 47.7776 89.8898 47.8704 89.6716C48.8052 87.4768 51.3519 86.4523 53.5468 87.3871C55.7424 88.3219 56.7677 90.8679 55.8336 93.0628C55.769 93.2132 55.6968 93.3592 55.6178 93.499C56.4204 93.8904 57.1241 94.4543 57.6804 95.1398C57.8932 94.8115 58.081 94.4589 58.2398 94.0872C59.7385 90.5654 58.0924 86.4804 54.5705 84.9809ZM53.695 95.2789C53.0862 95.567 52.4114 95.7121 51.7258 95.6939C51.7175 95.6931 51.7099 95.6931 51.7008 95.6924C51.1832 95.6756 50.6603 95.5639 50.1549 95.3488C49.6678 95.1414 49.2368 94.8533 48.8736 94.5083C48.8546 94.49 48.8363 94.4726 48.8188 94.4551C48.3963 94.0386 48.0672 93.5423 47.8468 93.0035C47.0032 92.4829 45.8913 92.6242 45.205 93.3652C45.5896 94.6405 46.3352 95.7988 47.3771 96.6781C47.4106 96.7054 47.4432 96.7336 47.4782 96.7602C47.539 96.8103 47.6006 96.859 47.6644 96.9068C48.1082 97.242 48.5977 97.5285 49.1312 97.7558C49.7377 98.0142 50.3616 98.1791 50.9864 98.2574C51.07 98.2672 51.1543 98.2764 51.2387 98.284C51.2562 98.2855 51.2744 98.2878 51.2926 98.2878C52.6546 98.398 54.0081 98.0978 55.1838 97.4556C55.1869 97.4373 55.1869 97.4198 55.1884 97.4024C55.2393 96.4136 54.6017 95.5495 53.695 95.2789Z" fill="#3B3E7D"/>
<path d="M25.8006 121.355H24.2069C23.7927 121.355 23.4568 121.019 23.4568 120.605V119.011C23.4568 118.597 23.7927 118.261 24.2069 118.261C24.6211 118.261 24.957 118.597 24.957 119.011V119.855H25.8006C26.2148 119.855 26.5507 120.191 26.5507 120.605C26.5507 121.019 26.2148 121.355 25.8006 121.355Z" fill="#B4CAE3"/>
<path d="M68.9079 121.355H65.7357C65.3215 121.355 64.9855 121.019 64.9855 120.605C64.9855 120.191 65.3215 119.855 65.7357 119.855H68.9079C69.3221 119.855 69.658 120.191 69.658 120.605C69.658 121.019 69.3221 121.355 68.9079 121.355ZM62.7496 121.355H59.5774C59.1632 121.355 58.8273 121.019 58.8273 120.605C58.8273 120.191 59.1632 119.855 59.5774 119.855H62.7496C63.1638 119.855 63.4997 120.191 63.4997 120.605C63.4997 121.019 63.1638 121.355 62.7496 121.355ZM56.5913 121.355H53.4191C53.0049 121.355 52.669 121.019 52.669 120.605C52.669 120.191 53.0049 119.855 53.4191 119.855H56.5913C57.0055 119.855 57.3415 120.191 57.3415 120.605C57.3415 121.019 57.0055 121.355 56.5913 121.355ZM50.4331 121.355H47.2608C46.8466 121.355 46.5107 121.019 46.5107 120.605C46.5107 120.191 46.8466 119.855 47.2608 119.855H50.4331C50.8473 119.855 51.1832 120.191 51.1832 120.605C51.1832 121.019 50.8473 121.355 50.4331 121.355ZM44.2748 121.355H41.1025C40.6883 121.355 40.3524 121.019 40.3524 120.605C40.3524 120.191 40.6883 119.855 41.1025 119.855H44.2748C44.689 119.855 45.0249 120.191 45.0249 120.605C45.0249 121.019 44.689 121.355 44.2748 121.355ZM38.1173 121.355H34.945C34.5308 121.355 34.1949 121.019 34.1949 120.605C34.1949 120.191 34.5308 119.855 34.945 119.855H38.1173C38.5315 119.855 38.8674 120.191 38.8674 120.605C38.8666 121.019 38.5307 121.355 38.1173 121.355ZM31.959 121.355H28.7867C28.3725 121.355 28.0366 121.019 28.0366 120.605C28.0366 120.191 28.3725 119.855 28.7867 119.855H31.959C32.3732 119.855 32.7091 120.191 32.7091 120.605C32.7083 121.019 32.3732 121.355 31.959 121.355Z" fill="#B4CAE3"/>
<path d="M73.4869 121.355H71.8932C71.479 121.355 71.1431 121.019 71.1431 120.605C71.1431 120.191 71.479 119.855 71.8932 119.855H72.7368V119.011C72.7368 118.597 73.0727 118.261 73.4869 118.261C73.9011 118.261 74.237 118.597 74.237 119.011V120.605C74.237 121.019 73.9011 121.355 73.4869 121.355Z" fill="#B4CAE3"/>
<path d="M73.4869 116.89C73.0727 116.89 72.7368 116.554 72.7368 116.14V113.09C72.7368 112.675 73.0727 112.339 73.4869 112.339C73.9011 112.339 74.2371 112.675 74.2371 113.09V116.14C74.2371 116.555 73.9011 116.89 73.4869 116.89ZM73.4869 110.969C73.0727 110.969 72.7368 110.633 72.7368 110.219V107.168C72.7368 106.754 73.0727 106.418 73.4869 106.418C73.9011 106.418 74.2371 106.754 74.2371 107.168V110.219C74.2371 110.633 73.9011 110.969 73.4869 110.969ZM73.4869 105.047C73.0727 105.047 72.7368 104.711 72.7368 104.297V101.246C72.7368 100.832 73.0727 100.496 73.4869 100.496C73.9011 100.496 74.2371 100.832 74.2371 101.246V104.297C74.2371 104.712 73.9011 105.047 73.4869 105.047ZM73.4869 99.126C73.0727 99.126 72.7368 98.7901 72.7368 98.3759V95.3253C72.7368 94.9111 73.0727 94.5752 73.4869 94.5752C73.9011 94.5752 74.2371 94.9111 74.2371 95.3253V98.3759C74.2371 98.7901 73.9011 99.126 73.4869 99.126ZM73.4869 93.2041C73.0727 93.2041 72.7368 92.8682 72.7368 92.454V89.4034C72.7368 88.9892 73.0727 88.6532 73.4869 88.6532C73.9011 88.6532 74.2371 88.9892 74.2371 89.4034V92.454C74.2371 92.8682 73.9011 93.2041 73.4869 93.2041ZM73.4869 87.283C73.0727 87.283 72.7368 86.947 72.7368 86.5328V83.4822C72.7368 83.068 73.0727 82.7321 73.4869 82.7321C73.9011 82.7321 74.2371 83.068 74.2371 83.4822V86.5328C74.2371 86.947 73.9011 87.283 73.4869 87.283Z" fill="#B4CAE3"/>
<path d="M73.4869 81.361C73.0727 81.361 72.7368 81.0251 72.7368 80.6109V79.7673H71.8932C71.479 79.7673 71.1431 79.4314 71.1431 79.0172C71.1431 78.603 71.479 78.2671 71.8932 78.2671H73.4869C73.9011 78.2671 74.237 78.603 74.237 79.0172V80.6109C74.237 81.0251 73.9011 81.361 73.4869 81.361Z" fill="#B4CAE3"/>
<path d="M68.9079 79.7673H65.7357C65.3215 79.7673 64.9855 79.4314 64.9855 79.0172C64.9855 78.603 65.3215 78.2671 65.7357 78.2671H68.9079C69.3221 78.2671 69.658 78.603 69.658 79.0172C69.658 79.4322 69.3221 79.7673 68.9079 79.7673ZM62.7496 79.7673H59.5774C59.1632 79.7673 58.8273 79.4314 58.8273 79.0172C58.8273 78.603 59.1632 78.2671 59.5774 78.2671H62.7496C63.1638 78.2671 63.4997 78.603 63.4997 79.0172C63.4997 79.4322 63.1638 79.7673 62.7496 79.7673ZM56.5913 79.7673H53.4191C53.0049 79.7673 52.669 79.4314 52.669 79.0172C52.669 78.603 53.0049 78.2671 53.4191 78.2671H56.5913C57.0055 78.2671 57.3415 78.603 57.3415 79.0172C57.3415 79.4322 57.0055 79.7673 56.5913 79.7673ZM50.4331 79.7673H47.2608C46.8466 79.7673 46.5107 79.4314 46.5107 79.0172C46.5107 78.603 46.8466 78.2671 47.2608 78.2671H50.4331C50.8473 78.2671 51.1832 78.603 51.1832 79.0172C51.1832 79.4322 50.8473 79.7673 50.4331 79.7673ZM44.2748 79.7673H41.1025C40.6883 79.7673 40.3524 79.4314 40.3524 79.0172C40.3524 78.603 40.6883 78.2671 41.1025 78.2671H44.2748C44.689 78.2671 45.0249 78.603 45.0249 79.0172C45.0249 79.4322 44.689 79.7673 44.2748 79.7673ZM38.1173 79.7673H34.945C34.5308 79.7673 34.1949 79.4314 34.1949 79.0172C34.1949 78.603 34.5308 78.2671 34.945 78.2671H38.1173C38.5315 78.2671 38.8674 78.603 38.8674 79.0172C38.8666 79.4322 38.5307 79.7673 38.1173 79.7673ZM31.959 79.7673H28.7867C28.3725 79.7673 28.0366 79.4314 28.0366 79.0172C28.0366 78.603 28.3725 78.2671 28.7867 78.2671H31.959C32.3732 78.2671 32.7091 78.603 32.7091 79.0172C32.7083 79.4322 32.3732 79.7673 31.959 79.7673Z" fill="#B4CAE3"/>
<path d="M24.2069 81.361C23.7927 81.361 23.4568 81.0251 23.4568 80.6109V79.0172C23.4568 78.603 23.7927 78.2671 24.2069 78.2671H25.8006C26.2148 78.2671 26.5507 78.603 26.5507 79.0172C26.5507 79.4314 26.2148 79.7673 25.8006 79.7673H24.957V80.6109C24.957 81.0251 24.6211 81.361 24.2069 81.361Z" fill="#B4CAE3"/>
<path d="M24.2069 116.89C23.7927 116.89 23.4568 116.554 23.4568 116.14V113.09C23.4568 112.675 23.7927 112.339 24.2069 112.339C24.6211 112.339 24.957 112.675 24.957 113.09V116.14C24.957 116.555 24.6211 116.89 24.2069 116.89ZM24.2069 110.969C23.7927 110.969 23.4568 110.633 23.4568 110.219V107.168C23.4568 106.754 23.7927 106.418 24.2069 106.418C24.6211 106.418 24.957 106.754 24.957 107.168V110.219C24.957 110.633 24.6211 110.969 24.2069 110.969ZM24.2069 105.047C23.7927 105.047 23.4568 104.711 23.4568 104.297V101.246C23.4568 100.832 23.7927 100.496 24.2069 100.496C24.6211 100.496 24.957 100.832 24.957 101.246V104.297C24.957 104.712 24.6211 105.047 24.2069 105.047ZM24.2069 99.126C23.7927 99.126 23.4568 98.7901 23.4568 98.3759V95.3253C23.4568 94.9111 23.7927 94.5752 24.2069 94.5752C24.6211 94.5752 24.957 94.9111 24.957 95.3253V98.3759C24.957 98.7901 24.6211 99.126 24.2069 99.126ZM24.2069 93.2041C23.7927 93.2041 23.4568 92.8682 23.4568 92.454V89.4034C23.4568 88.9892 23.7927 88.6532 24.2069 88.6532C24.6211 88.6532 24.957 88.9892 24.957 89.4034V92.454C24.957 92.8682 24.6211 93.2041 24.2069 93.2041ZM24.2069 87.283C23.7927 87.283 23.4568 86.947 23.4568 86.5328V83.4822C23.4568 83.068 23.7927 82.7321 24.2069 82.7321C24.6211 82.7321 24.957 83.068 24.957 83.4822V86.5328C24.957 86.947 24.6211 87.283 24.2069 87.283Z" fill="#B4CAE3"/>
<path d="M94.7347 131.63C94.3205 131.63 93.9846 131.294 93.9846 130.88V127.693C93.9846 127.279 94.3205 126.943 94.7347 126.943C95.1489 126.943 95.4848 127.279 95.4848 127.693V130.88C95.4848 131.294 95.1489 131.63 94.7347 131.63ZM94.7347 125.443C94.3205 125.443 93.9846 125.107 93.9846 124.693V121.507C93.9846 121.092 94.3205 120.756 94.7347 120.756C95.1489 120.756 95.4848 121.092 95.4848 121.507V124.693C95.4848 125.108 95.1489 125.443 94.7347 125.443ZM94.7347 119.258C94.3205 119.258 93.9846 118.922 93.9846 118.508V115.321C93.9846 114.907 94.3205 114.571 94.7347 114.571C95.1489 114.571 95.4848 114.907 95.4848 115.321V118.508C95.4848 118.922 95.1489 119.258 94.7347 119.258ZM94.7347 113.071C94.3205 113.071 93.9846 112.735 93.9846 112.321V109.134C93.9846 108.72 94.3205 108.384 94.7347 108.384C95.1489 108.384 95.4848 108.72 95.4848 109.134V112.321C95.4848 112.735 95.1489 113.071 94.7347 113.071ZM94.7347 106.885C94.3205 106.885 93.9846 106.549 93.9846 106.135V102.948C93.9846 102.534 94.3205 102.198 94.7347 102.198C95.1489 102.198 95.4848 102.534 95.4848 102.948V106.135C95.4848 106.549 95.1489 106.885 94.7347 106.885ZM92.1621 103.272H88.9754C88.5612 103.272 88.2253 102.936 88.2253 102.522C88.2253 102.108 88.5612 101.772 88.9754 101.772H92.1621C92.5763 101.772 92.9122 102.108 92.9122 102.522C92.9122 102.936 92.5763 103.272 92.1621 103.272ZM85.9757 103.272H82.789C82.3748 103.272 82.0389 102.936 82.0389 102.522C82.0389 102.108 82.3748 101.772 82.789 101.772H85.9757C86.3899 101.772 86.7258 102.108 86.7258 102.522C86.7258 102.936 86.3899 103.272 85.9757 103.272ZM79.7893 103.272H76.6026C76.1884 103.272 75.8525 102.936 75.8525 102.522C75.8525 102.108 76.1884 101.772 76.6026 101.772H79.7893C80.2035 101.772 80.5394 102.108 80.5394 102.522C80.5394 102.936 80.2035 103.272 79.7893 103.272ZM73.6037 103.272H73.5353C73.1211 103.272 72.7852 102.936 72.7852 102.522C72.7852 102.108 73.1211 101.772 73.5353 101.772H73.6037C74.0179 101.772 74.3538 102.108 74.3538 102.522C74.353 102.936 74.0179 103.272 73.6037 103.272Z" fill="#B4CAE3"/>
<path d="M260.13 98.9398L260.003 103.387L264.17 103.507C264.35 104.567 264.708 105.6 265.23 106.57L262.277 109.358L265.332 112.593L268.158 109.925C269.266 110.729 270.503 111.284 271.791 111.579L271.671 115.746L276.118 115.874L276.242 111.579C277.117 111.382 277.968 111.067 278.777 110.632L281.565 113.585L284.8 110.531L282.132 107.705C282.936 106.598 283.49 105.36 283.785 104.072L287.429 104.178L287.557 99.7295L283.786 99.6216C283.535 98.5044 283.096 97.4229 282.457 96.4273L285.284 93.7589L282.23 90.5236L279.276 93.3113C278.183 92.6387 276.989 92.1964 275.757 91.982L275.878 87.7891L271.431 87.6614L271.3 92.207C270.371 92.4692 269.473 92.8682 268.635 93.407L265.966 90.5798L262.731 93.6343L265.519 96.5869C265.038 97.3689 264.674 98.2011 264.427 99.0645L260.13 98.9398ZM271.235 98.8623C272.87 97.3188 275.456 97.3925 277 99.028C278.544 100.664 278.47 103.25 276.834 104.793C275.199 106.337 272.613 106.263 271.069 104.628C269.525 102.992 269.599 100.407 271.235 98.8623Z" fill="#10B981"/>
<path d="M274.725 108.256C278.323 107.869 280.926 104.639 280.539 101.04C280.153 97.4419 276.923 94.8389 273.324 95.2257C269.726 95.6126 267.122 98.8426 267.509 102.441C267.897 106.039 271.127 108.643 274.725 108.256ZM271.235 98.8623C272.87 97.3188 275.456 97.3925 277 99.028C278.544 100.664 278.47 103.25 276.834 104.793C275.199 106.337 272.613 106.263 271.069 104.628C269.525 102.992 269.599 100.407 271.235 98.8623Z" fill="#11996C"/>
<path d="M289.396 100.836L289.323 103.419L291.743 103.488C291.847 104.103 292.054 104.703 292.357 105.267L290.643 106.886L292.417 108.764L294.058 107.215C294.701 107.681 295.419 108.004 296.167 108.175L296.097 110.596L298.681 110.67L298.752 108.175C299.261 108.061 299.755 107.878 300.224 107.625L301.843 109.34L303.722 107.567L302.172 105.926C302.639 105.283 302.961 104.564 303.132 103.816L305.248 103.877L305.322 101.294L303.132 101.231C302.986 100.583 302.731 99.9544 302.36 99.3761L304.001 97.8264L302.228 95.9477L300.512 97.5665C299.878 97.1759 299.185 96.919 298.469 96.7944L298.539 94.3593L295.957 94.2856L295.881 96.9251C295.341 97.0771 294.82 97.3089 294.333 97.622L292.784 95.9804L290.905 97.7542L292.524 99.4688C292.245 99.9225 292.034 100.406 291.89 100.907L289.396 100.836ZM295.845 100.791C296.795 99.8944 298.296 99.9377 299.193 100.888C300.09 101.838 300.046 103.339 299.096 104.236C298.146 105.132 296.645 105.089 295.749 104.139C294.853 103.19 294.895 101.688 295.845 100.791Z" fill="#10B981"/>
<path d="M297.872 106.246C299.961 106.021 301.473 104.145 301.249 102.056C301.025 99.9666 299.148 98.455 297.059 98.6792C294.97 98.9041 293.458 100.78 293.682 102.869C293.906 104.959 295.783 106.471 297.872 106.246ZM295.845 100.791C296.795 99.8944 298.296 99.9377 299.193 100.888C300.09 101.838 300.046 103.339 299.096 104.236C298.146 105.132 296.645 105.089 295.749 104.139C294.853 103.19 294.895 101.688 295.845 100.791Z" fill="#11996C"/>
<path d="M317.007 121.355H315.413C314.999 121.355 314.663 121.019 314.663 120.605C314.663 120.191 314.999 119.855 315.413 119.855H316.257V119.011C316.257 118.597 316.593 118.261 317.007 118.261C317.421 118.261 317.757 118.597 317.757 119.011V120.605C317.757 121.019 317.421 121.355 317.007 121.355Z" fill="#B4CAE3"/>
<path d="M312.385 121.355H309.166C308.752 121.355 308.416 121.019 308.416 120.605C308.416 120.191 308.752 119.855 309.166 119.855H312.385C312.799 119.855 313.135 120.191 313.135 120.605C313.135 121.019 312.799 121.355 312.385 121.355ZM306.138 121.355H302.919C302.505 121.355 302.169 121.019 302.169 120.605C302.169 120.191 302.505 119.855 302.919 119.855H306.138C306.552 119.855 306.888 120.191 306.888 120.605C306.888 121.019 306.552 121.355 306.138 121.355ZM299.89 121.355H296.672C296.258 121.355 295.922 121.019 295.922 120.605C295.922 120.191 296.258 119.855 296.672 119.855H299.89C300.305 119.855 300.64 120.191 300.64 120.605C300.64 121.019 300.305 121.355 299.89 121.355ZM293.643 121.355H290.425C290.01 121.355 289.674 121.019 289.674 120.605C289.674 120.191 290.01 119.855 290.425 119.855H293.643C294.057 119.855 294.393 120.191 294.393 120.605C294.392 121.019 294.057 121.355 293.643 121.355ZM287.396 121.355H284.177C283.763 121.355 283.427 121.019 283.427 120.605C283.427 120.191 283.763 119.855 284.177 119.855H287.396C287.81 119.855 288.146 120.191 288.146 120.605C288.145 121.019 287.809 121.355 287.396 121.355ZM281.148 121.355H277.929C277.515 121.355 277.179 121.019 277.179 120.605C277.179 120.191 277.515 119.855 277.929 119.855H281.148C281.562 119.855 281.898 120.191 281.898 120.605C281.898 121.019 281.562 121.355 281.148 121.355ZM274.901 121.355H271.682C271.268 121.355 270.932 121.019 270.932 120.605C270.932 120.191 271.268 119.855 271.682 119.855H274.901C275.315 119.855 275.651 120.191 275.651 120.605C275.651 121.019 275.315 121.355 274.901 121.355ZM268.654 121.355H265.435C265.021 121.355 264.685 121.019 264.685 120.605C264.685 120.191 265.021 119.855 265.435 119.855H268.654C269.068 119.855 269.404 120.191 269.404 120.605C269.404 121.019 269.068 121.355 268.654 121.355ZM262.406 121.355H259.188C258.774 121.355 258.438 121.019 258.438 120.605C258.438 120.191 258.774 119.855 259.188 119.855H262.406C262.821 119.855 263.156 120.191 263.156 120.605C263.156 121.019 262.821 121.355 262.406 121.355ZM256.159 121.355H252.941C252.526 121.355 252.19 121.019 252.19 120.605C252.19 120.191 252.526 119.855 252.941 119.855H256.159C256.573 119.855 256.909 120.191 256.909 120.605C256.909 121.019 256.573 121.355 256.159 121.355Z" fill="#B4CAE3"/>
<path d="M249.911 121.355H248.318C247.903 121.355 247.567 121.019 247.567 120.605V119.011C247.567 118.597 247.903 118.261 248.318 118.261C248.732 118.261 249.068 118.597 249.068 119.011V119.855H249.911C250.325 119.855 250.661 120.191 250.661 120.605C250.661 121.019 250.325 121.355 249.911 121.355Z" fill="#B4CAE3"/>
<path d="M248.318 116.69C247.904 116.69 247.568 116.354 247.568 115.94V112.677C247.568 112.263 247.904 111.927 248.318 111.927C248.733 111.927 249.069 112.263 249.069 112.677V115.94C249.068 116.354 248.733 116.69 248.318 116.69ZM248.318 110.357C247.904 110.357 247.568 110.021 247.568 109.606V106.343C247.568 105.929 247.904 105.593 248.318 105.593C248.733 105.593 249.069 105.929 249.069 106.343V109.606C249.068 110.021 248.733 110.357 248.318 110.357ZM248.318 104.022C247.904 104.022 247.568 103.686 247.568 103.272V100.008C247.568 99.5942 247.904 99.2583 248.318 99.2583C248.733 99.2583 249.069 99.5942 249.069 100.008V103.272C249.068 103.687 248.733 104.022 248.318 104.022ZM248.318 97.6881C247.904 97.6881 247.568 97.3522 247.568 96.938V93.6746C247.568 93.2604 247.904 92.9244 248.318 92.9244C248.733 92.9244 249.069 93.2604 249.069 93.6746V96.938C249.068 97.3522 248.733 97.6881 248.318 97.6881ZM248.318 91.3535C247.904 91.3535 247.568 91.0176 247.568 90.6034V87.3407C247.568 86.9265 247.904 86.5906 248.318 86.5906C248.733 86.5906 249.069 86.9265 249.069 87.3407V90.6034C249.068 91.0184 248.733 91.3535 248.318 91.3535Z" fill="#B4CAE3"/>
<path d="M248.318 85.0197C247.904 85.0197 247.568 84.6838 247.568 84.2696V82.6758C247.568 82.2616 247.904 81.9257 248.318 81.9257H249.912C250.326 81.9257 250.662 82.2616 250.662 82.6758C250.662 83.09 250.326 83.426 249.912 83.426H249.068V84.2696C249.067 84.6838 248.732 85.0197 248.318 85.0197Z" fill="#B4CAE3"/>
<path d="M312.385 83.426H309.167C308.753 83.426 308.417 83.09 308.417 82.6758C308.417 82.2616 308.753 81.9257 309.167 81.9257H312.385C312.8 81.9257 313.136 82.2616 313.136 82.6758C313.136 83.09 312.799 83.426 312.385 83.426ZM306.138 83.426H302.919C302.505 83.426 302.169 83.09 302.169 82.6758C302.169 82.2616 302.505 81.9257 302.919 81.9257H306.138C306.552 81.9257 306.888 82.2616 306.888 82.6758C306.888 83.09 306.552 83.426 306.138 83.426ZM299.89 83.426H296.672C296.258 83.426 295.922 83.09 295.922 82.6758C295.922 82.2616 296.258 81.9257 296.672 81.9257H299.89C300.305 81.9257 300.64 82.2616 300.64 82.6758C300.64 83.09 300.305 83.426 299.89 83.426ZM293.643 83.426H290.425C290.01 83.426 289.674 83.09 289.674 82.6758C289.674 82.2616 290.01 81.9257 290.425 81.9257H293.643C294.057 81.9257 294.393 82.2616 294.393 82.6758C294.393 83.09 294.057 83.426 293.643 83.426ZM287.396 83.426H284.177C283.763 83.426 283.427 83.09 283.427 82.6758C283.427 82.2616 283.763 81.9257 284.177 81.9257H287.396C287.81 81.9257 288.146 82.2616 288.146 82.6758C288.146 83.09 287.809 83.426 287.396 83.426ZM281.148 83.426H277.929C277.515 83.426 277.179 83.09 277.179 82.6758C277.179 82.2616 277.515 81.9257 277.929 81.9257H281.148C281.562 81.9257 281.898 82.2616 281.898 82.6758C281.898 83.09 281.562 83.426 281.148 83.426ZM274.901 83.426H271.682C271.268 83.426 270.932 83.09 270.932 82.6758C270.932 82.2616 271.268 81.9257 271.682 81.9257H274.901C275.315 81.9257 275.651 82.2616 275.651 82.6758C275.651 83.09 275.315 83.426 274.901 83.426ZM268.654 83.426H265.435C265.021 83.426 264.685 83.09 264.685 82.6758C264.685 82.2616 265.021 81.9257 265.435 81.9257H268.654C269.068 81.9257 269.404 82.2616 269.404 82.6758C269.404 83.09 269.068 83.426 268.654 83.426ZM262.406 83.426H259.188C258.774 83.426 258.438 83.09 258.438 82.6758C258.438 82.2616 258.774 81.9257 259.188 81.9257H262.406C262.821 81.9257 263.156 82.2616 263.156 82.6758C263.156 83.09 262.821 83.426 262.406 83.426ZM256.159 83.426H252.941C252.526 83.426 252.19 83.09 252.19 82.6758C252.19 82.2616 252.526 81.9257 252.941 81.9257H256.159C256.573 81.9257 256.909 82.2616 256.909 82.6758C256.909 83.09 256.573 83.426 256.159 83.426Z" fill="#B4CAE3"/>
<path d="M317.007 85.0197C316.593 85.0197 316.257 84.6838 316.257 84.2696V83.426H315.413C314.999 83.426 314.663 83.09 314.663 82.6758C314.663 82.2616 314.999 81.9257 315.413 81.9257H317.007C317.421 81.9257 317.757 82.2616 317.757 82.6758V84.2696C317.757 84.6838 317.421 85.0197 317.007 85.0197Z" fill="#B4CAE3"/>
<path d="M317.007 116.69C316.593 116.69 316.257 116.354 316.257 115.94V112.677C316.257 112.263 316.593 111.927 317.007 111.927C317.421 111.927 317.757 112.263 317.757 112.677V115.94C317.757 116.354 317.421 116.69 317.007 116.69ZM317.007 110.357C316.593 110.357 316.257 110.021 316.257 109.606V106.343C316.257 105.929 316.593 105.593 317.007 105.593C317.421 105.593 317.757 105.929 317.757 106.343V109.606C317.757 110.021 317.421 110.357 317.007 110.357ZM317.007 104.022C316.593 104.022 316.257 103.686 316.257 103.272V100.008C316.257 99.5942 316.593 99.2583 317.007 99.2583C317.421 99.2583 317.757 99.5942 317.757 100.008V103.272C317.757 103.687 317.421 104.022 317.007 104.022ZM317.007 97.6881C316.593 97.6881 316.257 97.3522 316.257 96.938V93.6746C316.257 93.2604 316.593 92.9244 317.007 92.9244C317.421 92.9244 317.757 93.2604 317.757 93.6746V96.938C317.757 97.3522 317.421 97.6881 317.007 97.6881ZM317.007 91.3535C316.593 91.3535 316.257 91.0176 316.257 90.6034V87.3407C316.257 86.9265 316.593 86.5906 317.007 86.5906C317.421 86.5906 317.757 86.9265 317.757 87.3407V90.6034C317.757 91.0184 317.421 91.3535 317.007 91.3535Z" fill="#B4CAE3"/>
<path d="M227.118 131.63C226.704 131.63 226.368 131.294 226.368 130.88V127.693C226.368 127.279 226.704 126.943 227.118 126.943C227.532 126.943 227.868 127.279 227.868 127.693V130.88C227.868 131.294 227.532 131.63 227.118 131.63ZM227.118 125.443C226.704 125.443 226.368 125.107 226.368 124.693V121.507C226.368 121.092 226.704 120.756 227.118 120.756C227.532 120.756 227.868 121.092 227.868 121.507V124.693C227.868 125.108 227.532 125.443 227.118 125.443ZM227.118 119.258C226.704 119.258 226.368 118.922 226.368 118.508V115.321C226.368 114.907 226.704 114.571 227.118 114.571C227.532 114.571 227.868 114.907 227.868 115.321V118.508C227.868 118.922 227.532 119.258 227.118 119.258ZM227.118 113.071C226.704 113.071 226.368 112.735 226.368 112.321V109.134C226.368 108.72 226.704 108.384 227.118 108.384C227.532 108.384 227.868 108.72 227.868 109.134V112.321C227.868 112.735 227.532 113.071 227.118 113.071ZM227.118 106.885C226.704 106.885 226.368 106.549 226.368 106.135V102.948C226.368 102.534 226.704 102.198 227.118 102.198C227.532 102.198 227.868 102.534 227.868 102.948V106.135C227.868 106.549 227.532 106.885 227.118 106.885ZM248.318 102.774H247.752C247.338 102.774 247.002 102.438 247.002 102.024C247.002 101.61 247.338 101.274 247.752 101.274H248.318C248.733 101.274 249.069 101.61 249.069 102.024C249.068 102.438 248.733 102.774 248.318 102.774ZM244.753 102.774H241.566C241.152 102.774 240.816 102.438 240.816 102.024C240.816 101.61 241.152 101.274 241.566 101.274H244.753C245.167 101.274 245.503 101.61 245.503 102.024C245.503 102.438 245.167 102.774 244.753 102.774ZM238.567 102.774H235.38C234.966 102.774 234.63 102.438 234.63 102.024C234.63 101.61 234.966 101.274 235.38 101.274H238.567C238.981 101.274 239.317 101.61 239.317 102.024C239.316 102.438 238.98 102.774 238.567 102.774ZM232.381 102.774H229.194C228.78 102.774 228.444 102.438 228.444 102.024C228.444 101.61 228.78 101.274 229.194 101.274H232.381C232.795 101.274 233.131 101.61 233.131 102.024C233.13 102.438 232.795 102.774 232.381 102.774Z" fill="#B4CAE3"/>
<path d="M38.4176 189.458L38.4104 189.469H38.4226L38.4176 189.458Z" fill="#11996C"/>
<path d="M38.4101 189.47L38.3618 189.537L38.3769 189.47H38.4101Z" fill="#11996C"/>
<path d="M318.131 135.44V278.359C318.131 284.252 313.356 289.027 307.463 289.027H63.8964C58.0033 289.027 53.2283 284.252 53.2283 278.359V135.44C53.2283 129.547 58.0033 124.772 63.8964 124.772H307.463C313.356 124.772 318.131 129.547 318.131 135.44Z" fill="#3B3E7D"/>
<path d="M318.131 209.789V278.359C318.131 284.252 313.356 289.027 307.463 289.027H63.8964C58.0033 289.027 53.2283 284.252 53.2283 278.359V209.789H318.131Z" fill="#18285D"/>
<path d="M306.365 142.706V271.094C306.365 274.871 303.304 277.935 299.526 277.935H71.8362C70.2402 277.935 68.7726 277.388 67.6075 276.471C67.2997 276.228 67.0109 275.958 66.7487 275.666C65.6566 274.457 64.9946 272.851 64.9946 271.094V142.706C64.9946 138.928 68.0597 135.864 71.8362 135.864H299.525C300.789 135.864 301.97 136.206 302.986 136.805C303.939 137.365 304.747 138.151 305.332 139.09C305.988 140.139 306.365 141.379 306.365 142.706Z" fill="white"/>
<path d="M342.876 283.317V284.23C342.876 288.776 341.419 292.981 338.943 296.4C335.168 301.622 329.024 305.019 322.087 305.019H49.2717C42.3345 305.019 36.1906 301.622 32.4157 296.4C29.9404 292.981 28.4819 288.776 28.4819 284.23V283.317H342.876Z" fill="#021147"/>
<path d="M150.443 283.317V283.526C150.443 285.172 151.545 286.506 152.905 286.506H217.087C218.447 286.506 219.549 285.172 219.549 283.526V283.317H150.443Z" fill="white"/>
<path d="M306.364 142.706V150.281H64.9956V142.706C64.9956 141.248 65.4493 139.899 66.2291 138.792C67.4626 137.022 69.5146 135.865 71.8371 135.865H299.526C301.848 135.865 303.899 137.023 305.131 138.792C305.91 139.899 306.364 141.248 306.364 142.706Z" fill="#D9E4F5"/>
<path d="M248.079 145.357H120.021C119.706 145.357 119.447 145.099 119.447 144.783V142.1C119.447 141.785 119.706 141.527 120.02 141.527H248.079C248.394 141.527 248.652 141.786 248.652 142.101V144.784C248.653 145.098 248.394 145.357 248.079 145.357Z" fill="white"/>
<path d="M88.5951 143.442V144.861C88.5951 145.269 88.1543 145.523 87.8017 145.32L86.572 144.61L85.3431 143.9C84.9905 143.696 84.9905 143.188 85.3431 142.984L86.572 142.274L87.8017 141.564C88.1543 141.361 88.5951 141.615 88.5951 142.023V143.442Z" fill="#3B3E7D"/>
<path d="M94.9912 143.442V144.861C94.9912 145.269 95.432 145.523 95.7846 145.32L97.0143 144.61L98.244 143.9C98.5967 143.696 98.5967 143.188 98.244 142.984L97.0143 142.274L95.7846 141.564C95.432 141.361 94.9912 141.615 94.9912 142.023V143.442Z" fill="#3B3E7D"/>
<path d="M305.13 138.791H66.229C67.4625 137.021 69.5145 135.864 71.837 135.864H299.525C301.848 135.864 303.899 137.022 305.13 138.791Z" fill="#B9D2F0"/>
<path d="M209.701 118.137H148.276C144.112 118.137 140.737 114.762 140.737 110.598V109.083C140.737 104.919 144.112 101.544 148.276 101.544H209.701C213.865 101.544 217.24 104.919 217.24 109.083V110.598C217.24 114.762 213.864 118.137 209.701 118.137Z" fill="#10B981"/>
<path d="M209.056 104.91C206.338 104.91 204.126 107.122 204.126 109.841C204.126 112.559 206.338 114.771 209.056 114.771C211.775 114.771 213.986 112.559 213.986 109.841C213.986 107.122 211.775 104.91 209.056 104.91ZM209.254 111.661V109.933H211.483C211.469 110.544 211.38 111.124 211.22 111.661H209.254ZM210.651 113.628C211.013 113.169 211.301 112.64 211.508 112.057H213.01C212.375 113.186 211.31 113.98 210.058 114.262C210.269 114.073 210.468 113.861 210.651 113.628ZM211.085 112.057C210.899 112.542 210.652 112.984 210.349 113.371C209.876 113.974 209.404 114.281 209.254 114.369V112.057H211.085ZM209.254 107.413V105.312C209.313 105.314 209.372 105.318 209.431 105.323C209.678 105.532 210.451 106.249 210.977 107.414H209.254V107.413ZM211.41 107.413C211.233 106.988 211.01 106.582 210.746 106.202C210.554 105.927 210.345 105.669 210.122 105.433C211.256 105.708 212.251 106.421 212.883 107.413H211.41ZM209.254 109.537V107.81H211.138C211.342 108.366 211.458 108.947 211.48 109.537H209.254ZM211.877 109.537C211.856 108.951 211.749 108.37 211.56 107.81H213.109C213.381 108.351 213.54 108.932 213.58 109.537H211.877ZM213.589 109.934C213.577 110.534 213.449 111.115 213.208 111.661H211.633C211.784 111.122 211.867 110.541 211.88 109.934H213.589ZM206.526 111.661H204.905C204.664 111.114 204.536 110.534 204.524 109.933H206.279C206.292 110.54 206.375 111.121 206.526 111.661ZM207.181 107.413C207.334 107.073 207.519 106.745 207.732 106.437C208.146 105.84 208.561 105.462 208.732 105.318C208.774 105.315 208.816 105.312 208.858 105.311V107.412L207.181 107.413ZM208.858 107.81V109.537H206.679C206.702 108.949 206.817 108.368 207.02 107.81H208.858ZM205.23 107.413C205.874 106.402 206.891 105.684 208.05 105.42C207.822 105.659 207.608 105.922 207.413 106.202C207.148 106.581 206.925 106.988 206.749 107.413H205.23ZM208.858 109.934V111.661H206.939C206.778 111.127 206.689 110.547 206.676 109.934H208.858ZM204.533 109.537C204.574 108.932 204.732 108.352 205.005 107.81H206.6C206.41 108.37 206.303 108.951 206.281 109.537H204.533ZM206.651 112.057C206.858 112.64 207.146 113.169 207.508 113.628C207.695 113.866 207.899 114.083 208.116 114.275C206.853 114.006 205.742 113.19 205.103 112.057H206.651ZM208.858 112.057V114.341C208.558 114.154 207.622 113.478 207.075 112.057H208.858Z" fill="white"/>
<path d="M196.602 105.103C199.187 105.103 201.29 107.206 201.29 109.79C201.29 112.375 199.187 114.478 196.602 114.478H149.213C146.628 114.478 144.525 112.375 144.525 109.79C144.525 107.206 146.628 105.103 149.213 105.103H196.602ZM196.602 104.618H149.213C146.361 104.618 144.04 106.938 144.04 109.791C144.04 112.643 146.36 114.964 149.213 114.964H196.602C199.454 114.964 201.774 112.644 201.774 109.791C201.774 106.938 199.454 104.618 196.602 104.618Z" fill="white"/>
<path d="M280.089 167.012V253.341C280.089 256.412 277.599 258.902 274.529 258.902H99.2311C96.1607 258.902 93.6709 256.412 93.6709 253.341V167.012C93.6709 163.942 96.1607 161.452 99.2311 161.452H274.528C277.598 161.452 280.089 163.942 280.089 167.012Z" fill="#D9E4F5"/>
<path d="M280.089 167.012V171.065H93.6709V167.012C93.6709 163.942 96.1607 161.452 99.2311 161.452H274.528C277.598 161.452 280.089 163.942 280.089 167.012Z" fill="#B4CAE3"/>
<path d="M262.182 166.164C262.182 167.205 261.338 168.049 260.297 168.049C259.256 168.049 258.412 167.205 258.412 166.164C258.412 165.123 259.256 164.279 260.297 164.279C261.338 164.279 262.182 165.124 262.182 166.164Z" fill="#3B3E7D"/>
<path d="M268.214 166.164C268.214 167.205 267.37 168.049 266.329 168.049C265.288 168.049 264.444 167.205 264.444 166.164C264.444 165.123 265.288 164.279 266.329 164.279C267.37 164.279 268.214 165.124 268.214 166.164Z" fill="#11996C"/>
<path d="M274.245 166.164C274.245 167.205 273.402 168.049 272.36 168.049C271.319 168.049 270.476 167.205 270.476 166.164C270.476 165.123 271.319 164.279 272.36 164.279C273.402 164.279 274.245 165.124 274.245 166.164Z" fill="#10B981"/>
<path d="M117.486 198.962H106.048C104.105 198.962 102.53 197.387 102.53 195.445V184.007C102.53 182.064 104.105 180.489 106.048 180.489H117.486C119.428 180.489 121.003 182.064 121.003 184.007V195.445C121.002 197.387 119.427 198.962 117.486 198.962Z" fill="#B4CAE3"/>
<path d="M115.034 196.323H103.596C101.654 196.323 100.079 194.748 100.079 192.806V181.368C100.079 179.425 101.654 177.851 103.596 177.851H115.034C116.977 177.851 118.552 179.425 118.552 181.368V192.806C118.552 194.748 116.977 196.323 115.034 196.323Z" fill="#10B981"/>
<path d="M112.706 185.391L107.657 187.123L112.706 188.856V191.689L104.208 188.606V185.641L112.706 182.558V185.391Z" fill="white"/>
<path d="M147.997 198.962H136.559C134.616 198.962 133.042 197.387 133.042 195.445V184.007C133.042 182.064 134.616 180.489 136.559 180.489H147.997C149.939 180.489 151.513 182.064 151.513 184.007V195.445C151.513 197.387 149.939 198.962 147.997 198.962Z" fill="#B4CAE3"/>
<path d="M145.546 196.323H134.108C132.165 196.323 130.59 194.748 130.59 192.806V181.368C130.59 179.425 132.165 177.851 134.108 177.851H145.546C147.488 177.851 149.063 179.425 149.063 181.368V192.806C149.063 194.748 147.488 196.323 145.546 196.323Z" fill="#10B981"/>
<path d="M140.354 181.147H142.907L138.695 193.171H136.142L140.354 181.147Z" fill="white"/>
<path d="M177.425 198.962H165.987C164.045 198.962 162.47 197.387 162.47 195.445V184.007C162.47 182.064 164.045 180.489 165.987 180.489H177.425C179.368 180.489 180.943 182.064 180.943 184.007V195.445C180.942 197.387 179.367 198.962 177.425 198.962Z" fill="#B4CAE3"/>
<path d="M174.974 196.323H163.536C161.594 196.323 160.019 194.748 160.019 192.806V181.368C160.019 179.425 161.594 177.851 163.536 177.851H174.974C176.917 177.851 178.492 179.425 178.492 181.368V192.806C178.492 194.748 176.917 196.323 174.974 196.323Z" fill="#10B981"/>
<path d="M165.09 182.558L173.588 185.641V188.606L165.09 191.689V188.856L170.139 187.123L165.09 185.391V182.558Z" fill="white"/>
<path d="M269.033 250.797H257.595C255.652 250.797 254.078 249.222 254.078 247.28V235.842C254.078 233.899 255.652 232.324 257.595 232.324H269.033C270.975 232.324 272.55 233.899 272.55 235.842V247.28C272.549 249.222 270.975 250.797 269.033 250.797Z" fill="#B4CAE3"/>
<path d="M266.582 248.158H255.144C253.201 248.158 251.626 246.584 251.626 244.641V233.203C251.626 231.26 253.201 229.686 255.144 229.686H266.582C268.524 229.686 270.099 231.26 270.099 233.203V244.641C270.099 246.584 268.524 248.158 266.582 248.158Z" fill="#10B981"/>
<path d="M260.693 232.906C257.371 232.906 254.669 235.608 254.669 238.93C254.669 242.252 257.372 244.954 260.693 244.954C264.015 244.954 266.717 242.252 266.717 238.93C266.716 235.608 264.015 232.906 260.693 232.906ZM260.935 241.154V239.044H263.658C263.642 239.789 263.534 240.499 263.337 241.154H260.935ZM262.641 243.559C263.084 242.997 263.436 242.351 263.689 241.639H265.523C264.748 243.018 263.446 243.988 261.916 244.333C262.175 244.102 262.418 243.842 262.641 243.559ZM263.172 241.639C262.945 242.232 262.642 242.771 262.273 243.244C261.695 243.981 261.118 244.357 260.935 244.464V241.639H263.172ZM260.935 235.964V233.396C261.007 233.399 261.079 233.404 261.151 233.41C261.452 233.665 262.397 234.541 263.04 235.964H260.935ZM263.569 235.964C263.353 235.446 263.08 234.948 262.757 234.484C262.523 234.148 262.267 233.833 261.995 233.544C263.38 233.88 264.597 234.751 265.368 235.963H263.569V235.964ZM260.935 238.559V236.448H263.237C263.486 237.128 263.627 237.837 263.655 238.559H260.935ZM264.14 238.559C264.113 237.842 263.983 237.132 263.751 236.448H265.644C265.977 237.109 266.17 237.819 266.219 238.559H264.14ZM266.231 239.044C266.216 239.777 266.06 240.487 265.766 241.154H263.841C264.026 240.494 264.127 239.785 264.143 239.044H266.231ZM257.6 241.154H255.62C255.326 240.487 255.169 239.777 255.155 239.044H257.299C257.314 239.785 257.416 240.494 257.6 241.154ZM258.401 235.964C258.587 235.548 258.813 235.148 259.074 234.772C259.58 234.042 260.087 233.58 260.296 233.404C260.347 233.401 260.398 233.398 260.45 233.396V235.964H258.401ZM260.45 236.448V238.559H257.786C257.815 237.84 257.955 237.131 258.204 236.448H260.45ZM256.017 235.964C256.804 234.728 258.046 233.851 259.463 233.528C259.185 233.821 258.923 234.142 258.685 234.484C258.362 234.947 258.089 235.445 257.873 235.964H256.017ZM260.45 239.044V241.154H258.104C257.908 240.501 257.8 239.792 257.783 239.044H260.45ZM255.165 238.559C255.214 237.82 255.408 237.11 255.741 236.448H257.691C257.459 237.132 257.328 237.842 257.302 238.559H255.165ZM257.753 241.639C258.005 242.352 258.358 242.997 258.8 243.559C259.029 243.849 259.278 244.114 259.543 244.349C257.999 244.021 256.641 243.023 255.862 241.639H257.753ZM260.45 241.639V244.43C260.084 244.201 258.939 243.375 258.271 241.639H260.45Z" fill="white"/>
<path d="M178.815 208.866H102.207C101.032 208.866 100.08 207.914 100.08 206.74C100.08 205.565 101.032 204.613 102.207 204.613H178.815C179.99 204.613 180.942 205.566 180.942 206.74C180.942 207.915 179.99 208.866 178.815 208.866Z" fill="#B4CAE3"/>
<path d="M178.815 216.743H102.207C101.032 216.743 100.08 215.791 100.08 214.616C100.08 213.441 101.032 212.49 102.207 212.49H178.815C179.99 212.49 180.942 213.442 180.942 214.616C180.942 215.791 179.99 216.743 178.815 216.743Z" fill="#B4CAE3"/>
<path d="M178.815 224.62H102.207C101.032 224.62 100.08 223.667 100.08 222.493C100.08 221.319 101.032 220.367 102.207 220.367H178.815C179.99 220.367 180.942 221.319 180.942 222.493C180.942 223.667 179.99 224.62 178.815 224.62Z" fill="#B4CAE3"/>
<path d="M178.815 232.495H102.207C101.032 232.495 100.08 231.543 100.08 230.369C100.08 229.195 101.032 228.242 102.207 228.242H178.815C179.99 228.242 180.942 229.195 180.942 230.369C180.942 231.543 179.99 232.495 178.815 232.495Z" fill="#B4CAE3"/>
<path d="M178.815 240.372H102.207C101.032 240.372 100.08 239.42 100.08 238.246C100.08 237.071 101.032 236.119 102.207 236.119H178.815C179.99 236.119 180.942 237.071 180.942 238.246C180.942 239.42 179.99 240.372 178.815 240.372Z" fill="#B4CAE3"/>
<path d="M178.815 248.248H102.207C101.032 248.248 100.08 247.296 100.08 246.121C100.08 244.947 101.032 243.995 102.207 243.995H178.815C179.99 243.995 180.942 244.947 180.942 246.121C180.942 247.296 179.99 248.248 178.815 248.248Z" fill="#B4CAE3"/>
<path d="M244.599 228.242H192.392C191.221 228.242 190.217 229.158 190.195 230.329C190.173 231.522 191.133 232.496 192.321 232.496H244.599C245.773 232.496 246.725 231.544 246.725 230.37C246.727 229.194 245.774 228.242 244.599 228.242Z" fill="#B4CAE3"/>
<path d="M244.599 236.118H192.392C191.221 236.118 190.217 237.034 190.195 238.205C190.173 239.398 191.133 240.372 192.321 240.372H244.599C245.773 240.372 246.725 239.42 246.725 238.246C246.727 237.071 245.774 236.118 244.599 236.118Z" fill="#B4CAE3"/>
<path d="M244.599 243.995H192.392C191.221 243.995 190.217 244.911 190.195 246.082C190.173 247.274 191.133 248.249 192.321 248.249H244.599C245.773 248.249 246.725 247.296 246.725 246.122C246.727 244.947 245.774 243.995 244.599 243.995Z" fill="#B4CAE3"/>
<path d="M270.099 180.448V219.898C270.099 219.981 270.095 220.064 270.089 220.145C270.051 220.588 269.913 220.998 269.699 221.348C269.28 222.039 268.568 222.493 267.761 222.493H192.386C191.474 222.493 190.685 221.915 190.302 221.07C190.139 220.718 190.047 220.319 190.047 219.898V180.448C190.047 180.127 190.099 179.821 190.195 179.536C190.335 179.124 190.566 178.761 190.86 178.479C191.269 178.089 191.802 177.851 192.385 177.851H267.76C268.227 177.851 268.661 178.001 269.024 178.263C269.365 178.504 269.646 178.845 269.833 179.246C270.004 179.606 270.099 180.014 270.099 180.448Z" fill="#B4CAE3"/>
<path d="M270.09 220.144C270.052 220.588 269.914 220.997 269.7 221.348L229.739 200.331L228.399 199.626L190.196 179.536C190.336 179.124 190.567 178.76 190.861 178.478L229.739 198.922L231.077 199.626H231.079L270.09 220.144Z" fill="#D9E4F5"/>
<path d="M269.834 179.245L231.078 199.627H231.076L229.738 200.332L190.302 221.07C190.139 220.718 190.047 220.319 190.047 219.898V219.794L228.398 199.628L229.738 198.923L269.024 178.263C269.365 178.504 269.646 178.844 269.834 179.245Z" fill="#D9E4F5"/>
<path d="M72.3757 358.537C89.3897 358.537 103.182 355.847 103.182 352.53C103.182 349.212 89.3897 346.523 72.3757 346.523C55.3617 346.523 41.5691 349.212 41.5691 352.53C41.5691 355.847 55.3617 358.537 72.3757 358.537Z" fill="#D9E4F5"/>
<path d="M55.0642 252.001L50.6387 254.731C48.7395 253.552 46.5811 252.863 44.3695 252.711C43.9728 251.645 43.7471 250.443 43.7471 249.092C43.7471 238.163 52.3617 217.976 52.3617 217.976L51.5758 240.53C51.0005 246.281 52.8526 249.833 55.0642 252.001Z" fill="#00FFAB"/>
<path d="M67.6469 244.235L50.6381 254.73C46.3912 252.094 40.8493 251.906 36.3098 254.709C30.6455 258.205 28.44 265.176 30.7519 271.17C31.0491 271.944 31.423 272.699 31.8737 273.431C35.8219 279.827 44.2016 281.812 50.5978 277.866C52.8694 276.464 54.5817 274.506 55.6723 272.273C56.7644 270.042 57.2288 267.538 57.0038 265.049L116.892 228.097L117.59 229.231L132.372 228.799L139.335 215.882L139.381 215.794L138.195 213.439L134.41 215.345L133.613 215.747L133.023 215.967L129.028 223.376L120.614 223.623L118.403 220.041L116.193 216.459L116.32 216.225L120.189 209.049L128.603 208.802L131.624 203.194L129.092 203.269L116.843 203.627L109.826 216.644L110.525 217.778L67.6469 244.235ZM46.9627 259.778L49.5133 263.915L50.844 266.072L47.3359 272.579L39.9449 272.795L36.062 266.505L36.189 266.271L39.571 259.994L46.9627 259.778Z" fill="#11996C"/>
<path d="M67.6469 244.235L50.6381 254.73C46.3912 252.094 40.8493 251.906 36.3098 254.709C30.6455 258.205 28.44 265.176 30.7519 271.17C34.7313 277.464 43.0411 279.395 49.394 275.476C51.6648 274.074 53.3779 272.115 54.4685 269.883C55.5606 267.652 56.025 265.148 55.8 262.659L115.688 225.707L116.386 226.841L131.168 226.409L136.856 215.854L138.185 213.39L131.818 213.577L127.823 220.986L119.409 221.233L117.198 217.651L116.32 216.225L114.99 214.068L118.985 206.659L127.399 206.412L129.092 203.269L116.843 203.627L109.826 216.644L110.525 217.778L67.6469 244.235ZM45.7589 257.388L49.641 263.681L49.514 263.915L46.1328 270.188L38.7418 270.405L36.1897 266.271L34.859 264.114L38.3679 257.604L45.7589 257.388Z" fill="#10B981"/>
<path d="M75.7324 198.046C75.7324 199.442 76.8686 200.579 78.2655 200.579C79.6616 200.579 80.7986 199.442 80.7986 198.046C80.7986 197.869 80.7811 197.695 80.7454 197.527C80.7097 197.363 80.6603 197.203 80.5957 197.051C80.5957 197.051 80.5957 197.051 80.5941 197.05C80.2073 196.147 79.309 195.513 78.2663 195.513C78.1067 195.513 77.9486 195.527 77.7973 195.558H77.7958C77.523 195.608 77.2653 195.703 77.0313 195.835C76.2568 196.27 75.7324 197.098 75.7324 198.046ZM76.1276 198.046C76.1276 197.104 76.7402 196.302 77.5883 196.02C77.8011 195.948 78.0284 195.909 78.2655 195.909C78.4312 195.909 78.5931 195.928 78.7473 195.965C79.1228 196.05 79.4633 196.238 79.7338 196.496C80.0143 196.76 80.2225 197.101 80.3274 197.482C80.3775 197.663 80.4034 197.852 80.4034 198.046C80.4034 199.225 79.4443 200.184 78.2655 200.184C77.0867 200.184 76.1276 199.225 76.1276 198.046Z" fill="#10B981"/>
<path d="M65.4473 205.738V210.773C65.4473 210.773 66.9483 213.338 68.9797 213.512C71.0082 213.689 72.8117 211.305 72.8117 211.305V206.093L65.4473 205.738Z" fill="#FB9A83"/>
<path d="M70.7856 206.956C70.7856 206.956 71.1117 208.74 72.8126 209.393V207.081L70.7856 206.956Z" fill="#FF6D6B"/>
<path d="M72.2387 207.95C64.6562 210.095 62.168 204.236 61.1078 200.527C60.9907 200.115 60.8843 199.657 60.7924 199.168C60.7886 199.149 60.7855 199.128 60.7802 199.106C60.6776 198.557 60.5879 197.972 60.5127 197.37C60.4557 196.924 60.4078 196.471 60.3653 196.014C60.2573 194.906 60.1867 193.794 60.1403 192.807C60.0324 190.552 61.3829 188.478 63.4949 187.668C66.5387 186.497 71.1603 185.571 75.5387 188.054C77.1567 188.97 78.1705 190.669 78.207 192.527C78.207 192.527 78.9716 195.498 78.6091 196.83C78.2465 198.162 78.166 198.566 78.0444 200.339C77.9235 202.112 76.9158 206.385 75.8677 207.272C74.8205 208.158 72.2387 207.95 72.2387 207.95Z" fill="#FB9A83"/>
<path d="M75.0589 200.091C74.9571 200.068 74.878 199.98 74.8719 199.87C74.783 198.249 73.3398 197.279 73.3253 197.269C73.2151 197.197 73.1847 197.048 73.2569 196.938C73.3291 196.828 73.4773 196.797 73.5875 196.87C73.6552 196.914 75.2466 197.978 75.3492 199.844C75.3561 199.976 75.255 200.089 75.1235 200.097C75.1015 200.097 75.0794 200.095 75.0589 200.091Z" fill="#FF6D6B"/>
<path d="M73.634 198.966C73.5907 198.957 73.5497 198.935 73.5162 198.901C73.4235 198.807 73.4243 198.656 73.5185 198.563C73.5345 198.548 73.9084 198.183 74.5521 198.051C74.6813 198.025 74.8075 198.108 74.8341 198.238C74.8607 198.367 74.7771 198.494 74.6479 198.52C74.1508 198.621 73.8575 198.9 73.8552 198.903C73.7944 198.963 73.7108 198.984 73.634 198.966Z" fill="#FF6D6B"/>
<path d="M59.8728 196.376C60.1798 200.395 61.9408 204.729 61.9408 204.729C63.8651 208.973 67.447 208.196 69.3827 207.615C70.7978 207.19 72.716 205.62 73.4996 204.899C74.1008 204.346 74.4633 203.527 74.6761 202.849C74.8319 202.351 74.4724 201.856 73.9533 201.807C73.0512 201.72 72.1118 200.955 71.8869 198.83C71.5046 195.225 73.91 195.222 73.91 195.222C75.3677 195.093 76.1421 196.92 76.1421 196.92C76.1421 196.92 77.0397 195.752 76.8542 193.831C76.6916 192.146 78.3902 193.347 78.3902 193.347C78.3902 193.347 80.7766 191.272 80.8306 189.23C80.8845 187.188 79.6944 187.107 78.6235 186.583C77.5527 186.059 80.0242 184.125 78.8424 183.104C77.6598 182.083 76.3169 181.975 75.3494 182.512C74.382 183.05 74.059 180.416 72.5815 180.363C71.1041 180.309 70.164 181.922 69.1288 181.277C68.0945 180.632 65.4611 179.665 64.2785 181.653C63.096 183.641 62.7737 184.152 61.8062 184.259C60.8388 184.366 58.1522 186.221 58.6895 189.283C59.2283 192.345 59.6934 194.029 59.8728 196.376Z" fill="#021147"/>
<path d="M74.5171 195.28C74.7671 195.354 74.9875 195.483 75.1813 195.638C75.667 195.581 76.1792 195.632 76.6854 195.747C76.8016 195.774 76.9156 195.803 77.0304 195.836C77.2189 195.891 77.4058 195.952 77.5882 196.02C77.9667 196.158 78.3346 196.325 78.6735 196.496C79.3879 196.855 79.983 197.244 80.328 197.482C80.531 197.624 80.6488 197.714 80.6556 197.719L80.746 197.528C80.7103 197.364 80.6609 197.204 80.5963 197.052C80.5963 197.052 80.5963 197.052 80.5948 197.051C80.3964 196.912 80.1 196.714 79.7352 196.496C79.4449 196.323 79.1113 196.139 78.7488 195.965C78.7358 195.959 78.7229 195.952 78.7085 195.946C78.4212 195.808 78.1149 195.677 77.7972 195.559H77.7957C77.4735 195.442 77.1376 195.34 76.7994 195.266C76.034 195.096 75.2474 195.061 74.5171 195.28Z" fill="#10B981"/>
<path d="M84.6728 355.726C85.2253 355.8 85.8972 355.836 86.4626 355.707L87.3032 355.434L88.6833 355.017C88.6833 355.017 93.6423 353.07 95.3987 351.363C97.1543 349.656 96.8412 347.777 94.1036 346.861C91.3661 345.945 88.9197 346.812 87.4559 346.227C87.4559 346.227 83.0738 346.596 83.3177 348.937C83.2615 351.116 83.1315 352.27 83.4226 354.472C83.5092 355.123 84.0215 355.639 84.6728 355.726Z" fill="#10B981"/>
<path d="M87.098 347.273C87.0228 347.256 86.9536 347.211 86.9103 347.14C86.8259 347.002 86.8692 346.822 87.0068 346.738C87.0532 346.71 88.1453 346.048 89.1044 346.083C90.3827 346.13 90.8494 347.124 90.8684 347.166C90.9352 347.313 90.8706 347.486 90.724 347.553C90.5773 347.62 90.404 347.556 90.3371 347.409C90.3242 347.382 89.9921 346.702 89.0831 346.668C88.298 346.639 87.3222 347.23 87.3123 347.236C87.2454 347.277 87.1687 347.288 87.098 347.273Z" fill="white"/>
<path d="M88.0814 347.164C88.0062 347.148 87.9378 347.102 87.8937 347.031C87.8093 346.894 87.8526 346.713 87.9902 346.629C88.0366 346.601 89.1287 345.94 90.0878 345.976C91.3661 346.022 91.8328 347.016 91.8518 347.059C91.9186 347.205 91.854 347.378 91.7074 347.445C91.5607 347.512 91.3874 347.448 91.3205 347.301C91.3076 347.274 90.9747 346.594 90.0665 346.56C89.2814 346.531 88.3056 347.122 88.2957 347.128C88.2288 347.169 88.1521 347.179 88.0814 347.164Z" fill="white"/>
<path d="M89.0428 346.964C88.9676 346.948 88.8992 346.902 88.8551 346.831C88.7707 346.694 88.8141 346.514 88.9516 346.429C88.998 346.401 90.0901 345.74 91.0492 345.775C92.3275 345.821 92.7942 346.815 92.8132 346.858C92.8801 347.005 92.8155 347.178 92.6688 347.245C92.5221 347.312 92.3488 347.247 92.2819 347.1C92.269 347.074 91.9361 346.394 91.0279 346.359C90.2429 346.33 89.267 346.922 89.2571 346.928C89.1903 346.969 89.1135 346.98 89.0428 346.964Z" fill="white"/>
<path d="M88.4673 343.214L88.1991 347.818C86.4967 348.288 85.2183 348.506 84.2531 347.755L83.978 342.872L88.4673 343.214Z" fill="#FB9A83"/>
<path d="M89.8642 345.121C87.3205 346.691 83.2393 345.774 83.2393 345.774C83.7264 345.688 79.6825 315.43 79.1497 310.874C78.6587 306.669 73.4163 294.46 71.213 287.533C71.0595 287.052 70.9227 286.596 70.8003 286.17C70.6278 285.562 70.4629 284.983 70.3071 284.438C69.3328 281.046 68.6929 278.889 68.6929 278.889L83.2393 275.709C83.6717 277.341 84.0798 278.95 84.4667 280.539C84.551 280.886 84.6339 281.232 84.716 281.576C84.7669 281.794 84.8178 282.012 84.8695 282.228C93.7903 320.123 89.8642 345.121 89.8642 345.121Z" fill="#3B3E7D"/>
<path d="M84.7169 281.575C79.7199 283.404 74.8331 284.231 70.3081 284.437C69.3338 281.045 68.6938 278.888 68.6938 278.888L83.2402 275.708C83.6727 277.341 84.0808 278.949 84.4676 280.538C84.552 280.886 84.6341 281.232 84.7169 281.575Z" fill="#18285D"/>
<path d="M46.9597 354.715C47.4696 354.941 48.105 355.162 48.6841 355.197L49.568 355.17L51.0089 355.156C51.0089 355.156 56.3145 354.672 58.4775 353.525C60.6404 352.376 60.8646 350.484 58.4919 348.84C56.1192 347.195 53.5276 347.344 52.2865 346.373C52.2865 346.373 47.9758 345.502 47.5555 347.819C46.8928 349.895 46.4451 350.966 46.1092 353.161C46.0104 353.81 46.3577 354.449 46.9597 354.715Z" fill="#10B981"/>
<path d="M51.6503 347.277C51.5827 347.24 51.5295 347.176 51.5075 347.097C51.4649 346.941 51.5569 346.78 51.7127 346.738C51.7643 346.723 52.9978 346.394 53.9098 346.696C55.1243 347.098 55.2945 348.183 55.3014 348.229C55.3249 348.389 55.214 348.537 55.0544 348.56C54.8948 348.584 54.7466 348.473 54.723 348.313C54.7185 348.284 54.5893 347.538 53.7259 347.251C52.9803 347.004 51.8776 347.299 51.8662 347.302C51.7909 347.322 51.7142 347.311 51.6503 347.277Z" fill="white"/>
<path d="M52.6247 347.447C52.5571 347.41 52.5039 347.347 52.4818 347.267C52.4393 347.111 52.5312 346.951 52.687 346.908C52.7395 346.894 53.973 346.564 54.8842 346.866C56.0987 347.268 56.2689 348.353 56.275 348.399C56.2986 348.559 56.1876 348.707 56.028 348.731C55.8684 348.754 55.7194 348.643 55.6966 348.484C55.6921 348.454 55.5629 347.708 54.6995 347.421C53.954 347.174 52.8512 347.469 52.8398 347.472C52.7653 347.493 52.6886 347.481 52.6247 347.447Z" fill="white"/>
<path d="M53.6035 347.523C53.5358 347.486 53.4826 347.423 53.4606 347.343C53.418 347.187 53.51 347.027 53.6658 346.984C53.7175 346.97 54.9517 346.64 55.8629 346.942C57.0774 347.344 57.2477 348.429 57.2545 348.475C57.2781 348.635 57.1671 348.783 57.0075 348.807C56.8479 348.83 56.6989 348.719 56.6761 348.56C56.6716 348.53 56.5424 347.784 55.679 347.497C54.9335 347.249 53.8307 347.545 53.8201 347.548C53.7441 347.569 53.6673 347.558 53.6035 347.523Z" fill="white"/>
<path d="M54.0999 343.762L52.5555 348.107C50.7901 348.084 49.5019 347.935 48.7844 346.944L49.8849 342.179L54.0999 343.762Z" fill="#FB9A83"/>
<path d="M67.9463 277.484C67.9053 279.174 67.846 280.831 67.7738 282.465C67.7442 283.127 67.7107 283.803 67.6719 284.49C67.6051 285.67 67.5268 286.884 67.4363 288.117C66.725 297.972 65.341 309.097 64.2664 314.676C63.5535 318.377 54.9093 345.982 54.9093 345.982C52.0676 346.768 48.4652 344.814 48.3672 344.759C48.8619 344.759 52.4841 311.624 53.6249 309.201C54.3415 307.677 53.6879 303.662 53.1514 286.517C53.1278 285.724 53.102 284.903 53.0784 284.052C53.0625 283.492 53.0511 282.956 53.0427 282.446C52.9819 278.806 53.0898 276.473 53.0898 276.473L67.9463 277.484Z" fill="#3B3E7D"/>
<path d="M53.0898 276.473L67.9462 277.484C67.9052 279.174 67.8459 280.831 67.7737 282.465C67.7441 283.127 67.7106 283.803 67.6719 284.49C61.8814 284.463 56.8099 283.485 53.0434 282.446C52.9818 278.806 53.0898 276.473 53.0898 276.473Z" fill="#18285D"/>
<path d="M84.7165 276.554C84.7165 276.554 75.8526 280.034 67.9471 280.074C60.0416 280.111 52.472 279.357 52.472 279.357C52.472 279.357 51.81 267.408 51.3784 254.057C51.351 253.183 51.3236 252.303 51.2978 251.422C51.2682 250.444 51.2431 249.459 51.2157 248.477C51.1937 247.6 51.1724 246.72 51.1526 245.843C51.1268 244.718 51.1055 243.598 51.0858 242.489C51.0698 241.602 51.0584 240.727 51.0462 239.859C50.9246 229.793 50.4474 220.724 52.0654 218.688C55.3919 214.503 65.4482 210.297 65.4482 210.297C67.6811 210.93 70.1967 211.141 73.052 210.847C73.052 210.847 78.6814 215.1 82.6273 217.977C85.744 220.25 83.2847 228.369 83.458 239.515C83.4694 240.365 83.4853 241.232 83.5013 242.109C83.5074 242.392 83.5127 242.679 83.5188 242.966C83.5347 243.738 83.5545 244.573 83.578 245.454C83.5993 246.277 83.6229 247.144 83.651 248.041C83.6784 248.986 83.708 249.964 83.7414 250.968C83.7688 251.816 83.7962 252.683 83.8281 253.557C84.1921 264.336 84.7165 276.554 84.7165 276.554Z" fill="#00FFAB"/>
<path d="M65.4233 216.017C70.3268 216.475 73.5811 213.87 73.7293 213.749C73.8494 213.651 73.8676 213.474 73.7688 213.354C73.6708 213.234 73.4937 213.216 73.3736 213.314C73.3364 213.344 69.5463 216.368 64.1465 215.259C63.9952 215.227 63.8455 215.325 63.8144 215.477C63.7832 215.629 63.8812 215.778 64.0332 215.81C64.5098 215.908 64.9741 215.975 65.4233 216.017Z" fill="#10B981"/>
<path d="M83.5005 242.109C76.7517 243.407 70.734 243.848 65.6739 243.848C58.9076 243.848 53.8597 243.06 51.0842 242.489C51.0682 241.602 51.0568 240.727 51.0447 239.859C55.2817 240.764 67.3588 242.676 83.4564 239.516C83.4693 240.365 83.4845 241.232 83.5005 242.109Z" fill="#10B981"/>
<path d="M83.6495 248.041C76.8399 249.363 70.769 249.809 65.674 249.809C59.0118 249.809 54.0171 249.047 51.2142 248.477C51.1922 247.6 51.1709 246.72 51.1511 245.843C55.49 246.761 67.5512 248.623 83.5765 245.454C83.5986 246.277 83.6221 247.144 83.6495 248.041Z" fill="#10B981"/>
<path d="M83.8266 253.557C76.9464 254.904 70.8147 255.358 65.674 255.358C59.1396 255.358 54.2079 254.625 51.3777 254.057C51.3503 253.183 51.323 252.303 51.2971 251.422C55.7712 252.35 67.8112 254.148 83.74 250.968C83.7674 251.816 83.7955 252.683 83.8266 253.557Z" fill="#10B981"/>
<path d="M83.3083 218.688C83.3083 218.688 97.2065 240.244 99.4994 238.83C102.956 236.697 105.911 234.873 105.911 234.873L109.18 232.857C109.18 232.857 107.238 245.489 99.5784 248.028C94.7714 249.622 81.7207 233.208 81.7207 233.208C81.7207 233.208 81.7215 222.092 83.3083 218.688Z" fill="#00FFAB"/>
<path d="M223.038 263.225C208.205 243.283 198.837 224.887 198.837 224.887L199.307 238.675C199.307 238.675 213.404 261.38 217.808 266.101C219.565 266.102 223.038 265.504 223.038 263.225Z" fill="#10B981"/>
<path d="M186.284 221.574C186.284 221.574 183.836 222.231 181.458 222.824C179.271 223.371 178.055 224.008 178.055 224.008C178.055 224.008 177.839 244.94 178.055 251.292C178.272 257.645 176.213 263.474 176.617 267.183C176.617 267.183 194.772 268.467 198.644 266.929C198.644 266.929 197.145 250.586 198.837 245.996C200.556 241.335 201.457 238.087 201.054 236.187C200.021 231.309 198.791 230.579 199.112 226.089C199.432 221.599 186.284 221.574 186.284 221.574Z" fill="#00FFAB"/>
<path d="M194.146 229.133C189.221 229.133 186.223 226.237 186.087 226.102C185.977 225.994 185.975 225.816 186.084 225.705C186.193 225.594 186.371 225.593 186.481 225.702C186.516 225.736 190.008 229.099 195.487 228.497C195.641 228.48 195.781 228.591 195.798 228.746C195.814 228.9 195.703 229.039 195.549 229.056C195.066 229.109 194.598 229.133 194.146 229.133Z" fill="#10B981"/>
<path d="M182.389 255.205C182.238 255.205 182.113 255.086 182.108 254.934C182.103 254.779 182.224 254.649 182.379 254.643C182.455 254.64 189.952 254.293 195.101 247.491C195.195 247.367 195.372 247.343 195.495 247.436C195.619 247.53 195.643 247.707 195.549 247.83C190.233 254.852 182.477 255.201 182.399 255.204C182.395 255.205 182.392 255.205 182.389 255.205Z" fill="#10B981"/>
<path d="M182.145 257.868C181.555 257.868 181.212 257.833 181.195 257.831C181.041 257.813 180.93 257.674 180.948 257.521C180.965 257.366 181.103 257.256 181.258 257.272C181.334 257.281 188.801 258.033 194.889 252.056C195 251.947 195.178 251.949 195.287 252.059C195.395 252.17 195.394 252.348 195.283 252.457C190.298 257.351 184.407 257.868 182.145 257.868Z" fill="#10B981"/>
<path d="M254.513 277.643L259.306 279.335L257.689 283.695L252.508 282.189L254.513 277.643Z" fill="#FB9A83"/>
<path d="M258.592 279.942C258.592 279.942 257.537 278.333 257.912 277.498C258.288 276.664 265.964 271.973 267.227 269.866C268.49 267.759 269.997 268.809 270.698 269.536C271.398 270.264 263.766 287.492 263.766 287.492C263.766 287.492 258.333 286.054 256.936 284.89C255.539 283.725 258.324 281.853 258.592 279.942Z" fill="#10B981"/>
<path d="M263.597 277.629C263.592 277.718 263.551 277.804 263.479 277.867C263.336 277.988 263.123 277.969 263.003 277.827C262.962 277.779 262.014 276.648 261.885 275.545C261.712 274.077 262.766 273.367 262.811 273.338C262.967 273.235 263.177 273.279 263.279 273.434C263.382 273.59 263.339 273.8 263.182 273.903C263.154 273.922 262.435 274.422 262.557 275.467C262.662 276.366 263.51 277.38 263.519 277.39C263.577 277.459 263.602 277.545 263.597 277.629Z" fill="white"/>
<path d="M262.357 278.248C262.352 278.337 262.312 278.424 262.238 278.486C262.095 278.607 261.882 278.589 261.762 278.447C261.721 278.399 260.773 277.268 260.644 276.164C260.471 274.695 261.524 273.986 261.569 273.956C261.725 273.854 261.935 273.897 262.037 274.053C262.14 274.209 262.097 274.419 261.94 274.521C261.912 274.541 261.193 275.041 261.315 276.085C261.42 276.988 262.268 277.999 262.277 278.009C262.337 278.079 262.363 278.164 262.357 278.248Z" fill="white"/>
<path d="M264.792 276.612C264.786 276.701 264.746 276.787 264.672 276.85C264.529 276.971 264.317 276.952 264.196 276.81C264.156 276.762 263.206 275.631 263.078 274.528C262.905 273.059 263.959 272.35 264.004 272.321C264.16 272.218 264.37 272.262 264.472 272.418C264.575 272.574 264.532 272.784 264.375 272.886C264.346 272.906 263.628 273.406 263.75 274.45C263.855 275.353 264.703 276.364 264.713 276.374C264.77 276.442 264.796 276.528 264.792 276.612Z" fill="white"/>
<path d="M190.855 269.03C190.855 269.03 210.227 263.389 219.923 263.001C229.628 262.618 255.751 277.039 255.751 277.039C256.375 278.555 255.967 280.239 254.95 281.756C254.806 281.975 254.65 282.182 254.484 282.377C254.126 282.834 253.713 283.255 253.256 283.651C253.256 283.651 233.97 281.18 221.085 274.348C221.085 274.348 202.994 278.853 192.581 278.565C192.581 278.565 188.285 274.979 190.855 269.03Z" fill="#021147"/>
<path d="M198.332 212.685C202.363 208.655 202.363 202.12 198.332 198.09C194.302 194.06 187.768 194.06 183.738 198.09C179.708 202.12 179.708 208.655 183.738 212.685C187.768 216.715 194.302 216.715 198.332 212.685Z" fill="#021147"/>
<path d="M187.27 201.62C190.762 201.62 193.594 198.789 193.594 195.296C193.594 191.804 190.762 188.972 187.27 188.972C183.777 188.972 180.946 191.804 180.946 195.296C180.946 198.789 183.777 201.62 187.27 201.62Z" fill="#021147"/>
<path d="M198.44 208.239C198.44 208.239 200.008 206.601 200.908 208.166C201.809 209.73 199.925 213.919 197.479 212.618L198.44 208.239Z" fill="#FF6D6B"/>
<path d="M198.646 212.427C198.622 212.684 198.81 212.912 199.067 212.937C199.324 212.961 199.552 212.773 199.577 212.516C199.601 212.259 199.413 212.031 199.156 212.006C198.899 211.981 198.671 212.17 198.646 212.427Z" fill="white"/>
<path d="M198.162 211.335C198.257 211.344 198.349 211.293 198.384 211.205C198.906 209.906 200.415 209.504 200.43 209.499C200.545 209.47 200.612 209.357 200.58 209.248C200.548 209.138 200.429 209.073 200.314 209.103C200.243 209.121 198.581 209.559 197.98 211.055C197.937 211.161 197.994 211.28 198.105 211.321C198.124 211.328 198.143 211.332 198.162 211.335Z" fill="#ED495C"/>
<path d="M199.697 210.802C199.736 210.806 199.778 210.799 199.816 210.781C199.922 210.729 199.963 210.605 199.907 210.504C199.898 210.487 199.676 210.089 199.159 209.808C199.055 209.752 198.923 209.785 198.865 209.884C198.806 209.982 198.843 210.108 198.947 210.164C199.347 210.382 199.523 210.688 199.524 210.691C199.56 210.755 199.626 210.795 199.697 210.802Z" fill="#ED495C"/>
<path d="M186.791 216.265L186.284 221.575C186.284 221.575 188.57 223.715 190.48 224.064C192.388 224.415 193.269 222.209 193.269 222.209L193.741 217.267L186.791 216.265Z" fill="#FB9A83"/>
<path d="M186.742 216.785L186.54 218.903C187.695 220.46 189.94 221.187 193.383 221.01L193.692 217.786L186.742 216.785Z" fill="#FF6D6B"/>
<path d="M199.087 210.338C198.977 210.845 198.855 211.36 198.712 211.871C197.773 215.265 195.232 218.787 192.415 219.149C186.331 219.932 184.304 215.018 183.682 211.477C183.613 211.083 183.853 210.664 183.813 210.202C183.718 209.107 183.4 207.844 183.417 206.63C183.428 205.789 183.458 204.961 183.495 204.214C183.599 202.106 184.998 200.293 186.97 199.722C189.811 198.894 194.051 198.429 197.768 201.114C199.14 202.106 199.903 203.772 199.77 205.504C199.668 206.827 199.47 208.55 199.087 210.338Z" fill="#FB9A83"/>
<path d="M191.565 212.317C191.454 212.306 191.363 212.217 191.355 212.102C191.346 211.975 191.442 211.863 191.57 211.854L192.377 211.796L191.561 208.777C191.528 208.653 191.601 208.525 191.724 208.492C191.848 208.459 191.976 208.531 192.009 208.655L192.973 212.219L191.604 212.317C191.591 212.317 191.578 212.317 191.565 212.317Z" fill="#FF6D6B"/>
<path d="M197.349 204.302C199.576 205.587 198.895 209.095 198.743 211.758C198.737 211.862 199.32 209.86 199.38 209.819C199.778 207.998 199.98 206.241 200.083 204.893C200.217 203.127 199.408 201.427 197.958 200.41C194.032 197.66 189.566 198.121 186.574 198.955C184.499 199.532 183.03 201.375 182.927 203.523C182.891 204.286 182.862 205.13 182.853 205.987C183.217 206.254 184.151 206.449 184.131 207.074C184.078 208.726 183.953 211.527 184.3 211.439C184.706 211.336 185.183 207.579 185.009 206.378C185.009 206.378 185.624 205.562 187.872 204.934C190.756 204.128 193.585 202.796 193.585 202.796C193.585 202.796 194.702 202.261 195.174 201.606C195.175 201.605 195.653 203.325 197.349 204.302Z" fill="#021147"/>
<path d="M195.042 208.841C194.993 209.351 195.217 209.789 195.54 209.82C195.864 209.851 196.167 209.463 196.215 208.954C196.264 208.444 196.04 208.006 195.717 207.975C195.392 207.944 195.09 208.332 195.042 208.841Z" fill="#021147"/>
<path d="M188.134 208.2C188.085 208.71 188.309 209.147 188.633 209.179C188.956 209.21 189.259 208.821 189.308 208.312C189.356 207.802 189.133 207.364 188.809 207.333C188.484 207.301 188.182 207.69 188.134 208.2Z" fill="#021147"/>
<path d="M196.988 206.299C196.525 206.162 195.586 205.919 194.567 205.858C194.299 205.842 194.065 206.023 194.082 206.239L194.083 206.244C194.096 206.417 194.267 206.548 194.482 206.553C195.18 206.566 196.99 206.751 197.808 207.083C197.843 206.962 197.774 206.825 197.666 206.7C197.501 206.512 197.258 206.38 196.988 206.299Z" fill="#021147"/>
<path d="M187.546 205.509C188.026 205.456 188.993 205.382 190.007 205.501C190.274 205.532 190.472 205.752 190.418 205.962L190.416 205.967C190.373 206.135 190.181 206.234 189.969 206.2C189.279 206.091 187.466 205.955 186.601 206.137C186.587 206.013 186.68 205.89 186.808 205.786C187.003 205.629 187.266 205.54 187.546 205.509Z" fill="#021147"/>
<path d="M193.998 213.938C193.75 214.733 193.038 216.171 191.117 215.987C189.193 215.804 188.783 214.388 188.688 213.432L193.998 213.938Z" fill="white"/>
<path d="M191.011 217.384C191.565 217.437 192.083 217.184 192.105 217.174C192.218 217.118 192.265 216.982 192.208 216.869C192.153 216.757 192.017 216.71 191.904 216.765C191.899 216.767 191.477 216.97 191.055 216.93C190.597 216.886 190.211 216.605 190.207 216.602C190.106 216.528 189.963 216.549 189.889 216.65C189.814 216.751 189.835 216.893 189.936 216.969C189.955 216.983 190.425 217.328 191.011 217.384Z" fill="#FF6D6B"/>
<path d="M184.096 206.855C184.096 206.855 182.658 204.726 181.562 206.058C180.466 207.39 181.422 211.722 183.87 210.921L184.096 206.855Z" fill="#FB9A83"/>
<path d="M182.383 210.874C182.359 211.131 182.548 211.359 182.805 211.384C183.061 211.408 183.289 211.22 183.314 210.963C183.339 210.706 183.15 210.478 182.893 210.453C182.637 210.429 182.408 210.617 182.383 210.874Z" fill="white"/>
<path d="M183.481 209.573C183.394 209.565 183.32 209.499 183.304 209.41C183.064 208.077 181.769 207.422 181.757 207.416C181.658 207.368 181.617 207.248 181.666 207.149C181.715 207.051 181.834 207.01 181.933 207.058C181.994 207.088 183.42 207.805 183.697 209.339C183.717 209.448 183.644 209.551 183.536 209.571C183.517 209.574 183.498 209.575 183.481 209.573Z" fill="#FF6D6B"/>
<path d="M182.186 208.789C182.149 208.786 182.113 208.772 182.082 208.748C181.995 208.679 181.981 208.554 182.048 208.467C182.06 208.453 182.333 208.113 182.851 207.938C182.955 207.902 183.068 207.958 183.104 208.063C183.139 208.167 183.084 208.28 182.979 208.316C182.577 208.451 182.364 208.712 182.362 208.715C182.318 208.77 182.251 208.796 182.186 208.789Z" fill="#FF6D6B"/>
<path d="M191.31 207.786C191.324 207.648 191.306 207.513 191.263 207.389C191.147 207.048 190.846 206.787 190.465 206.742L187.102 206.345C186.837 206.314 186.587 206.393 186.393 206.546C186.286 206.63 186.199 206.735 186.136 206.858C186.083 206.959 186.046 207.07 186.033 207.188L185.982 207.618C185.896 208.347 186.099 209.076 186.54 209.622C186.98 210.163 187.518 210.481 188.141 210.568L188.23 210.578C188.949 210.664 189.659 210.464 190.231 210.015C190.811 209.561 191.178 208.907 191.264 208.174L191.308 207.811C191.309 207.803 191.311 207.793 191.31 207.786ZM190.869 208.127C190.796 208.754 190.482 209.312 189.987 209.701C189.498 210.084 188.892 210.254 188.278 210.182L188.198 210.172C187.68 210.099 187.227 209.83 186.853 209.37C186.479 208.909 186.307 208.286 186.38 207.665L186.431 207.236C186.467 206.927 186.747 206.706 187.056 206.743L190.419 207.14C190.727 207.176 190.949 207.456 190.913 207.765L190.869 208.127Z" fill="white"/>
<path d="M198.432 208.39C198.413 208.255 198.362 208.128 198.29 208.014C198.139 207.783 197.89 207.617 197.595 207.583L194.231 207.186C193.841 207.14 193.477 207.334 193.289 207.654C193.225 207.76 193.182 207.881 193.165 208.01C193.163 208.017 193.162 208.023 193.161 208.029L193.11 208.458C193.025 209.187 193.23 209.917 193.671 210.461C194.11 211.003 194.649 211.321 195.27 211.408L195.359 211.418C196.079 211.503 196.789 211.304 197.36 210.855C197.94 210.401 198.308 209.747 198.394 209.014L198.437 208.65C198.45 208.563 198.448 208.476 198.432 208.39ZM198 208.968C197.926 209.595 197.612 210.153 197.116 210.541C196.628 210.925 196.022 211.095 195.408 211.022L195.326 211.012C194.808 210.94 194.355 210.67 193.981 210.211C193.608 209.749 193.435 209.127 193.508 208.506L193.559 208.076C193.595 207.767 193.877 207.546 194.184 207.583L197.549 207.979C197.857 208.016 198.079 208.295 198.042 208.605L198 208.968Z" fill="white"/>
<path d="M186.394 206.546C186.075 206.337 185.233 205.876 183.985 205.825L184.089 206.234C185.125 206.304 185.843 206.675 186.138 206.858C186.235 206.918 186.287 206.957 186.289 206.959L186.537 206.646C186.526 206.638 186.478 206.6 186.394 206.546Z" fill="white"/>
<path d="M191.173 207.81L191.087 207.42C191.112 207.415 191.692 207.289 192.303 207.361C192.955 207.437 193.351 207.687 193.367 207.697L193.152 208.034C193.149 208.033 192.811 207.823 192.256 207.757C191.714 207.693 191.179 207.808 191.173 207.81Z" fill="white"/>
<path d="M199.563 207.794C198.805 207.831 198.167 208.052 198.126 208.067L198.258 208.444C198.269 208.441 198.925 208.213 199.663 208.191L199.563 207.794Z" fill="white"/>
<path d="M212.633 304.437L210.914 309.53L206.417 309.105L207.942 303.685L212.633 304.437Z" fill="#FB9A83"/>
<path d="M210.597 309.355C210.597 309.355 211.742 307.808 212.656 307.871C213.568 307.935 220.626 313.513 223.039 313.968C225.453 314.423 224.99 316.201 224.55 317.11C224.111 318.019 205.306 316.823 205.306 316.823C205.306 316.823 204.774 311.228 205.382 309.515C205.992 307.801 208.712 309.765 210.597 309.355Z" fill="#10B981"/>
<path d="M214.501 313.25C214.416 313.276 214.32 313.268 214.237 313.221C214.074 313.129 214.017 312.923 214.109 312.761C214.139 312.706 214.873 311.424 215.863 310.922C217.18 310.252 218.211 310.995 218.255 311.027C218.405 311.137 218.437 311.349 218.326 311.5C218.215 311.649 218.004 311.682 217.853 311.57C217.825 311.551 217.108 311.049 216.169 311.525C215.362 311.934 214.704 313.082 214.698 313.094C214.653 313.172 214.582 313.226 214.501 313.25Z" fill="white"/>
<path d="M213.491 312.301C213.406 312.327 213.31 312.319 213.226 312.272C213.064 312.18 213.007 311.974 213.099 311.811C213.129 311.757 213.862 310.475 214.853 309.973C216.171 309.303 217.201 310.045 217.244 310.077C217.395 310.188 217.427 310.399 217.316 310.55C217.206 310.7 216.994 310.732 216.843 310.62C216.815 310.601 216.097 310.099 215.159 310.575C214.349 310.986 213.694 312.132 213.688 312.143C213.643 312.223 213.571 312.277 213.491 312.301Z" fill="white"/>
<path d="M215.869 314.018C215.784 314.044 215.689 314.037 215.604 313.989C215.442 313.897 215.385 313.691 215.477 313.528C215.507 313.474 216.24 312.192 217.231 311.69C218.548 311.019 219.579 311.762 219.622 311.795C219.772 311.906 219.804 312.117 219.693 312.267C219.583 312.417 219.371 312.45 219.22 312.338C219.192 312.318 218.474 311.817 217.536 312.292C216.726 312.704 216.071 313.85 216.065 313.861C216.02 313.94 215.949 313.994 215.869 314.018Z" fill="white"/>
<path d="M176.351 269.441C176.105 271.522 176.456 273.645 177.438 275.497C178.886 278.227 182.003 281.085 188.719 280.732C203.021 279.98 213.108 280.732 213.108 280.732C213.108 280.732 211.618 285.556 210.014 292.561C209.072 296.677 206.125 306.667 206.125 306.667C208.063 307.808 210.125 307.515 212.195 307.136C212.195 307.136 227.047 281.659 225.752 273.374C224.457 265.088 176.616 267.184 176.616 267.184L176.351 269.441Z" fill="#3B3E7D"/>
<path d="M206.126 262.841C199.391 258.59 188.721 250.49 188.721 250.49C188.721 250.49 182.006 237.493 178.056 224.008C178.056 224.008 173.574 229.177 176.682 240.743C179.711 252.011 184.581 256.057 184.581 256.057C184.581 256.057 197.029 264.974 203.618 267.183C204.656 265.447 205.171 264.624 206.126 262.841Z" fill="#10B981"/>
<path d="M237.103 268.052L194.893 268.609C194.137 268.619 193.517 268.015 193.507 267.26L193.498 266.597C193.488 265.841 194.092 265.221 194.847 265.211L237.058 264.654C237.813 264.644 238.433 265.248 238.443 266.003L238.452 266.667C238.463 267.422 237.859 268.042 237.103 268.052Z" fill="#11996C"/>
<path d="M238.471 268.034L201.645 268.519L212.613 248.301L249.373 247.937L238.471 268.034Z" fill="#00FFAB"/>
<path d="M236.185 268.057L236.181 268.064L199.422 268.427L210.323 248.331L212.61 248.307L201.711 268.398L236.185 268.057Z" fill="#11996C"/>
<path d="M228.347 258.13C228.365 259.424 227.33 260.486 226.036 260.503C224.742 260.52 223.68 259.485 223.663 258.192C223.647 256.898 224.681 255.836 225.974 255.819C227.268 255.802 228.33 256.837 228.347 258.13Z" fill="#10B981"/>
<path d="M333.059 338.193C350.073 338.193 363.865 335.504 363.865 332.186C363.865 328.869 350.073 326.179 333.059 326.179C316.045 326.179 302.252 328.869 302.252 332.186C302.252 335.504 316.045 338.193 333.059 338.193Z" fill="#D9E4F5"/>
<path d="M312.54 268.7V330.957C312.54 332.326 313.649 333.435 315.018 333.435H351.1C351.79 333.435 352.413 333.153 352.862 332.698C353.306 332.252 353.579 331.638 353.579 330.957V268.7C353.579 267.331 352.47 266.222 351.101 266.222H315.018C314.528 266.222 314.074 266.364 313.69 266.608C312.999 267.047 312.54 267.819 312.54 268.7Z" fill="#10B981"/>
<path d="M323.784 278.228H347.879C348.821 278.228 349.585 277.465 349.585 276.523C349.585 275.581 348.821 274.818 347.879 274.818H323.784C322.842 274.818 322.078 275.581 322.078 276.523C322.078 277.465 322.842 278.228 323.784 278.228Z" fill="#00FFAB"/>
<path d="M323.784 285.997H347.879C348.821 285.997 349.585 285.234 349.585 284.292C349.585 283.35 348.821 282.586 347.879 282.586H323.784C322.842 282.586 322.078 283.349 322.078 284.292C322.078 285.233 322.842 285.997 323.784 285.997Z" fill="#00FFAB"/>
<path d="M323.784 293.766H347.879C348.821 293.766 349.585 293.002 349.585 292.06C349.585 291.119 348.821 290.355 347.879 290.355H323.784C322.842 290.355 322.078 291.119 322.078 292.06C322.078 293.002 322.842 293.766 323.784 293.766Z" fill="#00FFAB"/>
<path d="M323.784 301.534H347.879C348.821 301.534 349.585 300.77 349.585 299.828C349.585 298.887 348.821 298.123 347.879 298.123H323.784C322.842 298.123 322.078 298.887 322.078 299.828C322.078 300.771 322.842 301.534 323.784 301.534Z" fill="#00FFAB"/>
<path d="M323.784 309.302H347.879C348.821 309.302 349.585 308.539 349.585 307.597C349.585 306.655 348.821 305.892 347.879 305.892H323.784C322.842 305.892 322.078 306.655 322.078 307.597C322.078 308.539 322.842 309.302 323.784 309.302Z" fill="#00FFAB"/>
<path d="M323.784 317.071H347.879C348.821 317.071 349.585 316.308 349.585 315.366C349.585 314.424 348.821 313.66 347.879 313.66H323.784C322.842 313.66 322.078 314.424 322.078 315.366C322.078 316.308 322.842 317.071 323.784 317.071Z" fill="#00FFAB"/>
<path d="M323.784 324.84H347.879C348.821 324.84 349.585 324.076 349.585 323.135C349.585 322.193 348.821 321.429 347.879 321.429H323.784C322.842 321.429 322.078 322.193 322.078 323.135C322.078 324.076 322.842 324.84 323.784 324.84Z" fill="#00FFAB"/>
<path d="M317.207 275.548C317.207 275.951 317.534 276.278 317.937 276.278C318.341 276.278 318.668 275.951 318.668 275.548C318.668 275.144 318.341 274.818 317.937 274.818C317.534 274.818 317.207 275.145 317.207 275.548Z" fill="#021147"/>
<path d="M317.207 277.498C317.207 277.902 317.534 278.228 317.937 278.228C318.341 278.228 318.668 277.902 318.668 277.498C318.668 277.094 318.341 276.768 317.937 276.768C317.534 276.768 317.207 277.095 317.207 277.498Z" fill="#00FFAB"/>
<path d="M317.207 283.317C317.207 283.72 317.534 284.047 317.937 284.047C318.341 284.047 318.668 283.72 318.668 283.317C318.668 282.913 318.341 282.586 317.937 282.586C317.534 282.586 317.207 282.913 317.207 283.317Z" fill="white"/>
<path d="M317.207 285.267C317.207 285.67 317.534 285.997 317.937 285.997C318.341 285.997 318.668 285.67 318.668 285.267C318.668 284.863 318.341 284.536 317.937 284.536C317.534 284.536 317.207 284.863 317.207 285.267Z" fill="#00FFAB"/>
<path d="M317.207 298.854C317.207 299.258 317.534 299.584 317.937 299.584C318.341 299.584 318.668 299.258 318.668 298.854C318.668 298.45 318.341 298.124 317.937 298.124C317.534 298.124 317.207 298.45 317.207 298.854Z" fill="white"/>
<path d="M317.207 300.804C317.207 301.208 317.534 301.535 317.937 301.535C318.341 301.535 318.668 301.208 318.668 300.804C318.668 300.401 318.341 300.074 317.937 300.074C317.534 300.074 317.207 300.401 317.207 300.804Z" fill="#00FFAB"/>
<path d="M317.207 291.085C317.207 291.489 317.534 291.816 317.937 291.816C318.341 291.816 318.668 291.489 318.668 291.085C318.668 290.682 318.341 290.355 317.937 290.355C317.534 290.355 317.207 290.682 317.207 291.085Z" fill="#021147"/>
<path d="M317.207 293.035C317.207 293.439 317.534 293.766 317.937 293.766C318.341 293.766 318.668 293.439 318.668 293.035C318.668 292.632 318.341 292.305 317.937 292.305C317.534 292.305 317.207 292.632 317.207 293.035Z" fill="#00FFAB"/>
<path d="M317.207 306.622C317.207 307.026 317.534 307.352 317.937 307.352C318.341 307.352 318.668 307.026 318.668 306.622C318.668 306.218 318.341 305.892 317.937 305.892C317.534 305.892 317.207 306.219 317.207 306.622Z" fill="#021147"/>
<path d="M317.207 308.573C317.207 308.976 317.534 309.303 317.937 309.303C318.341 309.303 318.668 308.976 318.668 308.573C318.668 308.169 318.341 307.843 317.937 307.843C317.534 307.843 317.207 308.169 317.207 308.573Z" fill="#00FFAB"/>
<path d="M317.207 314.391C317.207 314.794 317.534 315.121 317.937 315.121C318.341 315.121 318.668 314.794 318.668 314.391C318.668 313.987 318.341 313.66 317.937 313.66C317.534 313.66 317.207 313.988 317.207 314.391Z" fill="white"/>
<path d="M317.207 316.341C317.207 316.744 317.534 317.071 317.937 317.071C318.341 317.071 318.668 316.744 318.668 316.341C318.668 315.937 318.341 315.611 317.937 315.611C317.534 315.611 317.207 315.938 317.207 316.341Z" fill="#00FFAB"/>
<path d="M317.207 322.159C317.207 322.563 317.534 322.89 317.937 322.89C318.341 322.89 318.668 322.563 318.668 322.159C318.668 321.756 318.341 321.429 317.937 321.429C317.534 321.429 317.207 321.756 317.207 322.159Z" fill="#021147"/>
<path d="M317.207 324.11C317.207 324.513 317.534 324.84 317.937 324.84C318.341 324.84 318.668 324.513 318.668 324.11C318.668 323.706 318.341 323.379 317.937 323.379C317.534 323.379 317.207 323.707 317.207 324.11Z" fill="#00FFAB"/>
<path d="M320.367 266.222H345.751C345.751 264.671 344.493 263.413 342.942 263.413H323.176C321.624 263.413 320.367 264.671 320.367 266.222Z" fill="#11996C"/>
<path d="M318.13 204.193V205.88H332.262V263.413H333.949V204.193H318.13Z" fill="#00FFAB"/>
<path d="M335.244 205.037C335.244 206.244 334.265 207.222 333.059 207.222C331.852 207.222 330.874 206.244 330.874 205.037C330.874 203.83 331.852 202.852 333.059 202.852C334.265 202.852 335.244 203.83 335.244 205.037Z" fill="#11996C"/>
</g>
<defs>
<clipPath id="clip0_32_1033">
<rect width="380" height="380" fill="white"/>
</clipPath>
</defs>
</svg>
