<svg width="352" height="352" viewBox="0 0 352 352" fill="none" xmlns="http://www.w3.org/2000/svg">
<path d="M62.7731 180.961C0.241673 217.064 0.243081 275.598 62.7766 311.701C125.31 347.803 226.695 347.803 289.227 311.701C351.759 275.598 351.757 217.064 289.224 180.961C226.69 144.859 125.305 144.859 62.7731 180.961Z" fill="#FAFAFA"/>
<path d="M153.019 326.795C169.703 326.795 183.227 318.986 183.227 309.354C183.227 299.721 169.703 291.913 153.019 291.913C136.336 291.913 122.812 299.721 122.812 309.354C122.812 318.986 136.336 326.795 153.019 326.795Z" fill="#E0E0E0"/>
<path d="M203.625 314.254C221.52 314.254 236.026 305.879 236.026 295.548C236.026 285.216 221.52 276.841 203.625 276.841C185.73 276.841 171.224 285.216 171.224 295.548C171.224 305.879 185.73 314.254 203.625 314.254Z" fill="#E0E0E0"/>
<path d="M52.3801 287.457L45.8188 291.245C45.8752 287.661 45.6358 280.875 43.735 272.054C39.3843 251.835 30.5561 248.322 26.2547 240.451C21.735 232.172 27.543 227.209 33.0201 228.061C37.9129 228.814 45.664 234.833 49.543 247.259C54.6611 263.641 53.4009 279.988 52.3801 287.457Z" fill="#10B981"/>
<path opacity="0.5" d="M52.3801 287.457L45.8188 291.245C45.8752 287.661 45.6358 280.875 43.735 272.054C39.3843 251.835 30.5561 248.322 26.2547 240.451C21.735 232.172 27.543 227.209 33.0201 228.061C37.9129 228.814 45.664 234.833 49.543 247.259C54.6611 263.641 53.4009 279.988 52.3801 287.457Z" fill="white"/>
<path d="M48.5217 285.856C48.333 285.829 48.2028 285.655 48.2295 285.466C51.7087 261.128 40.8558 240.159 32.0382 233.042C31.8904 232.922 31.8672 232.706 31.9862 232.557C32.1072 232.408 32.3227 232.386 32.4712 232.505C41.4148 239.725 52.4282 260.959 48.911 285.564C48.8843 285.752 48.7104 285.883 48.5217 285.856Z" fill="white"/>
<path d="M49.0926 289.358L45.819 291.245L45.284 291.555C44.2069 286.662 41.3275 281.558 35.8715 276.088C29.4721 269.674 20.5525 263.683 22.1294 258.298C23.6993 252.912 30.9013 254.334 35.8715 257.523C40.5383 260.522 50.4795 271.582 49.0926 289.358Z" fill="#10B981"/>
<path opacity="0.65" d="M49.0926 289.358L45.819 291.245L45.284 291.555C44.2069 286.662 41.3275 281.558 35.8715 276.088C29.4721 269.674 20.5525 263.683 22.1294 258.298C23.6993 252.912 30.9013 254.334 35.8715 257.523C40.5383 260.522 50.4795 271.582 49.0926 289.358Z" fill="white"/>
<path d="M47.3475 287.842C47.1862 287.819 47.0588 287.684 47.0525 287.515C46.5956 275.588 33.5075 260.15 27.275 257.617C27.0983 257.546 27.0138 257.344 27.0856 257.168C27.156 256.992 27.3553 256.905 27.5341 256.979C34.0693 259.634 47.2665 275.092 47.741 287.488C47.7487 287.679 47.6002 287.839 47.4101 287.846C47.389 287.847 47.3686 287.846 47.3475 287.842Z" fill="white"/>
<path d="M73.3976 323.926L130.205 237.666L91.8868 215.543L35.0796 301.803L73.3976 323.926Z" fill="#10B981"/>
<path opacity="0.2" d="M73.3976 323.926L130.205 237.666L91.8868 215.543L35.0796 301.803L73.3976 323.926Z" fill="white"/>
<path d="M130.204 237.666L73.3975 323.926L96.388 310.652L137.818 247.99L130.204 237.666Z" fill="#10B981"/>
<path opacity="0.2" d="M130.204 237.666L73.3975 323.926L96.388 310.652L137.818 247.99L130.204 237.666Z" fill="black"/>
<path d="M233.292 50.6218L237.046 67.4242L252.477 76.453L248.637 59.481L233.292 50.6218Z" fill="#10B981"/>
<path opacity="0.2" d="M233.292 50.6218L237.046 67.4242L252.477 76.453L248.637 59.481L233.292 50.6218Z" fill="black"/>
<path d="M200.026 133.485L248.636 59.481L233.291 50.6218L291.636 34.1616L302.264 90.4429L286.954 81.6042L238.343 155.609L200.026 133.485Z" fill="#10B981"/>
<path opacity="0.2" d="M200.026 133.485L248.636 59.481L233.291 50.6218L291.636 34.1616L302.264 90.4429L286.954 81.6042L238.343 155.609L200.026 133.485Z" fill="white"/>
<path d="M286.954 81.6042L238.369 155.608L246.974 165.388L290.854 98.6044L306.123 107.425L302.264 90.4429L286.954 81.6042Z" fill="#10B981"/>
<path opacity="0.2" d="M286.954 81.6042L238.369 155.608L246.974 165.388L290.854 98.6044L306.123 107.425L302.264 90.4429L286.954 81.6042Z" fill="black"/>
<path d="M208.631 143.337L200.026 133.557L238.369 155.608L246.974 165.388L208.631 143.337Z" fill="#10B981"/>
<path opacity="0.4" d="M208.631 143.337L200.026 133.557L238.369 155.608L246.974 165.388L208.631 143.337Z" fill="black"/>
<path opacity="0.2" d="M290.854 98.6044L286.955 81.6042L302.264 90.4429L306.123 107.425L290.854 98.6044Z" fill="black"/>
<path d="M231.561 278.518C231.561 282.585 231.529 288.088 231.55 291.591C231.555 292.354 231.56 293.292 231.56 294.54C231.566 294.545 231.566 294.55 231.56 294.556C231.001 298.219 228.292 301.796 223.435 304.6C212.453 310.939 194.646 310.939 183.663 304.6C178.001 301.332 175.261 297.014 175.442 292.732V292.701C175.474 292.338 175.511 291.959 175.559 291.565C175.559 291.549 175.564 291.533 175.564 291.522C176.039 287.358 176.381 283.192 176.615 279.285C176.988 273.084 176.936 270.354 176.886 267.017C176.823 262.898 175.112 259.661 170.766 256.01C166.421 252.352 157.785 239.866 157.785 239.866L215.071 210.421L231.358 262.008C231.358 262.006 231.561 274.45 231.561 278.518Z" fill="#FFA8A7"/>
<path d="M215.511 199.746C215.511 199.746 214.43 204.085 209.311 198.345C204.192 192.605 195.817 183.83 186.993 175.388C182.762 171.342 165.813 157.707 154.44 147.404C150.818 143.666 145.669 141.049 142.131 143.768C138.593 146.488 138.582 153.169 140.811 156.48C142.784 159.412 147.01 163.481 150.238 166.404C150.217 166.581 150.197 166.755 150.176 166.933C149.566 172.26 148.475 178.251 147.958 184.711C147.65 188.557 143.012 193.406 143.074 197.356C144.439 202.966 151.893 209.025 157.164 213.234C162.436 217.443 164.731 219.157 164.672 220.485C164.58 222.522 156.043 215.114 152.245 212.507C152.457 224.596 144.732 226.052 144.732 226.052C145.892 228.379 152.48 233.505 161.844 245.493C165.54 250.226 203.162 219.083 203.162 219.083L212.096 213.348L218.383 202.946L215.511 199.746Z" fill="#FFA8A7"/>
<path d="M212.386 210.414C208.857 214.845 194.995 229 205.903 247.761C204.73 246.646 204.112 245.794 203.861 245.457C202.294 243.389 201.068 241.059 200.194 238.617C200.161 238.526 200.135 238.441 200.103 238.356C197.624 231.212 198.472 223.945 203.093 217.804C206.734 212.978 213.362 208.292 214.247 203.089C214.279 202.896 214.3 202.71 214.311 202.523C214.465 204.145 214.647 207.584 212.386 210.414Z" fill="#F28F8F"/>
<path opacity="0.5" d="M140.117 146.439C138.727 149.62 139.139 153.997 140.81 156.481C142.783 159.412 147.01 163.482 150.237 166.405C150.221 166.546 150.205 166.686 150.188 166.827C151.611 168.048 153.141 169.342 154.819 170.819C158.86 174.375 164.203 178.962 168.236 182.524C170.255 184.307 179.854 192.028 183.334 195.135C177.975 189.258 165.941 178.591 159.885 172.629C155.313 168.127 148.575 161.848 146.379 159.348C144.183 156.847 142.902 155.134 142.13 154.19C139.438 150.891 140.031 147.082 140.117 146.439Z" fill="#F28F8F"/>
<path d="M150.386 231.264C152.283 231.092 154.719 229.686 155.703 228.056C157.12 225.709 157.388 223.885 157.006 220.225C156.908 219.289 156.676 217.6 155.972 215.18C154.716 214.277 153.409 213.306 152.245 212.507C152.456 224.597 144.731 226.052 144.731 226.052C145.257 227.106 146.899 228.738 149.404 231.317C149.733 231.31 150.061 231.294 150.386 231.264Z" fill="#F28F8F"/>
<path d="M144.199 182.419C143.896 182.697 148.176 186.819 148.626 187.07C150.21 187.953 153.24 186.854 154.551 185.758C155.378 185.067 155.982 184.135 156.4 183.142C157.826 179.757 157.129 175.898 156.406 172.297C156.293 171.733 156.132 171.1 155.63 170.819C155.546 172.702 153.884 173.525 152.653 174.655C151.479 175.733 150.305 176.812 149.131 177.89C147.487 179.399 145.843 180.909 144.199 182.419Z" fill="#F28F8F"/>
<path d="M153.929 184.636L176.332 207.248L150.176 185.324L153.929 184.636Z" fill="#F28F8F"/>
<path d="M150.868 203.955C153.037 203.255 154.846 201.507 155.599 199.355C156.241 197.521 156.131 195.521 156.007 193.582C155.901 191.933 155.785 190.252 155.176 188.716L144.696 192.274C143.787 194.031 143.048 195.767 143.073 197.357C143.629 199.644 145.083 201.962 147.134 204.191C148.33 204.393 149.712 204.328 150.868 203.955Z" fill="#F28F8F"/>
<path d="M148.079 166.235C152.685 165.815 155.101 167.836 156.131 171.964C156.521 173.526 156.562 176.001 156.131 179.072C155.7 182.142 152.793 185.819 149.05 185.269C148.99 185.26 148.929 185.251 148.869 185.241C142.817 184.257 142.131 181.006 142.131 175.759C142.131 170.512 143.982 166.609 148.079 166.235Z" fill="#FFA8A7"/>
<path opacity="0.5" d="M153.517 167.452C153.85 167.741 155.803 169.653 155.821 174.948C155.84 180.737 152.936 181.937 149.73 182.452C146.525 182.968 142.202 180.972 142.202 178.073L142.2 178.074C142.477 181.968 143.763 184.411 148.869 185.241C148.93 185.251 148.99 185.26 149.05 185.269C152.793 185.819 155.701 182.141 156.132 179.072C156.563 176.001 156.522 173.525 156.132 171.964C155.626 169.939 154.784 168.424 153.517 167.452Z" fill="#F28F8F"/>
<path d="M148.183 184.685C152.39 184.302 154.598 186.147 155.539 189.919C155.894 191.346 155.932 193.607 155.539 196.412C155.145 199.216 152.489 202.576 149.07 202.073C149.015 202.064 148.96 202.056 148.904 202.047C143.377 201.149 142.75 198.18 142.75 193.386C142.75 188.592 144.441 185.027 148.183 184.685Z" fill="#FFA8A7"/>
<path opacity="0.5" d="M154.047 186.681C154.639 187.56 155.069 189.725 154.721 193.004C154.264 197.3 153.345 199.388 149.585 199.658C145.691 199.938 143.298 198.135 142.887 196.238C143.257 199.363 144.575 201.343 148.905 202.047C148.96 202.056 149.016 202.064 149.07 202.072C152.489 202.575 155.145 199.215 155.539 196.411C155.933 193.607 155.895 191.345 155.539 189.919C155.209 188.597 154.719 187.517 154.047 186.681Z" fill="#F28F8F"/>
<path d="M148.41 210.71C152.775 210.312 156.042 212.386 156.042 216.141V222.879C156.042 226.466 152.878 229.277 149.329 228.754C149.272 228.746 149.215 228.737 149.157 228.727C143.42 227.795 143.489 222.555 143.42 219.803C143.351 217.052 144.526 211.064 148.41 210.71Z" fill="#FFA8A7"/>
<path opacity="0.5" d="M153.916 211.91C155.823 213.906 155.081 217.968 154.933 221.975C154.831 224.754 153.385 227.058 149.585 227.058C145.786 227.058 144.084 224.736 143.568 222.463L143.566 222.458C143.881 225.083 144.977 228.048 149.157 228.727C149.215 228.737 149.273 228.746 149.329 228.754C152.878 229.276 156.042 226.466 156.042 222.879V216.141C156.042 214.289 155.245 212.849 153.916 211.91Z" fill="#F28F8F"/>
<path d="M100.017 209.384L193.925 138.185L232.267 160.307L138.335 231.507L100.017 209.384Z" fill="#10B981"/>
<path d="M232.267 160.307L240.872 170.086L145.948 241.83L138.334 231.507L232.267 160.307Z" fill="#10B981"/>
<path opacity="0.2" d="M232.267 160.307L240.872 170.086L145.948 241.83L138.334 231.507L232.267 160.307Z" fill="black"/>
<path d="M100.017 209.386L107.63 219.709L145.948 241.83L138.335 231.507L100.017 209.386Z" fill="#10B981"/>
<path opacity="0.4" d="M100.017 209.386L107.63 219.709L145.948 241.83L138.335 231.507L100.017 209.386Z" fill="black"/>
<path d="M231.357 262.007C231.357 252.023 232.085 238.626 233.737 227.076C235.388 215.526 235.069 205.64 234.564 202.847C234.058 200.054 233.915 195.995 229.605 190.843C227.574 188.415 223.119 184.875 219.404 180.512C215.656 176.11 212.158 171.222 210.175 168.549C208.192 165.876 203.268 170.179 203.508 178.702C203.703 185.664 208.461 191.756 210.3 194.359C212.542 197.535 214.135 200.603 214.314 202.519C214.465 204.14 214.648 207.575 212.386 210.415C208.859 214.845 194.995 229 205.905 247.762V264.974L231.357 262.007Z" fill="#FFA8A7"/>
<path d="M211.066 173.76C211.066 173.76 215.297 179.5 216.648 180.237C217.999 180.975 218.384 179.293 218.384 179.293L218.379 179.285C216.436 176.555 212.812 171.589 210.174 168.549C210.514 169.121 211.287 171.221 211.066 173.76Z" fill="#FFA8A7"/>
<path opacity="0.6" d="M211.066 173.76C211.066 173.76 215.296 179.502 216.648 180.237C217.913 180.925 218.384 179.293 218.384 179.293L218.379 179.285C216.436 176.555 212.812 171.589 210.174 168.549C210.514 169.121 211.287 171.221 211.066 173.76Z" fill="white"/>
<path d="M218.384 179.293L218.379 179.285C218.384 179.293 217.972 178.641 217.751 178.406C217.944 179.751 216.968 180.374 216.968 180.374C218.081 180.7 218.384 179.293 218.384 179.293Z" fill="#F28F8F"/>
<path d="M176.841 302.828C175.637 300.796 173.634 298.887 170.826 297.265C160.992 291.588 145.047 291.588 135.212 297.265C132.403 298.887 130.401 300.796 129.196 302.828H127.836V307.974H127.854C128.034 311.551 130.482 315.097 135.212 317.827C145.046 323.505 160.991 323.505 170.826 317.827C175.554 315.097 178.021 311.551 178.202 307.973V307.974V302.828H176.841Z" fill="#10B981"/>
<path opacity="0.25" d="M176.841 302.828C175.637 300.796 173.634 298.887 170.826 297.265C160.992 291.588 145.047 291.588 135.212 297.265C132.403 298.887 130.401 300.796 129.196 302.828H127.836V307.974H127.854C128.034 311.551 130.482 315.097 135.212 317.827C145.046 323.505 160.991 323.505 170.826 317.827C175.554 315.097 178.021 311.551 178.202 307.973V307.974V302.828H176.841Z" fill="black"/>
<path opacity="0.1" d="M153.021 293.007C146.575 293.007 140.13 294.426 135.212 297.265C132.404 298.887 130.401 300.796 129.197 302.828H127.836V307.974H127.854C128.036 311.551 130.483 315.097 135.212 317.827C140.13 320.666 146.575 322.086 153.021 322.086V293.007Z" fill="black"/>
<path opacity="0.1" d="M139.266 295.367C137.833 295.908 136.472 296.539 135.213 297.265C132.405 298.887 130.402 300.796 129.198 302.828H127.837V307.974H127.855C128.037 311.551 130.484 315.097 135.213 317.827C136.472 318.554 137.833 319.184 139.266 319.725V295.367Z" fill="black"/>
<path opacity="0.5" d="M166.773 295.367C168.206 295.908 169.567 296.539 170.826 297.265C173.634 298.887 175.637 300.796 176.841 302.828H178.202V307.974V307.973C178.02 311.55 175.555 315.096 170.826 317.827C169.567 318.554 168.206 319.184 166.773 319.725V295.367Z" fill="#10B981"/>
<path d="M135.213 292.549C125.378 298.227 125.379 307.433 135.213 313.111C143.818 318.079 157.1 318.701 166.875 314.975L166.876 314.975C167.007 314.925 167.136 314.875 167.266 314.822C168.518 314.325 169.711 313.755 170.826 313.111C179.027 308.376 180.39 301.189 174.912 295.638C174.91 295.636 174.909 295.636 174.909 295.636C173.82 294.531 172.458 293.492 170.826 292.549C160.993 286.872 145.047 286.872 135.213 292.549Z" fill="#10B981"/>
<path opacity="0.2" d="M135.213 292.549C125.378 298.227 125.379 307.433 135.213 313.111C143.818 318.079 157.1 318.701 166.875 314.975L166.876 314.975C167.007 314.925 167.136 314.875 167.266 314.822C168.518 314.325 169.711 313.755 170.826 313.111C179.027 308.376 180.39 301.189 174.912 295.638C174.91 295.636 174.909 295.636 174.909 295.636C173.82 294.531 172.458 293.492 170.826 292.549C160.993 286.872 145.047 286.872 135.213 292.549Z" fill="black"/>
<path opacity="0.5" d="M174.912 295.639C175.018 295.758 178.457 299.387 177.546 304.61C176.675 309.607 169.678 313.812 167.267 314.823C168.518 314.325 169.712 313.756 170.827 313.112C179.028 308.376 180.391 301.189 174.912 295.639Z" fill="#F5F5F5"/>
<path opacity="0.5" d="M131.127 310.023C131.022 309.904 127.582 306.274 128.494 301.053C129.365 296.056 136.362 291.85 138.774 290.839C137.522 291.337 136.329 291.907 135.213 292.551C127.013 297.285 125.65 304.473 131.127 310.023Z" fill="#F5F5F5"/>
<path d="M169.581 312.368C178.723 307.09 178.723 298.532 169.581 293.254C160.439 287.976 145.617 287.976 136.475 293.254C127.333 298.532 127.333 307.09 136.475 312.368C145.617 317.646 160.439 317.646 169.581 312.368Z" fill="#10B981"/>
<path opacity="0.4" d="M169.581 312.368C178.723 307.09 178.723 298.532 169.581 293.254C160.439 287.976 145.617 287.976 136.475 293.254C127.333 298.532 127.333 307.09 136.475 312.368C145.617 317.646 160.439 317.646 169.581 312.368Z" fill="white"/>
<path opacity="0.2" d="M175.374 306.847C177.256 303.369 176.642 299.535 173.536 296.283C172.962 295.682 172.299 295.101 171.553 294.547C170.974 294.113 170.34 293.696 169.658 293.298C169.284 293.079 168.9 292.87 168.505 292.673C169.477 294.273 169.121 295.989 163.608 296.311C152.818 296.941 166.491 307.252 166.491 307.252C166.491 307.252 173.446 303.894 175.374 306.847Z" fill="white"/>
<path opacity="0.5" d="M174.261 303.995C175.881 303.813 176.683 302.148 176.054 300.276C175.424 298.403 173.602 297.032 171.982 297.213C170.363 297.395 169.561 299.06 170.19 300.933C170.819 302.805 172.642 304.176 174.261 303.995Z" fill="white"/>
<path d="M157.196 312.588C156.664 308.582 139.15 297.489 139.15 297.489C139.15 297.489 135.266 295.931 136.556 293.216C135.882 293.602 135.258 294.007 134.683 294.427C134.278 294.719 133.9 295.019 133.546 295.328C128.332 299.843 128.325 305.773 133.548 310.294C133.9 310.601 134.281 310.903 134.683 311.196C135.22 311.588 135.797 311.964 136.42 312.326C137.014 312.675 137.635 312.997 138.276 313.298C138.786 313.54 139.317 313.767 139.854 313.978C140.389 314.19 140.937 314.387 141.496 314.57C143.16 315.117 144.917 315.534 146.721 315.826C147.11 315.888 147.504 315.945 147.897 315.996C149.618 316.217 151.367 316.328 153.122 316.324C155.275 316.32 157.427 316.145 159.513 315.8C159.512 315.798 156.694 315.223 157.196 312.588Z" fill="#10B981"/>
<path opacity="0.3" d="M157.196 312.588C156.664 308.582 139.15 297.489 139.15 297.489C139.15 297.489 135.266 295.931 136.556 293.216C135.882 293.602 135.258 294.007 134.683 294.427C134.278 294.719 133.9 295.019 133.546 295.328C128.332 299.843 128.325 305.773 133.548 310.294C133.9 310.601 134.281 310.903 134.683 311.196C135.22 311.588 135.797 311.964 136.42 312.326C137.014 312.675 137.635 312.997 138.276 313.298C138.786 313.54 139.317 313.767 139.854 313.978C140.389 314.19 140.937 314.387 141.496 314.57C143.16 315.117 144.917 315.534 146.721 315.826C147.11 315.888 147.504 315.945 147.897 315.996C149.618 316.217 151.367 316.328 153.122 316.324C155.275 316.32 157.427 316.145 159.513 315.8C159.512 315.798 156.694 315.223 157.196 312.588Z" fill="white"/>
<path d="M140.688 295.69C134.155 299.462 133.89 305.48 139.891 309.435C140.146 309.603 140.414 309.769 140.691 309.93C147.502 313.862 158.541 313.862 165.352 309.93C172.163 305.998 172.165 299.622 165.354 295.691C165.077 295.53 164.789 295.376 164.498 295.229C157.647 291.764 147.221 291.919 140.688 295.69Z" fill="#10B981"/>
<path opacity="0.2" d="M140.688 295.69C134.155 299.462 133.89 305.48 139.891 309.435C140.146 309.603 140.414 309.769 140.691 309.93C147.502 313.862 158.541 313.862 165.352 309.93C172.163 305.998 172.165 299.622 165.354 295.691C165.077 295.53 164.789 295.376 164.498 295.229C157.647 291.764 147.221 291.919 140.688 295.69Z" fill="black"/>
<path d="M153.029 312.435C162.236 312.435 169.699 308.126 169.699 302.81C169.699 297.495 162.236 293.186 153.029 293.186C143.823 293.186 136.359 297.495 136.359 302.81C136.359 308.126 143.823 312.435 153.029 312.435Z" fill="#10B981"/>
<path opacity="0.5" d="M153.029 312.435C162.236 312.435 169.699 308.126 169.699 302.81C169.699 297.495 162.236 293.186 153.029 293.186C143.823 293.186 136.359 297.495 136.359 302.81C136.359 308.126 143.823 312.435 153.029 312.435Z" fill="black"/>
<path d="M141.242 298.689C147.752 294.93 158.307 294.93 164.817 298.689C167.48 300.226 169.052 302.153 169.536 304.152C169.051 306.151 167.479 308.078 164.817 309.615C158.307 313.374 147.752 313.374 141.242 309.615C138.58 308.078 137.008 306.151 136.523 304.152C137.008 302.153 138.58 300.226 141.242 298.689Z" fill="#10B981"/>
<path opacity="0.35" d="M141.242 298.689C147.752 294.93 158.307 294.93 164.817 298.689C167.48 300.226 169.052 302.153 169.536 304.152C169.051 306.151 167.479 308.078 164.817 309.615C158.307 313.374 147.752 313.374 141.242 309.615C138.58 308.078 137.008 306.151 136.523 304.152C137.008 302.153 138.58 300.226 141.242 298.689Z" fill="black"/>
<path d="M163.526 305.709C163.525 305.385 163.53 304.06 163.528 303.72C163.521 302.904 162.962 302.112 161.748 301.401C161.735 301.392 161.719 301.382 161.706 301.375C159.467 300.082 157.154 300.251 155.094 300.77C155.087 300.771 155.082 300.771 155.076 300.773C154.2 300.994 153.368 301.278 152.609 301.539C151.559 301.903 150.698 302.2 149.961 302.358C149.959 302.36 149.959 302.36 149.957 302.361C149.496 302.459 149.083 302.505 148.698 302.481C148.33 302.459 147.988 302.367 147.655 302.204C147.683 302.185 147.709 302.165 147.738 302.146C147.82 302.091 147.908 302.038 148 301.985C148.233 301.851 148.465 301.734 148.698 301.638C149.996 301.089 151.246 301.114 152.404 301.554L154.542 299.398V297.42C152.642 296.775 150.668 296.708 148.698 297.208C148.077 297.365 147.457 297.582 146.84 297.85L144.703 296.616L142.151 298.089V300.067L143.025 300.571C142.775 300.959 142.648 301.346 142.65 301.725C142.651 302.054 142.653 303.368 142.653 303.7C142.65 304.517 143.238 305.305 144.469 306.015C145.657 306.702 146.839 306.988 147.99 307.03L147.992 307.028C148.225 307.039 148.463 307.036 148.696 307.026C150.031 306.962 151.309 306.605 152.48 306.208C152.73 306.125 152.975 306.039 153.216 305.955L151.065 308.112V310.09C154.102 311.307 157.067 310.729 159.308 309.733L161.418 310.952L163.969 309.479V307.501L163.093 306.995C163.38 306.565 163.528 306.134 163.526 305.709ZM158.148 305.539C157.952 305.651 157.753 305.751 157.556 305.835C156.039 306.484 154.476 306.346 153.385 305.897C155.382 305.193 157.05 304.576 158.471 305.333C158.372 305.402 158.265 305.471 158.148 305.539Z" fill="#10B981"/>
<path d="M155.094 300.77C155.088 300.771 155.083 300.771 155.077 300.773C154.201 300.994 153.369 301.278 152.609 301.539C151.559 301.903 150.698 302.2 149.961 302.358C149.959 302.36 149.959 302.36 149.957 302.361C149.497 302.459 149.083 302.505 148.698 302.481C148.267 302.455 147.87 302.341 147.485 302.119C146.664 301.645 146.546 300.951 147.739 300.168C147.82 300.113 147.908 300.06 148.001 300.007C148.234 299.872 148.465 299.756 148.698 299.66C149.997 299.111 151.247 299.136 152.405 299.576L154.542 297.42C152.643 296.775 150.668 296.708 148.698 297.208C148.077 297.365 147.457 297.582 146.84 297.85L144.703 296.616L142.152 298.089L144.265 299.309C144.265 299.309 144.258 299.315 144.245 299.325C142.101 300.954 142.057 302.645 144.469 304.037C145.658 304.724 146.84 305.009 147.991 305.051L147.993 305.05C148.226 305.059 148.464 305.057 148.697 305.047C150.031 304.983 151.309 304.626 152.48 304.229C154.928 303.411 156.911 302.446 158.559 303.398C159.665 304.036 159.358 304.838 158.145 305.538C157.95 305.651 157.751 305.75 157.553 305.834C156.002 306.499 154.399 306.339 153.305 305.865L151.064 308.111C154.102 309.328 157.067 308.75 159.308 307.754L161.418 308.973L163.97 307.5L161.859 306.282C163.981 304.64 164.225 302.852 161.747 301.401C161.734 301.391 161.718 301.382 161.705 301.374C159.468 300.082 157.155 300.251 155.094 300.77Z" fill="#10B981"/>
<g opacity="0.3">
<path d="M155.094 300.77C155.088 300.771 155.083 300.771 155.077 300.773C154.201 300.994 153.369 301.278 152.609 301.539C151.559 301.903 150.698 302.2 149.961 302.358C149.959 302.36 149.959 302.36 149.957 302.361C149.497 302.459 149.083 302.505 148.698 302.481C148.267 302.455 147.87 302.341 147.485 302.119C146.664 301.645 146.546 300.951 147.739 300.168C147.82 300.113 147.908 300.06 148.001 300.007C148.234 299.872 148.465 299.756 148.698 299.66C149.997 299.111 151.247 299.136 152.405 299.576L154.542 297.42C152.643 296.775 150.668 296.708 148.698 297.208C148.077 297.365 147.457 297.582 146.84 297.85L144.703 296.616L142.152 298.089L144.265 299.309C144.265 299.309 144.258 299.315 144.245 299.325C142.101 300.954 142.057 302.645 144.469 304.037C145.658 304.724 146.84 305.009 147.991 305.051L147.993 305.05C148.226 305.059 148.464 305.057 148.697 305.047C150.031 304.983 151.309 304.626 152.48 304.229C154.928 303.411 156.911 302.446 158.559 303.398C159.665 304.036 159.358 304.838 158.145 305.538C157.95 305.651 157.751 305.75 157.553 305.834C156.002 306.499 154.399 306.339 153.305 305.865L151.064 308.111C154.102 309.328 157.067 308.75 159.308 307.754L161.418 308.973L163.97 307.5L161.859 306.282C163.981 304.64 164.225 302.852 161.747 301.401C161.734 301.391 161.718 301.382 161.705 301.374C159.468 300.082 157.155 300.251 155.094 300.77Z" fill="white"/>
</g>
<path opacity="0.45" d="M142.154 298.088L144.728 296.921L146.841 297.85L144.704 296.616L142.154 298.088Z" fill="#F5F5F5"/>
<path opacity="0.45" d="M148.403 297.288C149.778 296.99 152.004 296.906 153.886 297.473L152.405 299.575L154.542 297.42C152.267 296.694 150.252 296.743 148.403 297.288Z" fill="#F5F5F5"/>
<path opacity="0.45" d="M161.706 301.375C161.719 301.382 161.735 301.391 161.747 301.401C164.226 302.852 163.981 304.64 161.859 306.282C163.739 304.234 163.4 302.805 161.357 301.626C159.319 300.449 156.709 300.462 155.093 300.769C157.155 300.251 159.468 300.082 161.706 301.375Z" fill="#F5F5F5"/>
<path opacity="0.45" d="M161.86 306.282L163.479 307.525L161.42 308.974L163.971 307.501L161.86 306.282Z" fill="#F5F5F5"/>
<path opacity="0.45" d="M157.555 305.835C155.315 306.897 153.491 306.189 153.491 306.189L151.067 308.112L153.308 305.865C154.402 306.339 156.004 306.5 157.555 305.835Z" fill="#F5F5F5"/>
<path opacity="0.45" d="M149.957 302.361C148.993 302.74 147.604 302.676 146.902 302.072C146.165 301.437 146.638 300.758 147.738 300.168C146.545 300.951 146.664 301.645 147.485 302.119C147.87 302.341 148.266 302.455 148.698 302.481C149.083 302.505 149.497 302.459 149.957 302.361Z" fill="#F5F5F5"/>
<path opacity="0.45" d="M144.245 299.325C144.065 299.484 142.53 300.916 143.207 302.347C143.927 303.873 146.178 304.852 147.994 305.05L147.991 305.051C146.84 305.009 145.658 304.723 144.47 304.037C142.057 302.644 142.102 300.954 144.245 299.325Z" fill="#F5F5F5"/>
<path d="M181.606 295.581C180.401 293.548 178.398 291.639 175.59 290.018C165.756 284.34 149.811 284.34 139.976 290.018C137.168 291.639 135.165 293.548 133.96 295.581H132.6V300.726H132.618C132.799 304.303 135.247 307.849 139.976 310.579C149.81 316.257 165.755 316.257 175.59 310.579C180.319 307.849 182.785 304.303 182.966 300.726V300.726V295.581H181.606Z" fill="#10B981"/>
<path opacity="0.25" d="M181.606 295.581C180.401 293.548 178.398 291.639 175.59 290.018C165.756 284.34 149.811 284.34 139.976 290.018C137.168 291.639 135.165 293.548 133.96 295.581H132.6V300.726H132.618C132.799 304.303 135.247 307.849 139.976 310.579C149.81 316.257 165.755 316.257 175.59 310.579C180.319 307.849 182.785 304.303 182.966 300.726V300.726V295.581H181.606Z" fill="black"/>
<path opacity="0.1" d="M157.785 285.76C151.34 285.76 144.894 287.179 139.976 290.018C137.168 291.64 135.165 293.549 133.961 295.581H132.601V300.727H132.618C132.8 304.304 135.248 307.85 139.976 310.58C144.894 313.419 151.34 314.839 157.785 314.839V285.76Z" fill="black"/>
<path opacity="0.1" d="M144.029 288.12C142.596 288.66 141.235 289.291 139.976 290.018C137.168 291.639 135.165 293.548 133.961 295.581H132.601V300.726H132.618C132.8 304.303 135.248 307.849 139.976 310.579C141.235 311.306 142.596 311.937 144.029 312.477V288.12Z" fill="black"/>
<path opacity="0.5" d="M171.537 288.12C172.97 288.66 174.331 289.291 175.59 290.018C178.398 291.639 180.401 293.548 181.605 295.581H182.966V300.726V300.726C182.784 304.303 180.319 307.849 175.59 310.579C174.331 311.306 172.97 311.937 171.537 312.477V288.12Z" fill="#10B981"/>
<path d="M139.976 285.302C130.141 290.981 130.143 300.186 139.976 305.864C148.581 310.832 161.864 311.454 171.639 307.728L171.64 307.727C171.77 307.677 171.9 307.627 172.03 307.575C173.282 307.077 174.475 306.508 175.59 305.863C183.791 301.128 185.154 293.941 179.675 288.391C179.674 288.389 179.673 288.388 179.673 288.388C178.584 287.283 177.222 286.244 175.59 285.302C165.757 279.625 149.811 279.625 139.976 285.302Z" fill="#10B981"/>
<path opacity="0.2" d="M139.976 285.302C130.141 290.981 130.143 300.186 139.976 305.864C148.581 310.832 161.864 311.454 171.639 307.728L171.64 307.727C171.77 307.677 171.9 307.627 172.03 307.575C173.282 307.077 174.475 306.508 175.59 305.863C183.791 301.128 185.154 293.941 179.675 288.391C179.674 288.389 179.673 288.388 179.673 288.388C178.584 287.283 177.222 286.244 175.59 285.302C165.757 279.625 149.811 279.625 139.976 285.302Z" fill="black"/>
<path opacity="0.5" d="M179.676 288.391C179.782 288.51 183.222 292.14 182.31 297.362C181.439 302.359 174.442 306.565 172.031 307.575C173.282 307.078 174.476 306.508 175.591 305.864C183.792 301.129 185.155 293.942 179.676 288.391Z" fill="#F5F5F5"/>
<path opacity="0.5" d="M135.892 302.775C135.786 302.656 132.346 299.027 133.258 293.805C134.129 288.808 141.126 284.603 143.538 283.592C142.286 284.089 141.093 284.659 139.978 285.303C131.776 290.038 130.414 297.225 135.892 302.775Z" fill="#F5F5F5"/>
<path d="M174.345 305.121C183.487 299.843 183.487 291.285 174.345 286.007C165.203 280.729 150.381 280.729 141.239 286.007C132.097 291.285 132.097 299.843 141.239 305.121C150.381 310.399 165.203 310.399 174.345 305.121Z" fill="#10B981"/>
<path opacity="0.4" d="M174.345 305.121C183.487 299.843 183.487 291.285 174.345 286.007C165.203 280.729 150.381 280.729 141.239 286.007C132.097 291.285 132.097 299.843 141.239 305.121C150.381 310.399 165.203 310.399 174.345 305.121Z" fill="white"/>
<path opacity="0.2" d="M180.138 299.6C182.02 296.122 181.406 292.288 178.3 289.036C177.726 288.435 177.063 287.854 176.317 287.3C175.738 286.866 175.104 286.449 174.422 286.051C174.048 285.832 173.664 285.624 173.269 285.426C174.242 287.026 173.885 288.742 168.372 289.064C157.582 289.694 171.255 300.005 171.255 300.005C171.255 300.005 178.21 296.647 180.138 299.6Z" fill="white"/>
<path opacity="0.5" d="M179.025 296.748C180.645 296.566 181.447 294.901 180.818 293.029C180.188 291.156 178.366 289.785 176.747 289.966C175.127 290.148 174.325 291.813 174.954 293.686C175.584 295.558 177.406 296.929 179.025 296.748Z" fill="white"/>
<path d="M161.959 305.341C161.428 301.334 143.913 290.242 143.913 290.242C143.913 290.242 140.03 288.684 141.319 285.969C140.646 286.355 140.021 286.76 139.446 287.18C139.041 287.472 138.662 287.772 138.308 288.081C133.094 292.596 133.087 298.526 138.31 303.047C138.662 303.354 139.043 303.656 139.446 303.949C139.983 304.341 140.56 304.717 141.183 305.079C141.777 305.428 142.398 305.75 143.038 306.051C143.549 306.293 144.08 306.52 144.617 306.731C145.152 306.943 145.7 307.14 146.259 307.323C147.923 307.87 149.679 308.286 151.484 308.579C151.873 308.641 152.267 308.698 152.659 308.749C154.38 308.97 156.129 309.081 157.884 309.077C160.037 309.073 162.189 308.898 164.275 308.553C164.276 308.551 161.459 307.976 161.959 305.341Z" fill="#10B981"/>
<path opacity="0.3" d="M161.959 305.341C161.428 301.334 143.913 290.242 143.913 290.242C143.913 290.242 140.03 288.684 141.319 285.969C140.646 286.355 140.021 286.76 139.446 287.18C139.041 287.472 138.662 287.772 138.308 288.081C133.094 292.596 133.087 298.526 138.31 303.047C138.662 303.354 139.043 303.656 139.446 303.949C139.983 304.341 140.56 304.717 141.183 305.079C141.777 305.428 142.398 305.75 143.038 306.051C143.549 306.293 144.08 306.52 144.617 306.731C145.152 306.943 145.7 307.14 146.259 307.323C147.923 307.87 149.679 308.286 151.484 308.579C151.873 308.641 152.267 308.698 152.659 308.749C154.38 308.97 156.129 309.081 157.884 309.077C160.037 309.073 162.189 308.898 164.275 308.553C164.276 308.551 161.459 307.976 161.959 305.341Z" fill="white"/>
<path d="M145.452 288.443C138.919 292.215 138.654 298.233 144.655 302.188C144.91 302.356 145.177 302.522 145.455 302.683C152.266 306.615 163.305 306.615 170.116 302.683C176.927 298.75 176.929 292.375 170.118 288.444C169.841 288.283 169.553 288.129 169.262 287.982C162.411 284.517 151.986 284.671 145.452 288.443Z" fill="#10B981"/>
<path opacity="0.2" d="M145.452 288.443C138.919 292.215 138.654 298.233 144.655 302.188C144.91 302.356 145.177 302.522 145.455 302.683C152.266 306.615 163.305 306.615 170.116 302.683C176.927 298.75 176.929 292.375 170.118 288.444C169.841 288.283 169.553 288.129 169.262 287.982C162.411 284.517 151.986 284.671 145.452 288.443Z" fill="black"/>
<path d="M146.006 288.757C139.496 292.515 139.496 298.609 146.006 302.368C152.516 306.127 163.071 306.127 169.582 302.368C176.091 298.609 176.091 292.515 169.582 288.757C163.071 284.999 152.516 284.999 146.006 288.757Z" fill="#10B981"/>
<path opacity="0.5" d="M146.006 288.757C139.496 292.515 139.496 298.609 146.006 302.368C152.516 306.127 163.071 306.127 169.582 302.368C176.091 298.609 176.091 292.515 169.582 288.757C163.071 284.999 152.516 284.999 146.006 288.757Z" fill="black"/>
<path d="M146.006 291.442C152.515 287.683 163.07 287.683 169.581 291.442C172.243 292.979 173.815 294.906 174.3 296.905C173.815 298.904 172.243 300.831 169.581 302.368C163.071 306.127 152.516 306.127 146.006 302.368C143.343 300.831 141.771 298.903 141.287 296.905C141.772 294.906 143.344 292.979 146.006 291.442Z" fill="#10B981"/>
<path opacity="0.35" d="M146.006 291.442C152.515 287.683 163.07 287.683 169.581 291.442C172.243 292.979 173.815 294.906 174.3 296.905C173.815 298.904 172.243 300.831 169.581 302.368C163.071 306.127 152.516 306.127 146.006 302.368C143.343 300.831 141.771 298.903 141.287 296.905C141.772 294.906 143.344 292.979 146.006 291.442Z" fill="black"/>
<path d="M168.29 298.462C168.289 298.138 168.294 296.813 168.292 296.473C168.286 295.657 167.726 294.865 166.512 294.154C166.498 294.145 166.483 294.135 166.47 294.128C164.231 292.835 161.918 293.004 159.858 293.523C159.851 293.524 159.846 293.524 159.84 293.526C158.964 293.747 158.132 294.031 157.373 294.292C156.323 294.656 155.462 294.953 154.725 295.111C154.723 295.113 154.723 295.113 154.721 295.114C154.261 295.212 153.847 295.258 153.462 295.234C153.094 295.212 152.751 295.12 152.419 294.957C152.447 294.938 152.473 294.918 152.502 294.899C152.584 294.844 152.672 294.792 152.764 294.738C152.997 294.604 153.229 294.488 153.462 294.391C154.761 293.842 156.01 293.867 157.168 294.307L159.306 292.151V290.173C157.406 289.528 155.432 289.461 153.462 289.961C152.841 290.118 152.221 290.335 151.604 290.603L149.467 289.369L146.916 290.842V292.82L147.79 293.325C147.54 293.713 147.413 294.099 147.414 294.479C147.416 294.808 147.418 296.122 147.417 296.454C147.415 297.271 148.003 298.059 149.234 298.769C150.422 299.456 151.604 299.741 152.755 299.783L152.757 299.781C152.99 299.791 153.228 299.789 153.462 299.779C154.796 299.715 156.074 299.358 157.245 298.961C157.496 298.878 157.74 298.792 157.981 298.708L155.83 300.865V302.843C158.867 304.06 161.832 303.482 164.073 302.486L166.183 303.705L168.734 302.232V300.254L167.858 299.748C168.144 299.318 168.292 298.887 168.29 298.462ZM162.911 298.292C162.715 298.405 162.517 298.504 162.319 298.588C160.802 299.237 159.24 299.099 158.148 298.65C160.146 297.946 161.813 297.329 163.235 298.086C163.135 298.155 163.028 298.224 162.911 298.292Z" fill="#10B981"/>
<path d="M159.858 293.522C159.852 293.524 159.847 293.524 159.841 293.525C158.965 293.746 158.133 294.031 157.373 294.291C156.324 294.656 155.463 294.952 154.725 295.11C154.723 295.112 154.723 295.112 154.721 295.113C154.262 295.211 153.848 295.257 153.463 295.233C153.031 295.208 152.635 295.093 152.25 294.871C151.429 294.397 151.31 293.703 152.502 292.92C152.584 292.865 152.672 292.813 152.764 292.759C152.997 292.625 153.229 292.508 153.462 292.412C154.761 291.863 156.01 291.888 157.168 292.328L159.306 290.172C157.406 289.528 155.432 289.46 153.462 289.96C152.841 290.118 152.221 290.334 151.604 290.603L149.467 289.369L146.916 290.841L149.029 292.061C149.029 292.061 149.022 292.068 149.009 292.078C146.865 293.707 146.821 295.397 149.234 296.789C150.422 297.476 151.604 297.762 152.755 297.803L152.757 297.802C152.99 297.812 153.228 297.81 153.461 297.799C154.795 297.736 156.074 297.378 157.244 296.982C159.692 296.164 161.675 295.199 163.323 296.15C164.429 296.788 164.122 297.59 162.909 298.29C162.714 298.404 162.515 298.502 162.317 298.587C160.766 299.251 159.164 299.092 158.069 298.617L155.829 300.864C158.866 302.081 161.831 301.503 164.071 300.507L166.182 301.725L168.732 300.252L166.622 299.034C168.744 297.392 168.988 295.604 166.51 294.153C166.496 294.143 166.481 294.134 166.468 294.126C164.232 292.835 161.918 293.004 159.858 293.522Z" fill="#10B981"/>
<g opacity="0.3">
<path d="M159.858 293.522C159.852 293.524 159.847 293.524 159.841 293.525C158.965 293.746 158.133 294.031 157.373 294.291C156.324 294.656 155.463 294.952 154.725 295.11C154.723 295.112 154.723 295.112 154.721 295.113C154.262 295.211 153.848 295.257 153.463 295.233C153.031 295.208 152.635 295.093 152.25 294.871C151.429 294.397 151.31 293.703 152.502 292.92C152.584 292.865 152.672 292.813 152.764 292.759C152.997 292.625 153.229 292.508 153.462 292.412C154.761 291.863 156.01 291.888 157.168 292.328L159.306 290.172C157.406 289.528 155.432 289.46 153.462 289.96C152.841 290.118 152.221 290.334 151.604 290.603L149.467 289.369L146.916 290.841L149.029 292.061C149.029 292.061 149.022 292.068 149.009 292.078C146.865 293.707 146.821 295.397 149.234 296.789C150.422 297.476 151.604 297.762 152.755 297.803L152.757 297.802C152.99 297.812 153.228 297.81 153.461 297.799C154.795 297.736 156.074 297.378 157.244 296.982C159.692 296.164 161.675 295.199 163.323 296.15C164.429 296.788 164.122 297.59 162.909 298.29C162.714 298.404 162.515 298.502 162.317 298.587C160.766 299.251 159.164 299.092 158.069 298.617L155.829 300.864C158.866 302.081 161.831 301.503 164.071 300.507L166.182 301.725L168.732 300.252L166.622 299.034C168.744 297.392 168.988 295.604 166.51 294.153C166.496 294.143 166.481 294.134 166.468 294.126C164.232 292.835 161.918 293.004 159.858 293.522Z" fill="white"/>
</g>
<path opacity="0.45" d="M146.917 290.841L149.493 289.674L151.605 290.603L149.468 289.369L146.917 290.841Z" fill="#F5F5F5"/>
<path opacity="0.45" d="M153.167 290.041C154.543 289.743 156.768 289.659 158.65 290.226L157.169 292.328L159.307 290.173C157.031 289.446 155.016 289.496 153.167 290.041Z" fill="#F5F5F5"/>
<path opacity="0.45" d="M166.471 294.128C166.484 294.135 166.499 294.145 166.512 294.154C168.99 295.605 168.746 297.394 166.624 299.035C168.504 296.987 168.165 295.558 166.122 294.379C164.084 293.203 161.474 293.215 159.858 293.522C161.919 293.004 164.232 292.835 166.471 294.128Z" fill="#F5F5F5"/>
<path opacity="0.45" d="M166.625 299.035L168.242 300.279L166.185 301.727L168.735 300.254L166.625 299.035Z" fill="#F5F5F5"/>
<path opacity="0.45" d="M162.319 298.587C160.078 299.65 158.253 298.942 158.253 298.942L155.83 300.865L158.071 298.618C159.165 299.092 160.767 299.252 162.319 298.587Z" fill="#F5F5F5"/>
<path opacity="0.45" d="M154.721 295.113C153.758 295.492 152.369 295.427 151.667 294.823C150.93 294.189 151.403 293.51 152.503 292.92C151.31 293.702 151.429 294.397 152.25 294.87C152.636 295.093 153.032 295.207 153.463 295.232C153.848 295.257 154.262 295.211 154.721 295.113Z" fill="#F5F5F5"/>
<path opacity="0.45" d="M149.01 292.078C148.829 292.237 147.294 293.669 147.971 295.1C148.691 296.626 150.941 297.605 152.758 297.803L152.756 297.804C151.605 297.762 150.423 297.476 149.234 296.79C146.822 295.397 146.866 293.707 149.01 292.078Z" fill="#F5F5F5"/>
<path d="M175.887 287.107C174.683 285.074 172.68 283.165 169.872 281.544C160.037 275.866 144.093 275.866 134.258 281.544C131.45 283.165 129.447 285.074 128.242 287.107H126.882V292.252H126.9C127.081 295.829 129.529 299.375 134.258 302.105C144.092 307.782 160.037 307.782 169.872 302.105C174.601 299.375 177.067 295.829 177.248 292.251V287.106L175.887 287.107Z" fill="#10B981"/>
<path opacity="0.25" d="M175.887 287.107C174.683 285.074 172.68 283.165 169.872 281.544C160.037 275.866 144.093 275.866 134.258 281.544C131.45 283.165 129.447 285.074 128.242 287.107H126.882V292.252H126.9C127.081 295.829 129.529 299.375 134.258 302.105C144.092 307.782 160.037 307.782 169.872 302.105C174.601 299.375 177.067 295.829 177.248 292.251V287.106L175.887 287.107Z" fill="black"/>
<path opacity="0.1" d="M152.066 277.285C145.621 277.285 139.175 278.704 134.257 281.544C131.449 283.165 129.446 285.074 128.242 287.107H126.881V292.252H126.898C127.08 295.829 129.528 299.375 134.257 302.105C139.174 304.944 145.62 306.363 152.065 306.363L152.066 277.285Z" fill="black"/>
<path opacity="0.1" d="M138.311 279.646C136.877 280.186 135.517 280.817 134.258 281.544C131.45 283.165 129.447 285.074 128.242 287.107H126.881V292.252H126.899C127.081 295.829 129.528 299.375 134.257 302.105C135.516 302.831 136.877 303.462 138.31 304.003V279.646H138.311Z" fill="black"/>
<path opacity="0.5" d="M165.818 279.646C167.252 280.186 168.613 280.817 169.871 281.544C172.68 283.165 174.682 285.074 175.886 287.107H177.247V292.252C177.065 295.829 174.6 299.375 169.871 302.105C168.613 302.832 167.251 303.463 165.818 304.003V279.646Z" fill="#10B981"/>
<path d="M134.257 276.828C124.423 282.506 124.424 291.712 134.257 297.39C142.862 302.358 156.145 302.98 165.92 299.253L165.921 299.253C166.052 299.203 166.181 299.153 166.311 299.101C167.563 298.603 168.756 298.033 169.871 297.389C178.072 292.654 179.435 285.467 173.957 279.917C173.956 279.915 173.955 279.914 173.955 279.914C172.866 278.809 171.504 277.77 169.871 276.828C160.038 271.151 144.092 271.151 134.257 276.828Z" fill="#10B981"/>
<path opacity="0.2" d="M134.257 276.828C124.423 282.506 124.424 291.712 134.257 297.39C142.862 302.358 156.145 302.98 165.92 299.253L165.921 299.253C166.052 299.203 166.181 299.153 166.311 299.101C167.563 298.603 168.756 298.033 169.871 297.389C178.072 292.654 179.435 285.467 173.957 279.917C173.956 279.915 173.955 279.914 173.955 279.914C172.866 278.809 171.504 277.77 169.871 276.828C160.038 271.151 144.092 271.151 134.257 276.828Z" fill="black"/>
<path opacity="0.5" d="M173.956 279.917C174.062 280.036 177.502 283.666 176.59 288.888C175.719 293.885 168.722 298.09 166.311 299.101C167.563 298.603 168.756 298.033 169.871 297.389C178.072 292.655 179.435 285.468 173.956 279.917Z" fill="#F5F5F5"/>
<path opacity="0.5" d="M130.173 294.301C130.067 294.182 126.627 290.553 127.539 285.331C128.41 280.334 135.407 276.128 137.819 275.117C136.567 275.615 135.374 276.184 134.259 276.828C126.057 281.564 124.694 288.751 130.173 294.301Z" fill="#F5F5F5"/>
<path d="M152.074 300.604C165.003 300.604 175.483 294.553 175.483 287.089C175.483 279.625 165.003 273.574 152.074 273.574C139.145 273.574 128.665 279.625 128.665 287.089C128.665 294.553 139.145 300.604 152.074 300.604Z" fill="#10B981"/>
<path opacity="0.4" d="M152.074 300.604C165.003 300.604 175.483 294.553 175.483 287.089C175.483 279.625 165.003 273.574 152.074 273.574C139.145 273.574 128.665 279.625 128.665 287.089C128.665 294.553 139.145 300.604 152.074 300.604Z" fill="white"/>
<path opacity="0.2" d="M129.728 291.126C127.846 287.648 128.46 283.814 131.566 280.562C132.141 279.961 132.803 279.38 133.549 278.826C134.128 278.392 134.762 277.975 135.444 277.577C135.818 277.358 136.201 277.15 136.598 276.952C135.625 278.552 135.982 280.268 141.495 280.59C152.284 281.22 138.611 291.531 138.611 291.531C138.611 291.531 131.656 288.173 129.728 291.126Z" fill="white"/>
<path opacity="0.5" d="M130.841 288.274C129.222 288.092 128.419 286.427 129.048 284.555C129.678 282.682 131.501 281.311 133.12 281.492C134.739 281.674 135.541 283.339 134.912 285.212C134.283 287.083 132.46 288.455 130.841 288.274Z" fill="white"/>
<path d="M147.907 296.867C148.439 292.86 165.953 281.768 165.953 281.768C165.953 281.768 169.837 280.21 168.547 277.495C169.221 277.881 169.845 278.286 170.42 278.706C170.825 278.998 171.204 279.298 171.559 279.607C176.773 284.122 176.78 290.053 171.557 294.573C171.205 294.88 170.824 295.182 170.421 295.474C169.884 295.866 169.307 296.242 168.684 296.604C168.09 296.953 167.469 297.275 166.829 297.577C166.318 297.818 165.787 298.045 165.25 298.257C164.715 298.469 164.168 298.666 163.609 298.849C161.944 299.395 160.189 299.812 158.383 300.104C157.994 300.167 157.6 300.224 157.209 300.274C155.487 300.495 153.738 300.606 151.983 300.602C149.831 300.598 147.678 300.424 145.592 300.078C145.592 300.078 148.408 299.501 147.907 296.867Z" fill="#10B981"/>
<path opacity="0.3" d="M147.907 296.867C148.439 292.86 165.953 281.768 165.953 281.768C165.953 281.768 169.837 280.21 168.547 277.495C169.221 277.881 169.845 278.286 170.42 278.706C170.825 278.998 171.204 279.298 171.559 279.607C176.773 284.122 176.78 290.053 171.557 294.573C171.205 294.88 170.824 295.182 170.421 295.474C169.884 295.866 169.307 296.242 168.684 296.604C168.09 296.953 167.469 297.275 166.829 297.577C166.318 297.818 165.787 298.045 165.25 298.257C164.715 298.469 164.168 298.666 163.609 298.849C161.944 299.395 160.189 299.812 158.383 300.104C157.994 300.167 157.6 300.224 157.209 300.274C155.487 300.495 153.738 300.606 151.983 300.602C149.831 300.598 147.678 300.424 145.592 300.078C145.592 300.078 148.408 299.501 147.907 296.867Z" fill="white"/>
<path d="M164.414 279.969C170.947 283.741 171.212 289.759 165.211 293.714C164.956 293.882 164.689 294.048 164.411 294.209C157.6 298.141 146.561 298.141 139.75 294.209C132.939 290.276 132.937 283.901 139.747 279.969C140.025 279.809 140.313 279.654 140.603 279.507C147.456 276.043 157.881 276.197 164.414 279.969Z" fill="#10B981"/>
<path opacity="0.2" d="M164.414 279.969C170.947 283.741 171.212 289.759 165.211 293.714C164.956 293.882 164.689 294.048 164.411 294.209C157.6 298.141 146.561 298.141 139.75 294.209C132.939 290.276 132.937 283.901 139.747 279.969C140.025 279.809 140.313 279.654 140.603 279.507C147.456 276.043 157.881 276.197 164.414 279.969Z" fill="black"/>
<path d="M163.861 280.283C170.371 284.041 170.371 290.135 163.861 293.894C157.351 297.653 146.796 297.653 140.285 293.894C133.775 290.135 133.775 284.041 140.285 280.283C146.796 276.524 157.351 276.524 163.861 280.283Z" fill="#10B981"/>
<path opacity="0.5" d="M163.861 280.283C170.371 284.041 170.371 290.135 163.861 293.894C157.351 297.653 146.796 297.653 140.285 293.894C133.775 290.135 133.775 284.041 140.285 280.283C146.796 276.524 157.351 276.524 163.861 280.283Z" fill="black"/>
<path d="M163.861 282.968C157.351 279.209 146.796 279.209 140.285 282.968C137.623 284.505 136.051 286.432 135.566 288.431C136.051 290.43 137.623 292.357 140.285 293.894C146.795 297.653 157.35 297.653 163.86 293.894C166.523 292.357 168.095 290.43 168.579 288.431C168.095 286.432 166.523 284.505 163.861 282.968Z" fill="#10B981"/>
<path opacity="0.35" d="M163.861 282.968C157.351 279.209 146.796 279.209 140.285 282.968C137.623 284.505 136.051 286.432 135.566 288.431C136.051 290.43 137.623 292.357 140.285 293.894C146.795 297.653 157.35 297.653 163.86 293.894C166.523 292.357 168.095 290.43 168.579 288.431C168.095 286.432 166.523 284.505 163.861 282.968Z" fill="black"/>
<path d="M162.571 289.987C162.569 289.663 162.575 288.339 162.572 287.998C162.566 287.182 162.007 286.391 160.792 285.68C160.779 285.67 160.763 285.661 160.75 285.653C158.511 284.36 156.199 284.529 154.138 285.048C154.132 285.05 154.127 285.05 154.121 285.051C153.245 285.272 152.413 285.556 151.653 285.817C150.603 286.182 149.742 286.478 149.005 286.636C149.003 286.638 149.003 286.638 149.001 286.639C148.541 286.737 148.127 286.783 147.742 286.759C147.374 286.737 147.032 286.646 146.7 286.482C146.728 286.463 146.753 286.444 146.783 286.425C146.864 286.37 146.952 286.317 147.045 286.263C147.278 286.129 147.509 286.013 147.742 285.916C149.04 285.367 150.291 285.392 151.449 285.832L153.586 283.676V281.698C151.687 281.054 149.713 280.986 147.742 281.486C147.121 281.644 146.501 281.86 145.884 282.129L143.747 280.895L141.196 282.367V284.346L142.069 284.85C141.82 285.238 141.693 285.625 141.694 286.004C141.696 286.333 141.698 287.647 141.697 287.979C141.695 288.796 142.283 289.584 143.513 290.294C144.702 290.981 145.884 291.267 147.035 291.308L147.037 291.307C147.27 291.317 147.508 291.315 147.742 291.304C149.076 291.241 150.354 290.884 151.525 290.487C151.776 290.403 152.02 290.318 152.261 290.233L150.11 292.39V294.368C153.147 295.586 156.112 295.008 158.353 294.012L160.464 295.23L163.014 293.757V291.779L162.138 291.274C162.425 290.844 162.573 290.413 162.571 289.987ZM157.192 289.818C156.996 289.931 156.799 290.03 156.6 290.114C155.084 290.763 153.521 290.625 152.43 290.176C154.427 289.472 156.095 288.855 157.516 289.612C157.416 289.681 157.31 289.75 157.192 289.818Z" fill="#10B981"/>
<path d="M154.14 285.048C154.133 285.05 154.128 285.05 154.122 285.051C153.246 285.272 152.414 285.556 151.654 285.817C150.605 286.182 149.744 286.478 149.007 286.636C149.005 286.638 149.005 286.638 149.003 286.639C148.542 286.737 148.129 286.783 147.744 286.759C147.312 286.734 146.916 286.619 146.531 286.397C145.71 285.923 145.591 285.229 146.784 284.446C146.866 284.391 146.954 284.339 147.046 284.285C147.279 284.151 147.511 284.034 147.744 283.938C149.042 283.389 150.292 283.414 151.45 283.854L153.588 281.698C151.688 281.054 149.714 280.986 147.744 281.486C147.123 281.644 146.503 281.86 145.886 282.129L143.749 280.895L141.197 282.367L143.31 283.587C143.31 283.587 143.304 283.594 143.29 283.604C141.147 285.233 141.102 286.923 143.515 288.315C144.703 289.002 145.885 289.288 147.036 289.329L147.038 289.328C147.271 289.338 147.509 289.336 147.742 289.326C149.076 289.262 150.355 288.905 151.526 288.508C153.973 287.69 155.957 286.725 157.605 287.677C158.709 288.315 158.404 289.117 157.191 289.817C156.995 289.93 156.797 290.029 156.599 290.113C155.047 290.778 153.445 290.618 152.351 290.144L150.11 292.39C153.147 293.607 156.112 293.029 158.352 292.033L160.463 293.252L163.014 291.779L160.903 290.561C163.025 288.919 163.269 287.131 160.79 285.68C160.777 285.67 160.761 285.661 160.749 285.653C158.513 284.361 156.2 284.53 154.14 285.048Z" fill="#10B981"/>
<g opacity="0.3">
<path d="M154.14 285.048C154.133 285.05 154.128 285.05 154.122 285.051C153.246 285.272 152.414 285.556 151.654 285.817C150.605 286.182 149.744 286.478 149.007 286.636C149.005 286.638 149.005 286.638 149.003 286.639C148.542 286.737 148.129 286.783 147.744 286.759C147.312 286.734 146.916 286.619 146.531 286.397C145.71 285.923 145.591 285.229 146.784 284.446C146.866 284.391 146.954 284.339 147.046 284.285C147.279 284.151 147.511 284.034 147.744 283.938C149.042 283.389 150.292 283.414 151.45 283.854L153.588 281.698C151.688 281.054 149.714 280.986 147.744 281.486C147.123 281.644 146.503 281.86 145.886 282.129L143.749 280.895L141.197 282.367L143.31 283.587C143.31 283.587 143.304 283.594 143.29 283.604C141.147 285.233 141.102 286.923 143.515 288.315C144.703 289.002 145.885 289.288 147.036 289.329L147.038 289.328C147.271 289.338 147.509 289.336 147.742 289.326C149.076 289.262 150.355 288.905 151.526 288.508C153.973 287.69 155.957 286.725 157.605 287.677C158.709 288.315 158.404 289.117 157.191 289.817C156.995 289.93 156.797 290.029 156.599 290.113C155.047 290.778 153.445 290.618 152.351 290.144L150.11 292.39C153.147 293.607 156.112 293.029 158.352 292.033L160.463 293.252L163.014 291.779L160.903 290.561C163.025 288.919 163.269 287.131 160.79 285.68C160.777 285.67 160.761 285.661 160.749 285.653C158.513 284.361 156.2 284.53 154.14 285.048Z" fill="white"/>
</g>
<path opacity="0.45" d="M141.199 282.367L143.773 281.2L145.886 282.129L143.749 280.895L141.199 282.367Z" fill="#F5F5F5"/>
<path opacity="0.45" d="M147.447 281.567C148.823 281.268 151.048 281.185 152.93 281.752L151.45 283.854L153.587 281.699C151.312 280.972 149.297 281.021 147.447 281.567Z" fill="#F5F5F5"/>
<path opacity="0.45" d="M160.751 285.654C160.765 285.661 160.78 285.67 160.793 285.68C163.271 287.131 163.026 288.92 160.905 290.561C162.785 288.513 162.446 287.085 160.403 285.905C158.365 284.728 155.755 284.741 154.139 285.048C156.2 284.53 158.513 284.361 160.751 285.654Z" fill="#F5F5F5"/>
<path opacity="0.45" d="M160.905 290.561L162.524 291.804L160.465 293.253L163.016 291.78L160.905 290.561Z" fill="#F5F5F5"/>
<path opacity="0.45" d="M156.6 290.113C154.359 291.176 152.534 290.468 152.534 290.468L150.111 292.391L152.352 290.144C153.446 290.618 155.048 290.778 156.6 290.113Z" fill="#F5F5F5"/>
<path opacity="0.45" d="M149.002 286.639C148.038 287.018 146.649 286.954 145.947 286.349C145.21 285.715 145.683 285.036 146.783 284.446C145.59 285.228 145.709 285.922 146.53 286.396C146.915 286.619 147.311 286.733 147.743 286.758C148.128 286.783 148.542 286.737 149.002 286.639Z" fill="#F5F5F5"/>
<path opacity="0.45" d="M143.29 283.604C143.11 283.763 141.574 285.195 142.252 286.626C142.971 288.152 145.222 289.131 147.038 289.329L147.036 289.33C145.885 289.288 144.703 289.002 143.515 288.316C141.103 286.923 141.146 285.233 143.29 283.604Z" fill="#F5F5F5"/>
<path d="M129.822 284.547L130.457 279.729L131.092 284.547L139.436 284.914L131.092 285.28L130.457 290.097L129.822 285.28L121.478 284.914L129.822 284.547Z" fill="white"/>
<g opacity="0.3">
<path d="M280.736 294.33C280.7 294.33 280.664 294.321 280.631 294.302L266.999 286.431C266.934 286.394 266.894 286.325 266.894 286.249C266.894 286.174 266.934 286.105 266.999 286.068L284.04 276.229C284.105 276.191 284.185 276.191 284.25 276.229L297.882 284.1C297.947 284.137 297.986 284.206 297.986 284.282C297.986 284.357 297.946 284.426 297.882 284.463L280.842 294.302C280.809 294.321 280.772 294.33 280.736 294.33ZM267.523 286.25L280.736 293.878L297.357 284.282L284.144 276.654L267.523 286.25Z" fill="#10B981"/>
</g>
<path d="M280.736 292.153L280.734 221.594L270.51 215.691L270.512 286.25L280.736 292.153Z" fill="#10B981"/>
<path opacity="0.2" d="M280.736 292.153L280.734 221.594L270.51 215.691L270.512 286.25L280.736 292.153Z" fill="black"/>
<path d="M280.736 292.153L294.368 284.282L294.37 213.725L280.734 221.594L280.736 292.153Z" fill="#10B981"/>
<path d="M294.37 213.725L284.146 207.822L270.51 215.691L280.734 221.594L294.37 213.725Z" fill="#10B981"/>
<path opacity="0.25" d="M294.37 213.725L284.146 207.822L270.51 215.691L280.734 221.594L294.37 213.725Z" fill="white"/>
<path opacity="0.3" d="M294.37 213.724L280.599 221.315L276.127 218.819L270.51 215.691L276.027 218.992L280.549 221.692C280.442 223.226 280.413 285.916 280.434 287.451C280.457 289.019 280.53 290.586 280.735 292.153C280.94 290.586 281.012 289.018 281.035 287.45C281.054 285.964 281.025 223.324 280.926 221.839L294.37 213.724Z" fill="white"/>
<g opacity="0.3">
<path d="M255.176 309.088C255.14 309.088 255.103 309.079 255.071 309.06L241.439 301.189C241.374 301.151 241.334 301.082 241.334 301.007C241.334 300.933 241.375 300.863 241.439 300.826L258.48 290.988C258.545 290.951 258.624 290.951 258.689 290.988L272.322 298.859C272.387 298.896 272.427 298.965 272.427 299.04C272.427 299.116 272.387 299.185 272.322 299.222L255.281 309.06C255.248 309.079 255.212 309.088 255.176 309.088ZM241.962 301.007L255.175 308.636L271.796 299.039L258.584 291.412L241.962 301.007Z" fill="#10B981"/>
</g>
<path d="M255.176 306.91L255.174 264.577L244.95 258.674L244.952 301.007L255.176 306.91Z" fill="#10B981"/>
<path opacity="0.1" d="M255.176 306.91L255.174 264.577L244.95 258.674L244.952 301.007L255.176 306.91Z" fill="white"/>
<path d="M255.176 306.91L268.808 299.039L268.81 256.707L255.174 264.577L255.176 306.91Z" fill="#10B981"/>
<path opacity="0.3" d="M255.176 306.91L268.808 299.039L268.81 256.707L255.174 264.577L255.176 306.91Z" fill="white"/>
<path d="M268.81 256.707L258.585 250.804L244.95 258.674L255.174 264.577L268.81 256.707Z" fill="#10B981"/>
<path opacity="0.55" d="M268.81 256.707L258.585 250.804L244.95 258.674L255.174 264.577L268.81 256.707Z" fill="white"/>
<path opacity="0.3" d="M255.356 264.828L268.81 256.707L255.037 264.299C253.552 263.458 252.059 262.631 250.567 261.801L244.95 258.674L250.467 261.975C251.975 262.878 253.481 263.784 254.996 264.674C254.949 266.266 254.899 273.945 254.885 275.536C254.868 277.16 254.861 295.541 254.875 297.165C254.884 298.79 254.911 300.414 254.965 302.038C255.006 303.662 255.072 305.286 255.176 306.91C255.28 305.286 255.346 303.662 255.387 302.038C255.44 300.414 255.467 298.79 255.475 297.165C255.488 295.541 255.48 277.16 255.464 275.536C255.449 273.995 255.402 266.368 255.356 264.828Z" fill="white"/>
<g opacity="0.3">
<path d="M229.615 323.845C229.579 323.845 229.542 323.836 229.51 323.817L215.878 315.946C215.813 315.909 215.773 315.84 215.773 315.764C215.773 315.689 215.813 315.62 215.878 315.583L232.919 305.744C232.984 305.707 233.063 305.707 233.129 305.744L246.761 313.615C246.826 313.652 246.866 313.721 246.866 313.797C246.866 313.872 246.826 313.941 246.761 313.978L229.721 323.817C229.688 323.836 229.651 323.845 229.615 323.845ZM216.402 315.765L229.615 323.394L246.236 313.797L233.023 306.169L216.402 315.765Z" fill="#10B981"/>
</g>
<path d="M229.615 321.667L229.613 306.791L219.389 300.887L219.391 315.765L229.615 321.667Z" fill="#10B981"/>
<path opacity="0.45" d="M229.615 321.667L229.613 306.791L219.389 300.887L219.391 315.765L229.615 321.667Z" fill="black"/>
<path d="M229.615 321.667L243.247 313.797L243.249 298.921L229.613 306.791L229.615 321.667Z" fill="#10B981"/>
<path opacity="0.3" d="M229.615 321.667L243.247 313.797L243.249 298.921L229.613 306.791L229.615 321.667Z" fill="black"/>
<path d="M243.249 298.921L233.024 293.017L219.389 300.887L229.613 306.791L243.249 298.921Z" fill="#10B981"/>
<path opacity="0.15" d="M243.249 298.921L233.024 293.017L219.389 300.887L229.613 306.791L243.249 298.921Z" fill="black"/>
<path opacity="0.3" d="M243.249 298.921L229.478 306.512L225.006 304.015L219.389 300.887L224.906 304.189L229.426 306.886C229.321 307.82 229.293 317.835 229.314 318.769C229.337 319.736 229.41 320.702 229.615 321.668C229.819 320.702 229.892 319.736 229.914 318.769C229.933 317.883 229.906 307.917 229.814 307.031L243.249 298.921Z" fill="white"/>
<g opacity="0.3">
<path d="M306.297 279.572C306.261 279.572 306.224 279.563 306.192 279.544L292.559 271.674C292.495 271.636 292.455 271.567 292.455 271.492C292.455 271.417 292.495 271.348 292.559 271.31L309.6 261.472C309.666 261.435 309.745 261.435 309.81 261.472L323.443 269.343C323.507 269.38 323.547 269.449 323.547 269.524C323.547 269.6 323.507 269.669 323.443 269.706L306.402 279.544C306.369 279.563 306.333 279.572 306.297 279.572ZM293.084 271.493L306.297 279.121L322.918 269.525L309.705 261.896L293.084 271.493Z" fill="#10B981"/>
</g>
<path d="M306.296 277.396L306.294 179.723L296.071 173.82L296.072 271.493L306.296 277.396Z" fill="#10B981"/>
<path opacity="0.3" d="M306.296 277.396L306.294 179.723L296.071 173.82L296.072 271.493L306.296 277.396Z" fill="white"/>
<path d="M306.297 277.396L319.929 269.525L319.931 171.853L306.294 179.723L306.297 277.396Z" fill="#10B981"/>
<path opacity="0.55" d="M306.297 277.396L319.929 269.525L319.931 171.853L306.294 179.723L306.297 277.396Z" fill="white"/>
<path d="M319.931 171.853L309.706 165.95L296.071 173.82L306.294 179.723L319.931 171.853Z" fill="#10B981"/>
<path opacity="0.75" d="M319.931 171.853L309.706 165.95L296.071 173.82L306.294 179.723L319.931 171.853Z" fill="white"/>
<path opacity="0.3" d="M306.475 179.975L319.931 171.853L306.158 179.446C304.673 178.605 303.18 177.778 301.688 176.948L296.071 173.82L301.588 177.121C303.096 178.025 304.602 178.931 306.118 179.821C306.07 181.625 306.02 204.247 306.006 206.051C305.989 207.887 305.982 264.542 305.996 266.378C306.005 268.214 306.032 270.051 306.085 271.887C306.126 273.723 306.192 275.56 306.296 277.396C306.401 275.56 306.466 273.723 306.507 271.887C306.56 270.051 306.587 268.214 306.596 266.378C306.609 264.542 306.601 207.887 306.584 206.051C306.57 204.298 306.522 181.727 306.475 179.975Z" fill="white"/>
<path opacity="0.5" d="M68.9717 119.568L29.4766 142.371L49.2252 106.093L68.9717 119.568Z" fill="#10B981"/>
<path opacity="0.3" d="M68.9717 136.151L29.4766 158.954L49.2252 122.676L68.9717 136.151Z" fill="#10B981"/>
<path opacity="0.15" d="M68.9717 152.735L29.4766 175.537L49.2252 139.26L68.9717 152.735Z" fill="#10B981"/>
<path opacity="0.2" d="M158.762 199.983C161.907 197.271 166.079 194.728 171.156 192.425C176.862 189.837 183.724 187.543 188.488 184.729C194.68 181.071 197.041 176.662 196.589 172.225C196.333 169.713 194.836 166.926 189.124 165.075C187.662 164.601 185.88 164.195 183.961 164.102C181.143 163.966 178.7 164.518 176.733 165.113C166.239 168.288 161.784 173.168 158.264 177.909C154.743 182.65 150.467 185.398 142.783 189.866C139.495 191.778 135.967 193.65 132.861 195.586C132.836 195.601 132.811 195.617 132.786 195.633C131.217 196.617 129.489 197.528 128.253 198.584C126.283 200.267 124.548 202.003 123.839 203.84C123.129 205.678 123.483 207.633 125.578 209.463C126.117 209.933 126.819 210.416 128.018 210.737C129.032 211.008 130.302 211.133 131.528 211.175C134.028 211.259 136.442 211.022 138.483 210.622C140.524 210.222 142.226 209.667 143.796 209.08C150.646 206.525 155.006 203.221 158.762 199.983Z" fill="black"/>
<path d="M126.58 106.55C126.004 108.076 124.329 111.318 124.434 111.727C124.72 112.846 124.775 113.529 124.528 114.835C124.38 115.616 117.627 118.271 117.627 118.271L117.463 117.203C117.352 116.482 117.442 115.747 117.73 115.078C118.512 113.252 120.109 109.259 120.607 106.034L126.58 106.55Z" fill="#FFA8A7"/>
<path d="M124.635 114.149L117.488 117.362L117.628 118.271C117.628 118.271 124.381 115.617 124.529 114.836C124.575 114.584 124.609 114.361 124.635 114.149Z" fill="#F28F8F"/>
<path d="M102.962 127.888L100.814 149.951C100.71 151.02 101.406 151.712 102.278 152.346L104.468 153.913C105.073 154.347 105.418 154.506 106.245 154.446C106.607 154.423 107.234 154.191 107.534 154.059C107.553 154.056 107.569 154.048 107.584 154.039L107.717 153.98L132.764 142.597C134.595 141.764 135.842 140.02 136.037 138.019L137.993 117.93C138.037 117.473 137.768 116.88 137.395 116.613L133.654 113.942C133.282 113.673 132.636 113.609 132.219 113.802L103.805 126.715C103.592 126.807 103.394 126.991 103.243 127.2C103.091 127.414 102.984 127.661 102.962 127.888Z" fill="#37474F"/>
<path d="M102.962 127.888L100.814 149.951C100.71 151.02 101.406 151.712 102.278 152.346L104.468 153.913C105.073 154.347 105.418 154.506 106.245 154.446C106.607 154.423 107.234 154.191 107.534 154.059L107.534 154.05C106.568 154.393 105.886 153.841 105.993 152.747L108.017 131.959C108.051 131.612 108.21 131.238 108.44 130.916L103.244 127.2C103.091 127.414 102.984 127.661 102.962 127.888Z" fill="#263238"/>
<path d="M108.016 131.959C108.083 131.267 108.656 130.467 109.288 130.179L136.143 117.975C137.204 117.493 137.98 118.047 137.868 119.208L136.038 138.016C135.844 140.018 134.595 141.763 132.765 142.595L107.717 153.979C106.655 154.461 105.879 153.907 105.992 152.746L108.016 131.959Z" fill="#455A64"/>
<path d="M136.838 118.857C136.819 118.884 136.83 118.972 136.817 119.106L134.988 137.915C134.83 139.536 133.812 140.961 132.328 141.635L107.28 153.019C107.158 153.075 107.074 153.093 107.027 153.097C107.039 153.069 107.029 152.981 107.042 152.85L109.066 132.062C109.101 131.704 109.398 131.289 109.725 131.14L136.58 118.937C136.708 118.877 136.793 118.861 136.838 118.857ZM136.863 117.801C136.646 117.801 136.403 117.857 136.143 117.976L109.289 130.179C108.656 130.467 108.083 131.268 108.017 131.959L105.993 152.747C105.907 153.623 106.328 154.154 106.997 154.154C107.214 154.154 107.457 154.098 107.717 153.98L132.766 142.595C134.596 141.763 135.844 140.018 136.039 138.016L137.868 119.208C137.952 118.332 137.531 117.801 136.863 117.801Z" fill="#37474F"/>
<path d="M134.866 114.808L106.388 127.897C105.569 128.273 105.012 129.056 104.925 129.953L102.714 152.659L103.102 152.936L105.335 129.992C105.408 129.245 105.877 128.586 106.56 128.272L135.253 115.084L134.866 114.808Z" fill="#10B981"/>
<path opacity="0.2" d="M105.383 128.73C105.13 129.085 104.969 129.505 104.925 129.952L102.714 152.659L103.102 152.936L105.335 129.992C105.371 129.618 105.506 129.268 105.718 128.971L105.383 128.73Z" fill="black"/>
<path opacity="0.2" d="M105.718 128.971C105.93 128.673 106.218 128.429 106.56 128.272L135.253 115.084L134.866 114.808L106.388 127.897C105.98 128.084 105.636 128.375 105.383 128.73" fill="black"/>
<path d="M125.019 116.695L124.687 120.112L125.947 121.013L126.39 116.476C126.412 116.244 126.256 116.133 126.045 116.229L125.019 116.695Z" fill="#10B981"/>
<path opacity="0.4" d="M125.019 116.695L124.687 120.112L125.947 121.013L126.39 116.476C126.412 116.244 126.256 116.133 126.045 116.229L125.019 116.695Z" fill="black"/>
<path d="M115.301 119.157L114.762 124.688L115.966 125.55L116.873 125.137L117.315 120.6C117.337 120.367 117.53 120.097 117.744 120.001L124.616 116.879L126.044 116.23C126.256 116.133 126.412 116.244 126.389 116.477L125.947 121.013L126.857 120.6L127.395 115.071C127.397 115.048 127.398 115.022 127.395 114.998C127.389 114.778 127.26 114.523 127.088 114.401L126.575 114.033C126.386 113.897 126.058 113.864 125.843 113.961L115.727 118.558C115.513 118.656 115.323 118.925 115.301 119.157Z" fill="#10B981"/>
<path opacity="0.2" d="M116.504 120.019L115.966 125.551L116.873 125.137L117.315 120.601C117.337 120.368 117.53 120.098 117.743 120.002L124.616 116.879L126.044 116.23C126.256 116.134 126.412 116.244 126.389 116.478L125.947 121.014L126.857 120.601L127.395 115.072C127.397 115.048 127.397 115.023 127.395 114.999C127.381 114.816 127.237 114.739 127.047 114.825L116.931 119.421C116.719 119.519 116.526 119.787 116.504 120.019Z" fill="black"/>
<path d="M123.538 116.44C123.686 116.445 123.829 116.488 123.947 116.578C124.131 116.268 124.488 116.069 124.849 116.076C125.007 116.078 125.191 116.142 125.232 116.295C125.245 116.346 125.241 116.399 125.236 116.452C125.187 116.961 125.117 117.468 125.026 117.971C124.96 118.334 124.868 118.723 124.589 118.965C124.36 119.164 124.023 119.227 123.738 119.125C123.635 119.366 123.427 119.555 123.185 119.652C123.129 119.674 122.419 119.736 122.462 119.653C122.195 120.152 121.607 120.666 120.847 120.515C120.847 120.515 120.657 121.061 119.655 120.944C118.652 120.826 118.208 119.72 118.208 119.72C118.264 119.411 118.371 119.287 118.716 119.153C118.887 119.087 119.07 119.01 119.234 118.929C119.47 118.811 119.622 118.537 119.792 118.337C119.965 118.134 120.166 117.942 120.416 117.846C120.666 117.751 120.975 117.771 121.169 117.954C121.192 117.748 121.33 117.574 121.474 117.423C121.603 117.288 121.765 117.153 121.958 117.132C122.015 117.127 122.473 117.206 122.417 117.326C122.555 117.029 122.745 116.745 123.025 116.577C123.178 116.484 123.361 116.434 123.538 116.44Z" fill="#FFA8A7"/>
<path d="M127.585 106.034C127.148 108.056 126.049 109.871 126.537 111.569C126.867 112.717 126.957 112.599 126.824 113.769C126.775 114.202 126.597 114.889 126.449 115.3C126.361 115.544 126.275 115.788 126.186 116.033C126.093 116.289 125.999 116.547 125.864 116.784C125.691 117.091 125.453 117.356 125.228 117.622C124.832 118.09 124.421 118.557 123.912 118.901C123.885 118.919 123.856 118.935 123.824 118.945C123.698 118.987 123.555 118.929 123.465 118.831C123.024 118.346 123.358 117.641 123.589 117.15C123.847 116.604 124.152 116.051 124.139 115.429C124.138 115.352 124.133 115.108 124.14 114.723C124.136 114.725 123.515 114.568 123.515 114.568C123.515 114.568 121.497 114.082 121.46 113.105C121.424 112.129 122.199 111.188 122.781 110.044C123.377 108.874 123.606 108.151 124.202 105.192L127.585 106.034Z" fill="#FFA8A7"/>
<path d="M125.865 116.784C125.405 117.533 124.816 118.2 124.157 118.782C124.047 118.866 123.952 119.011 123.752 119.028C122.81 118.851 123.253 117.607 123.57 117.059C123.829 116.54 124.123 116.021 124.139 115.428C124.179 116.023 123.912 116.585 123.672 117.107C123.424 117.616 122.983 118.657 123.746 118.888C124.547 118.411 125.268 117.526 125.865 116.784Z" fill="#F28F8F"/>
<path d="M123.979 114.534C123.734 114.408 123.464 114.316 123.231 114.166C123.05 114.048 122.899 113.887 122.778 113.709C122.484 113.279 122.222 112.714 122.307 112.183C122.313 112.151 122.276 112.092 122.257 112.146C122.041 112.743 122.207 113.424 122.528 113.954C122.679 114.203 122.904 114.402 123.15 114.553C123.277 114.632 123.413 114.691 123.558 114.727C123.723 114.769 123.841 114.772 123.994 114.701C124.05 114.675 124.026 114.557 123.979 114.534Z" fill="#F28F8F"/>
<path d="M139.585 65.5051C135.221 65.1693 131.738 66.0352 129.483 71.7735C126.936 78.2545 124.428 83.2536 123.166 87.9697C121.903 92.6851 120.038 107.602 120.038 107.602C120.038 107.602 123.334 110.473 126.961 109.164L132.452 92.2092L139.585 78.4897V65.5051Z" fill="#E6E6E6"/>
<path d="M189.123 172.542C189.429 172.329 189.874 173.116 189.885 173.606C189.915 175.016 188.967 177.079 186.91 178.905C184.854 180.73 179.921 182.672 178.5 183.394C177.08 184.116 175.075 186.16 173.815 187.156C171.518 188.97 169.4 189.235 168.123 188.885C167.621 188.747 167.328 188.295 167.113 187.886C166.602 186.913 166.578 186.673 166.689 186.621L189.123 172.542Z" fill="#37474F"/>
<path d="M165.404 183.671C165.723 184.723 166.443 186.373 167.111 187.255C167.801 187.806 168.808 187.776 169.543 187.624C171.482 187.22 173.044 186.219 174.644 184.818C175.603 183.979 176.649 183.069 177.996 182.411C179.475 181.689 182.82 180.245 184.272 179.461C185.504 178.795 186.934 177.671 187.768 176.52C188.474 175.547 189.369 173.765 189.279 172.85C188.629 170.951 187.881 170.023 186.561 169.993C185.167 169.961 183.599 170.676 181.439 171.676C180.792 171.976 179.989 172.377 179.637 172.525C178.305 173.087 177.079 173.647 176.093 174.117C175.249 174.52 174.418 174.906 173.462 174.914C173.006 174.917 172.636 174.868 172.271 174.596C171.826 174.265 171.473 173.618 171.067 173.797C171.067 173.797 164.641 178.963 164.099 179.342C163.474 179.78 164.436 180.487 165.404 183.671Z" fill="#455A64"/>
<path d="M180.15 172.153C180.433 172.175 180.804 172.346 181.02 172.483C181.316 172.67 181.563 172.871 181.806 173.125C182.102 173.435 181.696 173.756 181.29 173.437C181.011 173.219 180.71 172.965 180.231 172.736C180.002 172.626 179.587 172.547 179.369 172.639C179.204 172.709 178.989 172.802 178.989 172.802C178.935 172.48 179.773 172.124 180.15 172.153Z" fill="#FAFAFA"/>
<path d="M176.738 173.567C176.976 173.397 177.221 173.349 177.519 173.398C177.871 173.455 178.174 173.642 178.44 173.867C178.656 174.05 179.158 174.547 179.323 174.779C179.479 174.998 178.927 175.296 178.726 175.075C178.528 174.857 178.15 174.46 177.902 174.255C177.75 174.128 177.125 173.675 176.713 173.825L176.537 173.91C176.49 173.83 176.567 173.714 176.632 173.654C176.666 173.622 176.701 173.593 176.738 173.567Z" fill="#FAFAFA"/>
<path d="M174.828 174.56C175.046 174.522 175.172 174.479 175.379 174.568C175.572 174.652 175.834 174.816 175.986 174.967C176.404 175.384 176.544 175.604 176.792 176.022C176.966 176.317 176.377 176.543 176.247 176.353C175.836 175.753 175.605 175.34 175.047 175.045C174.587 174.803 174.3 174.814 174.3 174.814C174.285 174.752 174.362 174.7 174.42 174.679C174.509 174.647 174.733 174.576 174.828 174.56Z" fill="#FAFAFA"/>
<path d="M159.679 171.948C159.679 171.948 163.287 178.332 164.284 179.754C164.602 180.209 165.62 179.893 166.204 179.835C166.787 179.778 167.709 179.688 168.336 179.864C170.19 180.384 171.244 180.16 170.805 177.683C170.715 177.176 170.886 176.838 171.487 176.635C171.936 176.482 172.451 176.432 172.815 176.121C172.855 176.045 172.763 175.969 172.686 175.93C172.09 175.64 171.754 175.433 171.338 174.532C170.054 171.746 168.879 166.009 168.879 166.009L159.679 171.948Z" fill="#FFA8A7"/>
<path d="M132.345 186.224C133.45 184.456 134.048 181.053 136.481 174.138L145.499 180.742L140.334 190.814C140.04 191.319 140.029 192.079 139.927 192.226C138.721 193.958 132.345 186.224 132.345 186.224Z" fill="#FFA8A7"/>
<path d="M129.004 189.995C129.018 189.893 128.964 189.059 128.99 188.959C129.224 188.062 129.779 187.814 130.491 187.313C131.373 186.691 132.229 185.947 132.455 185.632C132.694 185.302 132.74 185.131 133.11 184.98C133.741 184.724 134.755 184.704 136.003 185.36C138.049 186.434 138.674 187.729 138.556 189.131C138.466 190.2 138.377 191.622 139.319 192.259C139.712 192.524 140.332 190.814 140.332 190.814C140.913 191.789 140.097 193.137 139.671 195.111C139.379 196.465 139.45 197.055 139.614 198.43C139.821 200.163 140.06 200.156 140.98 200.277C141.773 200.381 144.021 200.23 145.388 201.185C147.272 202.501 146.769 204.252 146.769 204.252C146.526 204.918 144.475 208.15 136.988 206.944C134.816 206.594 130.253 203.179 130.323 202.86C130.388 202.563 130.316 202.178 130.305 201.879C130.279 201.113 130.246 200.348 130.213 199.583C130.183 198.885 130.254 198.073 130.086 197.395C129.936 196.792 129.865 196.214 129.807 195.587C129.663 194.05 129.52 192.512 129.377 190.975C129.335 190.533 128.945 190.431 129.004 189.995Z" fill="#455A64"/>
<path d="M128.061 189.691C127.323 190.406 127.772 192.479 128.762 194.968C129.202 196.072 130.02 197.972 129.78 199.992C129.54 202.011 129.497 202.966 130.018 203.913C130.832 205.394 135.186 207.289 137.751 207.883C137.751 207.883 135.4 204.932 135.143 200.473C134.884 196.015 134.544 193.14 132.506 191.163C129.927 188.663 128.061 189.691 128.061 189.691Z" fill="#263238"/>
<path d="M146.769 204.253C146.769 204.253 145.268 207.067 139.474 206.975C137.194 206.939 135.973 205.828 135.917 202.361C135.849 198.184 135.513 193.965 134.162 191.891C132.811 189.817 130.659 188.811 128.99 188.959C128.7 189.006 128.333 189.282 128.061 189.691C128.061 189.691 129.732 189.142 132.331 191.299C134.25 192.892 134.769 196.218 134.74 200.349C134.727 202.127 134.62 204.143 135.14 205.491C135.62 206.734 136.684 207.586 137.906 207.929C141.055 208.814 145.365 207.356 146.456 206.025C147.082 205.137 146.769 204.253 146.769 204.253Z" fill="#37474F"/>
<path d="M139.81 199.519C139.81 199.519 140.232 199.817 140.279 200.21C140.324 200.603 140.188 201.51 139.365 202.024C139.017 202.242 138.713 202.166 139.267 201.433C139.821 200.701 139.81 199.519 139.81 199.519Z" fill="#FAFAFA"/>
<path d="M139.499 197.357C139.499 197.357 139.682 197.475 139.729 198.056C139.754 198.367 139.269 199.621 138.66 199.92C138.05 200.218 138.379 199.516 138.644 199.171C138.934 198.792 139.445 197.932 139.499 197.357Z" fill="#FAFAFA"/>
<path d="M139.704 194.968C139.704 194.968 139.902 195.023 139.691 195.822C139.619 196.091 138.821 196.883 138.428 196.93C138.035 196.977 137.844 196.781 138.326 196.431C138.707 196.155 139.63 195.355 139.704 194.968Z" fill="#FAFAFA"/>
<path d="M154.485 105.683C154.485 105.683 157.989 109.883 160.109 117.739C162.681 127.275 163.676 134.61 164.48 139.933C164.987 143.277 165.47 146.503 166.635 152.933C167.741 159.044 170.488 172.265 170.488 172.265C170.488 172.265 170.005 174.279 167.287 175.469C164.568 176.659 161.626 176.203 161.626 176.203C161.626 176.203 159.761 173.019 155.875 165.517C153.237 160.428 152.803 157.657 152.293 155.052C151.911 153.09 151.457 149.261 151.494 147.499L136.905 122.709C136.905 122.709 135.341 121.081 133.978 117.659C131.916 112.482 134.549 105.024 134.549 105.024L154.485 105.683Z" fill="#37474F"/>
<path d="M154.485 105.683C154.485 105.683 157.989 109.883 160.109 117.739C162.681 127.275 163.676 134.61 164.48 139.933C164.987 143.277 165.47 146.503 166.635 152.933C167.741 159.044 170.488 172.265 170.488 172.265C170.488 172.265 170.005 174.279 167.287 175.469C164.568 176.659 161.626 176.203 161.626 176.203C161.626 176.203 159.761 173.019 155.875 165.517C153.237 160.428 152.803 157.657 152.293 155.052C151.911 153.09 151.457 149.261 151.494 147.499L136.905 122.709C136.905 122.709 135.341 121.081 133.978 117.659C131.916 112.482 134.549 105.024 134.549 105.024L154.485 105.683Z" fill="#37474F"/>
<path d="M164.195 138.023C163.427 132.9 162.387 126.184 160.109 117.739C159.451 115.302 158.661 113.218 157.883 111.501L139.377 111.176C138 114.394 136.91 118.414 139.924 123.325L140.718 129.184L151.495 147.498C151.458 149.26 151.912 153.09 152.294 155.05C152.804 157.655 153.238 160.427 155.876 165.516C155.992 165.739 156.099 165.947 156.211 166.162C157.381 164.418 159.207 161.589 159.905 159.937C160.965 157.426 161.692 152.587 162.804 146.458C163.213 144.2 163.743 140.927 164.195 138.023Z" fill="#263238"/>
<path d="M142.322 105.683C141.407 106.621 139.128 109.763 138.756 114.6C138.599 116.648 139.182 120.509 141.574 123.413C142.306 134.142 144.426 154.805 144.426 154.805C141.591 157.723 140.857 159.607 139.216 164.839C138.22 168.015 135.314 177.618 134.191 181.2C141.068 181.498 142.364 187.391 142.364 187.391C142.364 187.391 150.7 173.953 154.907 166.362C158.017 160.75 158.415 159.413 159.26 156.07C160.104 152.728 160.262 149.628 161.284 142.647C162.307 135.666 164.119 126.05 164.62 119.178C165.12 112.306 165.214 105.023 165.214 105.023L142.322 105.683Z" fill="#37474F"/>
<path d="M133.227 114.092C133.923 113.892 134.912 113.227 135.287 112.629C135.512 112.27 135.647 111.759 135.819 111.111C136.007 110.404 136.241 109.523 136.685 108.533L137.215 108.77C136.791 109.719 136.573 110.538 136.381 111.261C136.196 111.956 136.051 112.504 135.78 112.938C135.336 113.65 134.184 114.455 133.277 114.672C133.257 114.477 133.24 114.285 133.227 114.092Z" fill="#263238"/>
<path d="M147.006 120.239C146.858 120.235 146.733 120.223 146.635 120.202C145.793 120.016 145.138 119.45 143.834 117.782C142.841 116.512 142.943 115.6 143.111 114.089C143.173 113.534 143.757 110.568 143.794 109.787L144.35 110.096C144.312 110.896 143.751 113.59 143.688 114.153C143.521 115.655 143.446 116.341 144.292 117.424C145.498 118.966 146.074 119.483 146.76 119.634C147.424 119.784 150.369 119.296 151.154 118.754C151.607 118.438 152.366 114.562 152.81 111.15L153.386 111.226C153.162 112.95 152.362 118.625 151.485 119.232C150.705 119.77 148.176 120.27 147.006 120.239Z" fill="#263238"/>
<path d="M134.401 68.6175C132.435 72.3747 132.679 75.7398 133.246 81.0107C133.769 85.8718 134.135 88.8828 134.583 94.8957C135.095 101.765 134.18 106.098 134.18 106.098C134.18 106.098 134.374 109.009 142.939 111.19C157.991 115.024 165.214 110.655 165.214 110.655C165.214 110.655 165.577 102.178 164.994 91.0899C164.34 78.6678 164.123 76.85 163.163 73.8954C162.457 72.2628 161.121 70.7949 159.312 69.9734C157.818 69.2947 154.24 68.124 152.116 67.3045C147.173 65.3974 141.46 65.5156 141.46 65.5156C137.174 65.227 135.421 66.6667 134.401 68.6175Z" fill="#F5F5F5"/>
<path d="M140.408 66.1832C140.727 66.1832 141.065 66.1951 141.413 66.2184L141.444 66.2205L141.475 66.2198C141.479 66.2198 141.544 66.2184 141.662 66.2184C142.611 66.2184 147.564 66.3021 151.862 67.9615C152.722 68.2931 153.831 68.6866 154.904 69.0675C156.501 69.6342 158.153 70.2206 159.021 70.6148C160.558 71.3125 161.826 72.598 162.504 74.1454C163.409 76.9382 163.626 78.4898 164.291 91.1273C164.795 100.702 164.587 108.408 164.525 110.222C163.523 110.706 160.208 112.062 154.543 112.062C151.006 112.062 147.16 111.539 143.112 110.508C136.024 108.703 135.016 106.461 134.896 106.101C135.052 105.283 135.753 101.128 135.285 94.8437C134.906 89.7538 134.585 86.8118 134.179 83.0869L133.945 80.9362C133.379 75.6766 133.15 72.5262 135.023 68.945C135.739 67.5785 136.937 66.1832 140.408 66.1832ZM140.408 65.4792C136.877 65.4792 135.333 66.8351 134.4 68.6176C132.435 72.3748 132.678 75.74 133.245 81.0108C133.768 85.8719 134.135 88.8829 134.583 94.8958C135.095 101.765 134.179 106.098 134.179 106.098C134.179 106.098 134.373 109.009 142.938 111.19C147.528 112.359 151.391 112.765 154.543 112.765C161.725 112.765 165.213 110.656 165.213 110.656C165.213 110.656 165.576 102.178 164.993 91.09C164.339 78.6679 164.122 76.8502 163.162 73.8955C162.455 72.2636 161.12 70.7951 159.311 69.9735C157.816 69.2948 154.238 68.1241 152.114 67.3046C147.72 65.6087 142.717 65.5144 141.661 65.5144C141.529 65.5144 141.459 65.5158 141.459 65.5158C141.092 65.4911 140.741 65.4792 140.408 65.4792Z" fill="#E0E0E0"/>
<path d="M152.487 63.0488L152.082 67.6185C149.582 68.1634 143.505 67.7727 142.364 66.2189L142.604 62.0315L152.487 63.0488Z" fill="#FFA8A7"/>
<path d="M159.001 51.3357C159.001 51.3357 160.161 52.2136 161.042 55.2471L159.322 56.5087C158.756 54.3777 158.146 52.2072 159.001 51.3357Z" fill="#F28F8F"/>
<path d="M154.566 42.8447C158.835 43.1285 159.549 45.3531 158.914 52.6339C160.413 59.5464 158.344 62.2808 157.452 63.1861C155.44 64.2639 153.395 64.4421 150.616 63.7176C148.497 63.1657 143.131 61.574 140.883 58.244C138.239 54.3263 137.547 48.369 140.364 46.1521C144.328 43.0313 152.866 42.7321 154.566 42.8447Z" fill="#FFA8A7"/>
<path d="M157.452 63.1861C156.959 63.6867 154.103 64.5913 152.343 64.3984L152.488 63.0488C152.488 63.0488 154.932 63.5057 157.452 63.1861Z" fill="#F28F8F"/>
<path d="M155.012 47.8734C154.921 48.186 154.786 48.4859 154.611 48.7604C154.131 49.5158 153.445 49.9221 152.714 50.3804C152.98 51.2709 153.267 52.1924 153.279 53.1372C153.283 53.4392 153.259 53.7588 153.087 54.0116C152.787 54.4579 152.28 54.4143 152.046 54.0003C151.766 53.5033 151.57 52.9859 151.178 52.5543C150.724 52.0552 150.105 51.6771 149.424 51.6102C146.849 51.3596 146.839 55.3689 147.872 56.7262C149.561 58.948 150.949 57.5224 150.949 57.5224C150.949 57.5224 151.817 60.9488 149.334 62.4335C149.334 62.4335 145.334 63.4142 142.604 62.0316C141.354 59.4598 139.669 57.9589 138.327 55.2204C135.98 50.4296 137.104 46.2218 138.703 45.3566C138.254 43.1193 139.614 40.9207 142.508 39.5556C145.361 38.2096 149.304 38.896 152.337 39.3818C154.139 39.6704 156.003 39.5648 157.762 39.0748C158.011 39.0051 158.263 38.9277 158.522 38.9284C158.78 38.9298 159.054 39.0234 159.203 39.2346C159.398 39.5099 159.33 39.895 159.181 40.197C159.031 40.499 158.81 40.7665 158.7 41.0854C159.325 40.9151 159.978 41.3804 160.26 41.964C160.655 42.7814 160.491 43.8001 159.973 44.5456C159.456 45.2911 158.63 45.7825 157.76 46.0409C156.89 46.2986 155.971 46.3415 155.064 46.3352C155.185 46.8406 155.157 47.3729 155.012 47.8734Z" fill="#263238"/>
<path d="M152.255 65.6684C152.908 65.6367 153.617 66.9842 154.897 68.3176C154.897 68.3176 151.288 70.4113 145.904 69.6003C140.52 68.7892 139.487 65.5128 139.487 65.5128C139.487 65.5128 140.717 64.5681 141.366 63.9309C142.154 63.1565 142.54 63.1439 142.54 63.1439L142.477 64.2463C142.477 64.2463 143.509 65.3157 146.791 65.9796C150.073 66.6428 152.255 65.6684 152.255 65.6684Z" fill="#E6E6E6"/>
<path d="M171.311 97.3724C171.311 97.3724 169.772 89.6544 168.649 84.2428C167.527 78.8318 167.962 72.581 159.444 70.4394C158.035 72.5887 157.117 75.8813 157.592 79.9878C158.067 84.0942 159.94 90.5344 160.411 92.7112C160.883 94.8879 162.478 99.2232 164.509 102.24C167.208 106.251 172.243 113.038 174.282 115.532C175.226 116.687 176.044 117.855 176.912 119.083C177.817 120.363 179.019 121.358 180.092 122.502C180.586 123.031 181.298 123.41 181.993 123.604C182.451 123.732 182.905 123.556 183.338 123.676C183.788 123.799 184.059 124.214 184.59 124.229C185.18 124.245 185.659 123.838 186.192 123.889C186.75 123.943 187.293 124.145 187.878 124.13C188.404 124.116 188.763 124.041 189.268 124.252C189.68 124.425 190.257 124.971 190.728 124.692C191.254 124.379 191.094 123.804 190.907 123.329C190.578 122.49 189.655 121.667 188.868 121.251C187.957 120.768 187.17 120.08 186.204 119.704C185.331 119.365 184.566 118.617 183.936 117.917C183.496 117.428 183.208 116.673 184.101 116.662C185.153 116.65 186.457 117.049 187.415 116.385C188.077 115.925 187.852 115.339 187.21 115.061C186.136 114.595 185.16 114.076 184.157 113.455C183.16 112.836 182.238 112.116 181.226 111.527C180.701 111.221 180.123 110.965 179.556 110.73C177.97 110.071 177.279 108.484 176.479 107.083C175.365 105.13 172.559 99.9694 171.311 97.3724Z" fill="#FFA8A7"/>
<path d="M159.03 89.1222C159.03 89.1222 157.537 83.2522 157.154 80.7995C156.771 78.3468 156.553 71.9671 159.094 69.8776C160.928 70.324 165.833 71.1969 167.246 75.8109C168.66 80.425 170.792 92.5774 170.792 92.5774L177.179 107.662C177.179 107.662 177.204 109.067 174.528 110.88C171.852 112.694 170.487 112.075 170.487 112.075C170.487 112.075 165.214 104.093 162.655 100.158C160.937 97.5153 160.514 95.7637 159.03 89.1222Z" fill="#E6E6E6"/>
<path d="M110.775 63.9007L110.786 54.8275L118.417 54.0235C118.583 54.0059 118.732 54.0426 118.855 54.1151C119.225 54.3319 122.734 56.3629 122.856 56.4333C123.229 56.6481 123.366 57.1901 123.019 57.5555L114.78 66.2225L110.775 63.9007Z" fill="#10B981"/>
<path d="M86.8376 84.3709L86.8369 56.2954C86.8369 55.8877 87.1234 55.3914 87.4761 55.188L110.371 41.9964C110.724 41.7923 111.295 41.7951 111.646 42.0027L115.206 44.1056C115.557 44.3133 115.842 44.8117 115.842 45.2193L115.842 73.2948C115.842 73.7025 115.556 74.1988 115.203 74.4022L92.3084 87.5938C91.955 87.798 91.3841 87.7951 91.0335 87.5875L87.4733 85.4846C87.1227 85.2776 86.8376 84.7785 86.8376 84.3709Z" fill="#10B981"/>
<path opacity="0.15" d="M92.2042 87.6445C91.9001 87.762 91.6692 87.5917 91.6678 87.2242L91.6692 59.1501C91.6699 58.9452 91.741 58.7199 91.8579 58.5193L87.0108 55.6878C86.9024 55.8835 86.8355 56.0989 86.8369 56.2968V84.373C86.8362 84.7792 87.1199 85.2769 87.4726 85.486L91.0321 87.5882C91.3524 87.7747 91.8522 87.7965 92.2042 87.6445Z" fill="black"/>
<path d="M122.424 56.3446L115.843 57.0381L115.843 45.2193C115.843 44.8117 115.556 44.6463 115.203 44.8504L92.3087 58.0413C91.956 58.2454 91.6694 58.7411 91.6694 59.1487L91.6701 87.2242C91.6701 87.6318 91.956 87.7972 92.3094 87.5931L115.204 74.4015C115.558 74.1974 115.844 73.7018 115.844 73.2941L115.843 65.1038L123.02 57.5541C123.48 57.0705 123.088 56.2742 122.424 56.3446Z" fill="#10B981"/>
<path opacity="0.35" d="M122.424 56.3446L115.843 57.0381L115.843 45.2193C115.843 44.8117 115.556 44.6463 115.203 44.8504L92.3087 58.0413C91.956 58.2454 91.6694 58.7411 91.6694 59.1487L91.6701 87.2242C91.6701 87.6318 91.956 87.7972 92.3094 87.5931L115.204 74.4015C115.558 74.1974 115.844 73.7018 115.844 73.2941L115.843 65.1038L123.02 57.5541C123.48 57.0705 123.088 56.2742 122.424 56.3446Z" fill="white"/>
<path d="M110.421 69.0328C110.471 68.9026 110.471 68.7695 110.415 68.7069L109.435 67.6206C109.214 67.3728 109.171 66.899 109.315 66.3506C109.321 66.34 109.322 66.3316 109.323 66.3238C109.323 66.3238 109.323 66.3238 109.326 66.3189C109.466 65.7839 109.771 65.2897 110.121 65.0334L111.689 63.8936C111.781 63.8282 111.854 63.6958 111.871 63.5642C111.954 62.9038 111.996 62.2223 111.998 61.55C112 60.9044 111.959 60.2737 111.877 59.6668C111.861 59.5598 111.79 59.5077 111.698 59.5464L110.132 60.2089C109.783 60.3511 109.479 60.2159 109.34 59.8477C109.336 59.8337 109.334 59.8231 109.33 59.809C109.186 59.4352 109.232 58.9009 109.455 58.4052L110.437 56.194C110.492 56.0694 110.496 55.9314 110.443 55.8631C109.882 55.1126 109.193 54.5811 108.384 54.2974C108.312 54.2692 108.215 54.3291 108.141 54.4424L106.905 56.4587C106.63 56.9057 106.244 57.1923 105.896 57.2042C105.891 57.2063 105.886 57.2007 105.88 57.2035C105.534 57.2077 105.298 56.9346 105.26 56.4939L105.084 54.5051C105.074 54.3882 105.004 54.3354 104.915 54.3608C103.986 54.6712 102.928 55.2809 101.995 56.0384C101.908 56.1102 101.838 56.2447 101.827 56.3742L101.643 58.5721C101.607 59.0557 101.366 59.602 101.023 59.9914C101.017 60.0019 101.011 60.004 101.004 60.0146C100.657 60.3983 100.27 60.5595 99.9976 60.4236L98.767 59.8287C98.6945 59.7921 98.5953 59.8499 98.5192 59.9597C97.7139 61.1713 97.019 62.4969 96.4537 63.8971C96.4009 64.0246 96.4037 64.1604 96.4593 64.2231L97.4365 65.3066C97.6561 65.5431 97.6977 66.0331 97.554 66.5738C97.5526 66.5899 97.5491 66.6033 97.5449 66.6167C97.3978 67.1623 97.1042 67.6326 96.7536 67.8888L95.1766 69.0364C95.0908 69.0997 95.0147 69.237 95.0014 69.3637C94.9169 70.0318 94.8725 70.7105 94.8711 71.3828C94.8704 72.0474 94.9112 72.6788 94.9936 73.2498C95.0091 73.3645 95.083 73.4117 95.1731 73.3702L96.7445 72.7133C97.0908 72.5683 97.3935 72.7112 97.54 73.0879C97.5393 73.0963 97.5442 73.1019 97.5435 73.1097C97.6892 73.4941 97.6442 74.0207 97.421 74.5163L96.441 76.7304C96.3826 76.8606 96.3798 76.9901 96.4291 77.0634C96.9916 77.8166 97.685 78.3432 98.4904 78.6319C98.5636 78.66 98.6636 78.5946 98.7347 78.4791L99.9709 76.4621C100.245 76.0151 100.633 75.7286 100.978 75.7243C100.984 75.7222 100.992 75.7222 100.998 75.7201C101.341 75.7138 101.575 75.9834 101.615 76.4276L101.791 78.4164C101.801 78.5333 101.867 78.591 101.96 78.5608C102.424 78.4059 102.914 78.1813 103.418 77.8927C103.919 77.6012 104.41 77.2633 104.88 76.8831C104.966 76.8113 105.034 76.674 105.047 76.5473L105.232 74.3494C105.271 73.8602 105.506 73.3244 105.849 72.9358C105.858 72.9281 105.867 72.9203 105.87 72.9154C106.217 72.524 106.599 72.3642 106.877 72.4979L108.107 73.1012C108.177 73.135 108.279 73.0801 108.353 72.9675C109.162 71.751 109.854 70.4303 110.421 69.0328ZM103.431 72.2353C101.042 73.6046 99.1064 72.1304 99.1134 68.9483C99.1183 65.7635 101.062 62.0534 103.449 60.6813C105.832 59.3141 107.767 60.796 107.763 63.9809C107.758 67.1658 105.812 70.866 103.431 72.2353Z" fill="white"/>
</svg>
