<svg width="130" height="130" viewBox="0 0 130 130" fill="none" xmlns="http://www.w3.org/2000/svg">
<rect width="130" height="130" rx="65" fill="#10B981" fill-opacity="0.5"/>
<path fill-rule="evenodd" clip-rule="evenodd" d="M65 15C51.42 15 49.72 15.0566 44.3866 15.3C39.0633 15.5433 35.4266 16.39 32.2466 17.6267C28.9133 18.88 25.89 20.8466 23.39 23.3933C20.8474 25.8904 18.8795 28.9116 17.6233 32.2466C16.3933 35.4266 15.5433 39.0666 15.3 44.39C15.06 49.72 15 51.4166 15 65C15 78.5835 15.0566 80.28 15.3 85.6135C15.5433 90.9365 16.39 94.5735 17.6267 97.7535C18.88 101.086 20.8466 104.11 23.3933 106.61C25.8905 109.152 28.9117 111.12 32.2466 112.376C35.4266 113.61 39.0633 114.456 44.3866 114.7C49.72 114.943 51.42 115 65 115C78.58 115 80.28 114.943 85.6135 114.7C90.9365 114.456 94.5735 113.61 97.7535 112.373C101.086 111.12 104.11 109.153 106.61 106.606C109.152 104.109 111.12 101.088 112.376 97.7535C113.61 94.5735 114.456 90.9365 114.7 85.6135C114.943 80.28 115 78.58 115 65C115 51.42 114.943 49.72 114.7 44.3866C114.456 39.0633 113.61 35.4266 112.373 32.2466C111.118 28.9102 109.15 25.8877 106.606 23.39C104.109 20.8474 101.088 18.8795 97.7535 17.6233C94.5735 16.3933 90.9335 15.5433 85.61 15.3C80.28 15.06 78.5835 15 65 15ZM65 24.01C78.35 24.01 79.9335 24.06 85.2065 24.3C90.08 24.5233 92.7265 25.3333 94.49 26.0233C96.8235 26.9266 98.49 28.0133 100.24 29.76C101.99 31.51 103.073 33.1766 103.976 35.51C104.663 37.2733 105.476 39.92 105.7 44.7933C105.94 50.0666 105.99 51.65 105.99 65C105.99 78.35 105.94 79.9335 105.7 85.2065C105.476 90.08 104.666 92.7265 103.976 94.49C103.176 96.662 101.899 98.6265 100.24 100.24C98.627 101.9 96.662 103.177 94.49 103.976C92.7265 104.663 90.08 105.476 85.2065 105.7C79.9335 105.94 78.3535 105.99 65 105.99C51.6466 105.99 50.0666 105.94 44.7933 105.7C39.92 105.476 37.2733 104.666 35.51 103.976C33.3382 103.176 31.3734 101.899 29.76 100.24C28.1006 98.6265 26.8237 96.6615 26.0233 94.49C25.3366 92.7265 24.5233 90.08 24.3 85.2065C24.06 79.9335 24.01 78.35 24.01 65C24.01 51.65 24.06 50.0666 24.3 44.7933C24.5233 39.92 25.3333 37.2733 26.0233 35.51C26.9266 33.1766 28.0133 31.51 29.76 29.76C31.3731 28.1001 33.338 26.8232 35.51 26.0233C37.2733 25.3366 39.92 24.5233 44.7933 24.3C50.0666 24.06 51.65 24.01 65 24.01Z" fill="black"/>
<path fill-rule="evenodd" clip-rule="evenodd" d="M65.0002 81.6835C62.8092 81.6835 60.6402 81.252 58.6157 80.4135C56.5917 79.575 54.7525 78.346 53.2034 76.797C51.6542 75.2475 50.4253 73.4085 49.5869 71.3845C48.7484 69.3605 48.3169 67.191 48.3169 65C48.3169 62.809 48.7484 60.6395 49.5869 58.6155C50.4253 56.5915 51.6542 54.7523 53.2034 53.2031C54.7525 51.6539 56.5917 50.4251 58.6157 49.5866C60.6402 48.7482 62.8092 48.3167 65.0002 48.3167C69.4252 48.3167 73.6682 50.0744 76.7972 53.2031C79.9257 56.332 81.6837 60.5755 81.6837 65C81.6837 69.4245 79.9257 73.668 76.7972 76.797C73.6682 79.9255 69.4252 81.6835 65.0002 81.6835ZM65.0002 39.3C58.1842 39.3 51.6473 42.0077 46.8276 46.8274C42.0079 51.6471 39.3003 58.184 39.3003 65C39.3003 71.816 42.0079 78.353 46.8276 83.1725C51.6473 87.9925 58.1842 90.7 65.0002 90.7C71.8162 90.7 78.3532 87.9925 83.1727 83.1725C87.9927 78.353 90.7002 71.816 90.7002 65C90.7002 58.184 87.9927 51.6471 83.1727 46.8274C78.3532 42.0077 71.8162 39.3 65.0002 39.3ZM98.1767 38.8334C98.1767 40.4445 97.5367 41.9897 96.3977 43.129C95.2582 44.2683 93.7132 44.9084 92.1022 44.9084C90.4907 44.9084 88.9457 44.2683 87.8062 43.129C86.6672 41.9897 86.0267 40.4445 86.0267 38.8334C86.0267 37.2222 86.6672 35.677 87.8062 34.5377C88.9457 33.3984 90.4907 32.7584 92.1022 32.7584C93.7132 32.7584 95.2582 33.3984 96.3977 34.5377C97.5367 35.677 98.1767 37.2222 98.1767 38.8334Z" fill="black"/>
</svg>
