<svg width="130" height="130" viewBox="0 0 130 130" fill="none" xmlns="http://www.w3.org/2000/svg">
<rect width="130" height="130" rx="65" fill="#10B981" fill-opacity="0.5"/>
<path d="M94.8115 61.2629C94.8115 44.8618 81.5642 31.566 65.223 31.566C48.8813 31.566 35.5781 44.9661 35.6345 61.3677C35.6624 69.5119 38.9576 76.8828 44.2726 82.2312C48.4101 86.3947 51.4368 91.5362 52.966 97.2128L55.3519 106.069H74.7478L77.0074 97.6811C78.5697 91.8822 81.6989 86.6499 85.9669 82.4382C91.4258 77.0509 94.8115 69.5539 94.8115 61.2629Z" fill="black"/>
<path d="M69.7036 116.441H60.2468C57.5677 116.441 55.2753 114.455 55.1225 111.936L54.3242 102.21L75.7418 102.072L74.8276 111.936C74.6751 114.455 72.3827 116.441 69.7036 116.441Z" fill="black"/>
<path d="M73.8161 106.314C67.8334 106.57 61.8291 106.263 55.847 106.528C55.3158 106.552 55.3556 107.33 55.8768 107.347C61.8638 107.547 67.8667 107.175 73.8544 107.366C74.5262 107.387 74.4964 106.284 73.8161 106.314Z" fill="#88DCC0"/>
<path d="M73.8161 108.922C67.8334 109.179 61.8291 108.871 55.847 109.136C55.3158 109.16 55.3556 109.938 55.8768 109.956C61.8638 110.155 67.8667 109.783 73.8544 109.974C74.5262 109.995 74.4964 108.893 73.8161 108.922Z" fill="#88DCC0"/>
<path d="M67.6358 16.4651C67.6358 18.3789 66.6219 25.2587 65.3713 25.2587C64.1208 25.2587 63.1069 18.3789 63.1069 16.4651C63.1069 14.5514 64.1208 13 65.3713 13C66.6219 13 67.6358 14.5514 67.6358 16.4651Z" fill="black"/>
<path d="M95.8513 27.0318C94.405 28.2789 89.8666 33.5343 90.6816 34.4864C91.4966 35.4384 97.3565 31.7266 98.8027 30.4795C100.249 29.2323 100.761 27.4495 99.9456 26.4974C99.1306 25.5454 97.2976 25.7846 95.8513 27.0318Z" fill="black"/>
<path d="M106.848 57.7336C104.957 57.9747 98.0288 57.8322 97.8714 56.5869C97.7138 55.3417 104.386 53.4655 106.278 53.2243C108.169 52.9832 109.83 53.7971 109.988 55.0423C110.145 56.2876 108.74 57.4924 106.848 57.7336Z" fill="black"/>
<path d="M37.4808 24.7468C38.9819 25.9267 43.7537 30.9696 42.9826 31.9579C42.2116 32.946 36.1897 29.5054 34.6886 28.3255C33.1874 27.1455 32.5955 25.388 33.3665 24.3997C34.1376 23.4113 35.9796 23.5668 37.4808 24.7468Z" fill="black"/>
<path d="M23.1517 52.8151C25.0432 53.0563 31.9712 52.9137 32.1286 51.6685C32.2862 50.4233 25.6138 48.547 23.7223 48.3059C21.8307 48.0647 20.1696 48.8787 20.012 50.1239C19.8546 51.3691 21.2602 52.5741 23.1517 52.8151Z" fill="black"/>
<path d="M77.9936 76.3833C77.0427 75.6852 76.3035 74.771 75.7652 73.7432C76.8383 72.4135 77.3111 70.6255 77.5077 68.9634C77.6278 67.9475 77.6618 66.9284 77.6781 65.9063C77.6938 64.921 77.5647 64.084 76.7332 63.4705C75.9919 62.9237 75.0021 63.4173 74.4329 63.948C73.7765 64.5603 73.4588 65.5632 73.2054 66.398C72.6934 68.0842 72.7029 69.8919 73.0242 71.6109C73.1362 72.2105 73.3036 72.7987 73.5189 73.369C73.0991 73.6988 72.6229 73.9601 72.0975 74.1288C70.4807 74.648 69.2537 73.7131 68.5055 72.33C68.3824 72.1026 68.266 71.8618 68.1561 71.6111C68.2832 71.2693 68.4046 70.9275 68.5178 70.5894C69.068 68.9457 69.3715 67.2244 69.5091 65.4988C69.6231 64.0685 69.6637 62.3596 68.2927 61.5124C67.852 61.24 67.3569 61.4459 67.0799 61.8315C65.0768 64.6208 65.1892 68.3197 66.2773 71.4842C65.9271 72.3253 65.5156 73.1403 65.0592 73.9293C64.5569 74.7974 63.5982 76.1366 62.435 75.9667C61.3522 75.8086 60.4864 74.4443 59.9481 73.6005C59.5535 72.9821 59.2439 72.3214 58.9996 71.6352C59.1373 71.272 59.2651 70.9044 59.3826 70.5326C59.8446 69.0716 60.1029 67.5486 60.2237 66.0228C60.3246 64.7489 60.3653 62.9597 58.9772 62.3496C58.5733 62.172 57.9769 62.1906 57.7628 62.6692C56.5445 65.3913 56.3108 68.3777 57.0792 71.2621C57.1052 71.3599 57.1359 71.4567 57.1647 71.554C56.3231 73.7047 55.0429 75.696 53.4887 77.3893C52.7909 78.1495 53.8954 79.271 54.6219 78.5267C56.0081 77.1065 57.1602 75.4937 58.0611 73.7432C58.3284 74.2472 58.6289 74.7325 58.9594 75.1917C59.8659 76.4516 61.0019 77.6314 62.6331 77.7198C64.1565 77.8023 65.3941 76.5169 66.2194 75.3992C66.6155 74.8629 66.9618 74.2788 67.2699 73.67C68.016 74.8632 69.0923 75.8095 70.5582 76.0156C71.9071 76.2053 73.2138 75.7847 74.3193 75.0419C74.9671 76.148 75.8038 77.1435 76.7791 77.963C77.8924 78.899 79.1646 77.2429 77.9936 76.3833ZM67.8023 63.9977C67.8648 64.7093 67.7008 65.5873 67.6613 66.0187C67.5893 66.8061 67.4519 67.5871 67.271 68.3578C67.086 66.8412 67.2096 65.2861 67.8023 63.9977ZM74.7147 68.4729C74.7705 67.7338 74.9647 67.0068 75.2101 66.3103C75.3212 65.9949 75.4634 65.6984 75.6408 65.4155C75.6548 65.3933 75.7171 65.3127 75.7803 65.2422C75.7887 65.2909 75.8092 65.3586 75.8144 65.4574C75.9091 67.2592 75.7608 69.2037 75.2019 70.9218C75.1325 71.1347 75.0492 71.3415 74.9552 71.5423C74.7197 70.534 74.638 69.4885 74.7147 68.4729Z" fill="#88DCC0"/>
<path d="M79.6766 72.0153C76.5302 81.6531 73.2186 91.2426 69.6607 100.735C69.2347 101.872 70.9791 102.568 71.4027 101.432C74.9483 91.9254 78.2413 82.332 81.1945 72.6226C81.4989 71.6211 80.0062 71.006 79.6766 72.0153Z" fill="#88DCC0"/>
<path d="M51.061 71.4061C53.5717 81.23 55.9171 91.1024 58.0033 101.026C58.253 102.214 60.0968 101.86 59.8453 100.674C57.7412 90.7446 55.3778 80.879 52.6659 71.0991C52.3863 70.0902 50.7981 70.3772 51.061 71.4061Z" fill="#88DCC0"/>
</svg>
