<svg width="418" height="113" viewBox="0 0 418 113" fill="none" xmlns="http://www.w3.org/2000/svg">
<g clip-path="url(#clip0_48_13)">
<rect x="-41" y="-387" width="500" height="500" rx="250" fill="#D9D9D9"/>
<path d="M224.58 33.51C219.96 33.51 215.713 34.5833 211.84 36.73C207.967 38.9233 204.887 41.9333 202.6 45.76C200.36 49.6333 199.24 53.9967 199.24 58.85C199.24 63.7033 200.36 68.0433 202.6 71.87C204.887 75.7433 207.967 78.7533 211.84 80.9C215.713 83.0467 219.96 84.12 224.58 84.12C229.247 84.12 233.493 83.0467 237.32 80.9C241.193 78.7533 244.25 75.7433 246.49 71.87C248.73 68.0433 249.85 63.7033 249.85 58.85C249.85 53.9967 248.73 49.6333 246.49 45.76C244.25 41.9333 241.193 38.9233 237.32 36.73C233.447 34.5833 229.2 33.51 224.58 33.51ZM224.58 46.25C228.08 46.25 230.833 47.3933 232.84 49.68C234.893 51.9667 235.92 55.0233 235.92 58.85C235.92 62.77 234.893 65.85 232.84 68.09C230.833 70.3767 228.08 71.52 224.58 71.52C221.033 71.52 218.257 70.3767 216.25 68.09C214.243 65.85 213.24 62.77 213.24 58.85C213.24 54.9767 214.243 51.8967 216.25 49.61C218.257 47.37 221.033 46.25 224.58 46.25Z" fill="white"/>
<path d="M187.45 34.65C192.63 34.65 197.157 35.7 201.03 37.8C204.95 39.8533 207.96 42.7467 210.06 46.48C212.16 50.2133 213.21 54.4833 213.21 59.29C213.21 64.05 212.137 68.2967 209.99 72.03C207.89 75.7633 204.88 78.7033 200.96 80.85C197.087 82.95 192.583 84 187.45 84H167.92V34.65H187.45ZM186.4 71.89C190.413 71.89 193.563 70.7933 195.85 68.6C198.137 66.4067 199.28 63.3033 199.28 59.29C199.28 55.23 198.137 52.1033 195.85 49.91C193.563 47.67 190.413 46.55 186.4 46.55H181.64V71.89H186.4Z" fill="#10B981"/>
</g>
<defs>
<clipPath id="clip0_48_13">
<path d="M0 0H418V13C418 68.2285 373.228 113 318 113H0V0Z" fill="white"/>
</clipPath>
</defs>
</svg>
