<svg width="89" height="52" viewBox="0 0 89 52" fill="none" xmlns="http://www.w3.org/2000/svg">
<path d="M60.58 0.51C55.96 0.51 51.7133 1.58333 47.84 3.73C43.9667 5.92333 40.8867 8.93333 38.6 12.76C36.36 16.6333 35.24 20.9967 35.24 25.85C35.24 30.7033 36.36 35.0433 38.6 38.87C40.8867 42.7433 43.9667 45.7533 47.84 47.9C51.7133 50.0467 55.96 51.12 60.58 51.12C65.2467 51.12 69.4933 50.0467 73.32 47.9C77.1933 45.7533 80.25 42.7433 82.49 38.87C84.73 35.0433 85.85 30.7033 85.85 25.85C85.85 20.9967 84.73 16.6333 82.49 12.76C80.25 8.93333 77.1933 5.92333 73.32 3.73C69.4467 1.58333 65.2 0.51 60.58 0.51ZM60.58 13.25C64.08 13.25 66.8333 14.3933 68.84 16.68C70.8933 18.9667 71.92 22.0233 71.92 25.85C71.92 29.77 70.8933 32.85 68.84 35.09C66.8333 37.3767 64.08 38.52 60.58 38.52C57.0333 38.52 54.2567 37.3767 52.25 35.09C50.2433 32.85 49.24 29.77 49.24 25.85C49.24 21.9767 50.2433 18.8967 52.25 16.61C54.2567 14.37 57.0333 13.25 60.58 13.25Z" fill="white"/>
<path d="M23.45 1.65C28.63 1.65 33.1567 2.7 37.03 4.8C40.95 6.85333 43.96 9.74666 46.06 13.48C48.16 17.2133 49.21 21.4833 49.21 26.29C49.21 31.05 48.1367 35.2967 45.99 39.03C43.89 42.7633 40.88 45.7033 36.96 47.85C33.0867 49.95 28.5833 51 23.45 51H3.92V1.65H23.45ZM22.4 38.89C26.4133 38.89 29.5633 37.7933 31.85 35.6C34.1367 33.4067 35.28 30.3033 35.28 26.29C35.28 22.23 34.1367 19.1033 31.85 16.91C29.5633 14.67 26.4133 13.55 22.4 13.55H17.64V38.89H22.4Z" fill="#10B981"/>
</svg>
