<svg width="130" height="130" viewBox="0 0 130 130" fill="none" xmlns="http://www.w3.org/2000/svg">
<rect width="130" height="130" rx="65" fill="#10B981" fill-opacity="0.5"/>
<path d="M99.0519 40.2907C95.22 40.2907 92.1055 35.8405 92.1055 32.0082C92.1055 28.1735 95.22 25.0599 99.0519 25.0599C102.89 25.0599 105.999 28.1694 105.999 32.0082C105.999 35.8405 102.89 40.2907 99.0519 40.2907Z" fill="black"/>
<path d="M81.5468 70.0851L80.3798 91.4589C80.2822 93.279 81.6752 94.8333 83.4921 94.931C83.5535 94.9337 83.6149 94.9369 83.6736 94.9369C85.4126 94.9369 86.8638 93.5742 86.9642 91.8219L87.9886 72.9938L90.8103 72.4245V91.6376C90.8103 93.1557 92.0382 94.3841 93.5563 94.3841H112.253C113.769 94.3841 115 93.153 115 91.6376V69.9627V67.763V60.5319C115 59.0175 113.769 57.7854 112.253 57.7854C112.117 57.7854 111.999 57.8427 111.871 57.862L112.1 57.608C112.552 57.1016 112.803 56.447 112.803 55.7673L112.781 45.7892C112.781 45.764 112.767 45.7443 112.767 45.7209C112.761 45.5188 112.697 45.3304 112.65 45.1352C112.608 44.9816 112.597 44.8212 112.53 44.6759C112.463 44.5182 112.345 44.3954 112.245 44.256C112.144 44.1066 112.061 43.9462 111.932 43.8206C111.826 43.7174 111.684 43.656 111.558 43.5721C111.385 43.4521 111.226 43.3265 111.028 43.2499C111.006 43.2403 110.992 43.2206 110.967 43.2151C110.715 43.1243 105.158 41.1286 100.065 40.8774L99.4119 42.1861H99.3922L101.243 56.5937L99.0406 60.4311L96.8437 56.5937L98.6886 42.1861H98.6689L98.0217 40.8797C93.1062 41.1199 87.7782 42.9772 87.1755 43.1922L76.299 46.8192L76.9554 45.5926C77.0948 45.3249 76.9944 44.9926 76.7262 44.8528C76.4613 44.7093 76.129 44.8097 75.9814 45.0774L74.7892 47.3243L73.9967 47.5883C72.5565 48.0682 71.7805 49.6225 72.2609 51.0631C72.3278 51.257 72.4337 51.4174 72.5345 51.5866L70.5054 55.4267C70.3656 55.6958 70.4632 56.0267 70.7341 56.1706C70.8152 56.2128 70.9046 56.2334 70.9935 56.2334C71.1833 56.2334 71.379 56.1275 71.4794 55.9419L73.3298 52.4487C73.779 52.76 74.3208 52.9374 74.8818 52.9374C75.1692 52.9374 75.4625 52.8924 75.7499 52.7976L88.9351 48.4014C88.9457 48.3987 88.9544 48.3877 88.9631 48.3822C88.9796 48.3794 88.991 48.3822 89.002 48.3794C89.0245 48.3712 89.9678 48.0361 91.3631 47.6383V65.5918L84.1874 67.0319C82.7161 67.3303 81.6279 68.5839 81.5468 70.0851ZM107.311 54.7231L106.747 55.3525V47.6383C106.937 47.6955 107.121 47.7501 107.297 47.8014L107.311 54.7231ZM109.521 60.4783C109.521 60.5008 109.51 60.515 109.51 60.5315V65.5918L106.742 66.239V63.5709L109.521 60.4783ZM96.3056 74.3387L109.51 71.2351V88.8939H96.3056V74.3387Z" fill="black"/>
<path d="M30.9502 40.2907C27.1128 40.2907 24.002 35.8405 24.002 32.0082C24.002 28.1735 27.1128 25.0599 30.9502 25.0599C34.7826 25.0599 37.8958 28.1694 37.8958 32.0082C37.8962 35.8405 34.7826 40.2907 30.9502 40.2907Z" fill="black"/>
<path d="M15 60.5342V67.7685V69.9649V91.6403C15 93.1584 16.2321 94.3891 17.7465 94.3891H36.4439C37.962 94.3891 39.1918 93.1557 39.1918 91.6403V72.4268L42.0121 72.9933L43.0374 91.8214C43.1351 93.5797 44.5894 94.9392 46.3266 94.9392C46.3867 94.9392 46.4467 94.9392 46.5068 94.9332C48.3251 94.8328 49.7194 93.2813 49.6199 91.4643L48.4534 70.091C48.3737 68.5894 47.2837 67.333 45.8128 67.0379L38.6358 65.5922V47.641C38.8297 47.6983 39.014 47.7501 39.1845 47.8019V58.9826C39.1845 60.0213 39.7735 60.9756 40.7026 61.439L45.0982 63.6382C45.4915 63.8335 45.9118 63.9283 46.3234 63.9283C47.3327 63.9283 48.3022 63.376 48.7825 62.4103C49.4595 61.054 48.9136 59.402 47.5505 58.7218L44.6784 57.2876V45.7993C44.6784 45.7727 44.6628 45.753 44.6628 45.7237C44.6573 45.5215 44.5917 45.3304 44.5427 45.1347C44.5037 44.9839 44.4895 44.8234 44.4281 44.6813C44.3598 44.5205 44.237 44.3921 44.1407 44.2528C44.0376 44.1061 43.9551 43.9484 43.8254 43.8256C43.7181 43.7211 43.5769 43.6583 43.4458 43.5689C43.2772 43.4543 43.1209 43.3292 42.9224 43.2522C42.9031 43.2439 42.8862 43.2233 42.8623 43.2173C42.6112 43.127 37.0531 41.1313 31.9566 40.8797L31.3048 42.1888H31.2883L33.1346 56.596L30.9367 60.4338L28.7361 56.596L30.5852 42.1888H30.5659L29.9114 40.8797C24.8176 41.1309 19.2595 43.1266 19.0111 43.2173C18.9845 43.2233 18.9735 43.2439 18.9511 43.2522C18.7531 43.3292 18.5908 43.4575 18.4194 43.5749C18.2938 43.6615 18.1499 43.7215 18.044 43.8233C17.9156 43.9489 17.8336 44.1098 17.73 44.2587C17.6324 44.3985 17.515 44.5209 17.4467 44.679C17.3807 44.8216 17.3702 44.982 17.3266 45.1379C17.279 45.3336 17.2148 45.5188 17.2098 45.7241C17.2098 45.7479 17.1955 45.7704 17.1955 45.7924V55.7704C17.1928 56.4502 17.444 57.1047 17.8991 57.6112L18.1279 57.8652C17.9995 57.8459 17.8822 57.7886 17.7442 57.7886C16.2321 57.7882 15 59.017 15 60.5342ZM23.2601 55.3524L22.6977 54.7231L22.7087 47.8014C22.8861 47.7496 23.069 47.6955 23.2601 47.6382V55.3524ZM20.4925 71.2351L33.697 74.3386V88.8938H20.4925V71.2351ZM20.4815 60.4783L23.2601 63.5708V66.2389L20.4925 65.5917V60.5314C20.4925 60.5149 20.4815 60.5007 20.4815 60.4783Z" fill="black"/>
<path d="M52.9202 56.871H77.0891C78.912 56.871 80.3851 58.3446 80.3851 60.1657C80.3851 61.9858 78.9083 63.4594 77.0891 63.4594H76.4863V91.6376C76.4863 93.1557 75.2529 94.3841 73.7343 94.3841H56.2795C54.7614 94.3841 53.5316 93.1529 53.5316 91.6376V63.4594H52.9202C51.1005 63.4594 49.6255 61.9858 49.6255 60.1657C49.6255 58.3446 51.1032 56.871 52.9202 56.871Z" fill="black"/>
</svg>
