<svg width="40" height="33" viewBox="0 0 40 33" fill="none" xmlns="http://www.w3.org/2000/svg">
<path d="M16.2462 24.0246C16.2462 26.2235 15.442 28.078 13.8338 29.5877C12.2585 31.0974 10.3385 31.8523 8.07385 31.8523C5.74359 31.8523 3.80718 31.0974 2.26462 29.5877C0.754872 28.078 0 26.2235 0 24.0246C0 22.9743 0.147692 21.8585 0.443077 20.6769C0.738462 19.4954 1.32923 17.9692 2.21538 16.0985L9.84615 0H17.2308L13.1446 17.8215C14.0636 18.478 14.802 19.3477 15.36 20.4308C15.9508 21.4811 16.2462 22.6789 16.2462 24.0246ZM38.1538 24.0246C38.1538 26.2235 37.3497 28.078 35.7415 29.5877C34.1334 31.0974 32.2134 31.8523 29.9815 31.8523C27.7169 31.8523 25.7969 31.0974 24.2215 29.5877C22.6789 28.078 21.9077 26.2235 21.9077 24.0246C21.9077 22.9743 22.0554 21.8585 22.3508 20.6769C22.6462 19.4954 23.2534 17.9692 24.1723 16.0985L31.8523 0H39.1877L35.0523 17.8215C36.0042 18.478 36.7589 19.3477 37.3169 20.4308C37.8749 21.4811 38.1538 22.6789 38.1538 24.0246Z" fill="black"/>
</svg>
