<svg width="130" height="130" viewBox="0 0 130 130" fill="none" xmlns="http://www.w3.org/2000/svg">
<rect width="130" height="130" rx="65" fill="#10B981" fill-opacity="0.5"/>
<path d="M65 11C35.18 11 11 35.18 11 65C11 94.82 35.18 119 65 119C94.82 119 119 94.82 119 65C119 35.18 94.82 11 65 11ZM17.66 69.08H32.72C32.96 74.54 33.722 79.964 35 85.28H22.04C19.622 80.18 18.14 74.696 17.66 69.08ZM69.08 36.68V18.14C74.864 20.336 79.616 24.62 82.4 30.14C83.63 32.222 84.716 34.388 85.64 36.62L69.08 36.68ZM88.4 44.78C89.792 50.078 90.62 55.508 90.86 60.98H69.08V44.78H88.4ZM60.92 18.14V36.68H44.36C45.284 34.448 46.37 32.282 47.6 30.2C50.372 24.656 55.13 20.36 60.92 18.14ZM60.92 44.78V60.98H39.2C39.44 55.508 40.268 50.078 41.66 44.78H60.92ZM32.72 60.92H17.66C18.14 55.304 19.622 49.82 22.04 44.72H35C33.722 50.036 32.96 55.46 32.72 60.92ZM39.2 69.08H60.92V85.28H41.66C40.268 79.982 39.44 74.552 39.2 69.08ZM60.98 93.08V111.62C55.196 109.424 50.444 105.14 47.66 99.62C46.43 97.538 45.344 95.372 44.42 93.14L60.98 93.08ZM69.08 111.62V93.38H85.64C84.716 95.612 83.63 97.778 82.4 99.86C79.616 105.38 74.864 109.664 69.08 111.86V111.62ZM69.08 84.98V68.78H90.8C90.56 74.252 89.732 79.682 88.34 84.98H69.08ZM97.34 68.78H112.4C111.92 74.396 110.438 79.88 108.02 84.98H95C96.26 79.76 97.022 74.438 97.28 69.08L97.34 68.78ZM97.34 60.68C97.064 55.316 96.284 50 95 44.78H107.96C110.378 49.88 111.86 55.364 112.34 60.98L97.34 60.68ZM103.34 36.68H92.6C90.656 31.22 87.842 26.12 84.26 21.56C91.724 24.92 98.21 30.116 103.1 36.68H103.34ZM45.74 21.56C42.158 26.12 39.344 31.22 37.4 36.68H26.9C31.79 30.116 38.276 24.92 45.74 21.56ZM26.84 93.56H37.4C39.344 99.02 42.158 104.12 45.74 108.68C38.252 105.278 31.76 100.01 26.9 93.38L26.84 93.56ZM84.2 108.68C87.782 104.12 90.596 99.02 92.54 93.56H103.1C98.18 100.04 91.7 105.158 84.26 108.44L84.2 108.68Z" fill="black"/>
</svg>
