<svg width="602" height="373" viewBox="0 0 602 373" fill="none" xmlns="http://www.w3.org/2000/svg">
<g clip-path="url(#clip0_79_17)">
<path d="M416 370.5C383 370.5 352.667 362.833 325 347.5C297.333 331.833 275.333 310.333 259 283C243 255.333 235 224.167 235 189.5C235 154.833 243 123.833 259 96.5C275.333 68.8333 297.333 47.3333 325 32C352.667 16.6667 383 8.99999 416 8.99999C449.333 8.99999 479.667 16.6667 507 32C534.667 47.3333 556.5 68.8333 572.5 96.5C588.5 123.833 596.5 154.833 596.5 189.5C596.5 224.167 588.5 255.333 572.5 283C556.5 310.333 534.667 331.833 507 347.5C479.333 362.833 449 370.5 416 370.5ZM416 279.5C441 279.5 460.667 271.333 475 255C489.667 238.667 497 216.833 497 189.5C497 161.5 489.667 139.5 475 123.5C460.667 107.167 441 99 416 99C390.667 99 370.833 107.167 356.5 123.5C342.167 139.5 335 161.5 335 189.5C335 217.167 342.167 239.167 356.5 255.5C370.833 271.5 390.667 279.5 416 279.5Z" fill="white"/>
<path d="M149.5 14.5C186.5 14.5 218.833 22 246.5 37C274.5 51.6666 296 72.3333 311 99C326 125.667 333.5 156.167 333.5 190.5C333.5 224.5 325.833 254.833 310.5 281.5C295.5 308.167 274 329.167 246 344.5C218.333 359.5 186.167 367 149.5 367H10V14.5H149.5ZM142 280.5C170.667 280.5 193.167 272.667 209.5 257C225.833 241.333 234 219.167 234 190.5C234 161.5 225.833 139.167 209.5 123.5C193.167 107.5 170.667 99.5 142 99.5H108V280.5H142Z" fill="#10B981"/>
</g>
<defs>
<clipPath id="clip0_79_17">
<rect width="602" height="373" fill="white"/>
</clipPath>
</defs>
</svg>
